<?xml version="1.0" encoding="UTF-8"?>
<svg id="b" data-name="Layer 2" xmlns="http://www.w3.org/2000/svg" width="665.336" height="665.336" xmlns:xlink="http://www.w3.org/1999/xlink" viewBox="0 0 665.336 665.336">
  <defs>
    <linearGradient id="d" x1="232.656" y1="235.829" x2="352.737" y2="182.319" gradientUnits="userSpaceOnUse">
      <stop offset=".063" stop-color="#281d33"/>
      <stop offset=".689" stop-color="#592a9e"/>
    </linearGradient>
    <linearGradient id="e" x1="312.365" y1="345.807" x2="449.072" y2="284.888" gradientUnits="userSpaceOnUse">
      <stop offset="0" stop-color="#4f2787"/>
      <stop offset=".674" stop-color="#ac098e"/>
    </linearGradient>
    <linearGradient id="f" x1="182.146" y1="380.34" x2="280.599" y2="380.34" gradientUnits="userSpaceOnUse">
      <stop offset="0" stop-color="#281d33"/>
      <stop offset=".789" stop-color="#592a9e"/>
    </linearGradient>
    <linearGradient id="g" x1="255.585" y1="302.731" x2="256.504" y2="302.731" xlink:href="#f"/>
    <linearGradient id="h" x1="-2127.691" y1="380.34" x2="-2004.85" y2="380.34" gradientTransform="translate(-1644.502) rotate(-180) scale(1 -1)" gradientUnits="userSpaceOnUse">
      <stop offset="0" stop-color="#780276"/>
      <stop offset=".306" stop-color="#7a0277"/>
      <stop offset=".551" stop-color="#a2098c"/>
    </linearGradient>
    <linearGradient id="i" x1="413.22" y1="247.666" x2="413.24" y2="247.666" gradientUnits="userSpaceOnUse">
      <stop offset=".16" stop-color="#a2098c"/>
      <stop offset=".633" stop-color="#780276"/>
    </linearGradient>
    <linearGradient id="j" x1="334.328" y1="203.371" x2="415.076" y2="203.371" xlink:href="#i"/>
  </defs>
  <g id="c" data-name="Layer 14">
    <g>
      <rect width="665.336" height="665.336" fill="#201625" stroke-width="0"/>
      <g>
        <path d="M328.627,141.688s2.954-1.158,11.173-6.315c0,0-2.818,5.538.486,7.287l-11.659-.972Z" fill="#eed2ff" stroke-width="0"/>
        <path d="M341.744,218.151s-20.986.972-38.474,13.796c-17.488,12.825-23.124,21.375-23.124,21.375,0,0-11.983,7.951-11.983,14.363,0,0-2.386-3.873-1.65-7.739,1.002-5.264,9.041-10.312,11.812-14.441,3.375-5.03,8.587-13.544,10.371-20.553,0,0-18.973,23.458-34.331,33.81-1.873,1.263-3.102,3.281-3.35,5.527-.415,3.763-.611,9.442,1.344,12.74,0,0-5-3.906-6.033-14.38-.227-2.302.558-4.587,2.171-6.244,5.19-5.328,17.623-18.859,23.681-32.036,7.773-16.905,14.379-31.479,18.46-43.915,4.081-12.436,10.882-21.375,22.735-29.147,11.853-7.773,20.954-10.299,20.954-10.299v62.958s-.01,12.825,7.416,14.185Z" fill="url(#d)" stroke-width="0"/>
        <path d="M318.944,329.599c-26.427,2.917-45.081,0-45.081,0,26.686,6.417,62.021,3.513,89.903-.583,31.101-4.569,59.849.583,59.849.583-28.748-11.278-78.244-2.917-104.671,0Z" fill="url(#e)" stroke-width="0"/>
        <g>
          <path d="M240.717,407.495l-27.221,13.522s-21.763-17.221-14.768-51.749l6.995-34.527s-10.493-3.498-6.607-16.323c3.886-12.825,35.365-10.104,55.963.777,0,0-17.488-16.323-45.081-25.261,0,0,1.414-8.341,18.654-6.218,14.292,1.76,24.021,11.277,26.933,14.484-3.749-4.387-18.124-21.801-25.155-38.838l8.456-20.986s8.578-5.441,23.85-11.659c0,0-31.364,6.736-62.713,38.086,0,0,2.85,11.141,1.295,18.395-1.555,7.254-9.586,9.845-9.586,9.845,0,0,1.295,5.959,0,12.954-1.295,6.995-9.586,45.858-9.586,45.858,0,0,5.959,7.133,7.513,13.412,0,0,1.036,22.601,6.218,39.701,5.182,17.1,23.318,63.735,84.721,120.994,0,0-48.838-52.983-66.715-93.012,0,0-.018-.05-.05-.146-1.996-5.982.395-12.553,5.724-15.924l21.158-13.386Z" fill="url(#f)" stroke-width="0"/>
          <path d="M255.585,302.2c.584.683.919,1.061.919,1.061,0,0-.318-.399-.919-1.061Z" fill="url(#g)" stroke-width="0"/>
        </g>
        <path d="M437.351,466.559c-18.399,34.386-52.858,63.404-52.858,63.404,27.417-25.566,39.995-43.757,52.858-63.404h0Z" fill="#eed2ff" stroke-width="0"/>
        <path d="M428.977,248.648h0s-11.106-11.713-26.378-17.931c0,0,31.364,6.736,62.713,38.086,0,0-2.85,11.141-1.295,18.395,1.555,7.254,9.586,9.845,9.586,9.845,0,0-1.295,5.959,0,12.954,1.295,6.995,9.586,45.858,9.586,45.858,0,0-5.959,7.133-7.513,13.412,0,0-1.036,22.601-6.218,39.701-5.182,17.1-23.318,63.735-84.721,120.994,0,0,48.838-52.983,66.715-93.012,0,0,.018-.05.05-.146,1.996-5.982-.395-12.553-5.724-15.924l-21.158-13.386,27.221,13.522s21.763-17.221,14.768-51.749l-6.995-34.527s10.493-3.498,6.607-16.323c0,0-40.572-24.244-105.871-9.078,0,0,44.553-29.915,98.443-21.624,0,0-19.427-12.436-75.135-7.254,50.307-9.213,45.321-31.813,45.321-31.813" fill="url(#h)" stroke-width="0"/>
        <g>
          <path d="M413.23,247.666c.036.052-.035-.052,0,0h0Z" fill="url(#i)" stroke-width="0"/>
          <path d="M409.166,265.434c.395-.375.787-.754,1.172-1.14,0,0,.011.007.02.011l1.244-1.177c3.692-5.247,4.767-10.815,1.629-15.462-3.63-5.276-4.437-6.937-10.86-18.439-8.356-14.962-22.541-44.11-26.427-57.323-2.429-8.258-10.844-15.04-16.813-18.965-3.051-2.006-6.311-3.671-9.694-5.046-4.352-1.769-11.722-4.867-15.108-6.886v62.958s-.047,13.109,7.416,14.185c13.473,1.943,23.195,5.954,41.034,17.497,17.592,11.383,26.025,30.025,26.068,30.085.06-.056.12-.11.18-.166l.141-.133Z" fill="url(#j)" stroke-width="0"/>
        </g>
        <g>
          <rect x="224.149" y="352.543" width="6.698" height="6.619" fill="none" stroke-width="0"/>
          <rect x="320.281" y="352.622" width="6.699" height="6.699" fill="none" stroke-width="0"/>
          <rect x="256.651" y="352.622" width="6.699" height="6.699" fill="none" stroke-width="0"/>
          <path d="M239.467,348.029l-4.1-4.185h-15.738l-4.1,4.185v44.175l-3.229,6.459,14.46-14.461h-2.612v-16.421h6.698v18.182l-3.229,6.459,14.46-14.461h-2.611v-29.933ZM231.267,387.359l.58-1.16v-19.418h-8.698v18.421h1.198l-8.397,8.397.58-1.16v-44.003l3.52-3.593h14.898l3.52,3.593v30.524h1.197l-8.397,8.397Z" fill="#fff" stroke-width="0"/>
          <path d="M223.149,360.162h8.698v-8.619h-8.698v8.619ZM224.149,352.543h6.698v6.619h-6.698v-6.619Z" fill="#fff" stroke-width="0"/>
          <path d="M271.969,365.964l-2.833-2.833h-1.616l4.449-3.395v-11.63l-4.103-4.103h-22.446l2.611,2.612v34.031l-2.611,2.612h13.843l-2.612-2.612v-12.706h6.699v12.706l-2.612,2.612h13.843l-2.611-2.612v-14.683ZM263.152,382.259l1.198-1.198v-14.12h-8.699v14.12l1.198,1.198h-9.015l1.197-1.198v-34.859l-1.197-1.198h19.618l3.517,3.517v10.721l-6.408,4.89h4.161s2.247,2.248,2.247,2.248v14.683l1.197,1.198h-9.015Z" fill="#fff" stroke-width="0"/>
          <path d="M255.651,360.321h8.699v-8.699h-8.699v8.699ZM256.651,352.622h6.699v6.699h-6.699v-6.699Z" fill="#fff" stroke-width="0"/>
          <path d="M283.426,344.003l-4.103,4.103v30.968l4.1,4.185h15.738l4.1-4.185v-8.323h-8.619v3.81h-6.699v-21.938h6.699v3.81h8.619v-8.326l-4.103-4.103h-15.732ZM302.261,355.432h-6.619v-3.81h-8.699v23.938h8.699v-3.81h6.619v6.915l-3.52,3.593h-14.898l-3.52-3.593v-30.146l3.517-3.517h14.904l3.517,3.517v6.912Z" fill="#fff" stroke-width="0"/>
          <path d="M335.599,348.106l-4.103-4.103h-15.732l-4.103,4.103v32.541l-2.611,2.612h13.843l-2.612-2.612v-12.706h6.699v12.706l-2.611,2.612h13.843l-2.612-2.612v-32.541ZM326.783,382.259l1.197-1.198v-14.12h-8.699v14.12l1.198,1.198h-9.015l1.197-1.198v-32.541l3.517-3.517h14.904l3.517,3.517v32.541l1.198,1.198h-9.015Z" fill="#fff" stroke-width="0"/>
          <path d="M319.281,360.321h8.699v-8.699h-8.699v8.699ZM320.281,352.622h6.699v6.699h-6.699v-6.699Z" fill="#fff" stroke-width="0"/>
          <path d="M372.916,344.003h-13.843l2.612,2.612v14.435l-6.861-17.047h-11.069l2.612,2.612v34.031l-2.612,2.612h13.843l-2.611-2.612v-14.434l6.861,17.046h11.068l-2.611-2.612v-34.031l2.611-2.612ZM362.523,382.259l-8.537-21.208v20.01l1.197,1.198h-9.015l1.198-1.198v-34.859l-1.198-1.198h7.979l8.537,21.209v-20.011l-1.198-1.198h9.015l-1.197,1.198v34.859l1.197,1.198h-7.979Z" fill="#fff" stroke-width="0"/>
          <path d="M396.282,346.615v27.945h-6.699v-27.945l2.612-2.612h-13.843l2.611,2.612v32.458l4.1,4.185h15.738l4.1-4.185v-32.458l2.611-2.612h-13.843l2.612,2.612ZM403.901,378.665l-3.52,3.593h-14.898l-3.52-3.593v-32.464l-1.197-1.198h9.015l-1.198,1.198v29.359h8.699v-29.359l-1.198-1.198h9.015l-1.197,1.198v32.464Z" fill="#fff" stroke-width="0"/>
          <path d="M437.291,384.203l14.463,14.462-3.231-6.46v-45.748l2.612-2.612h-11.07l-8.074,20.186-8.074-20.186h-11.149l2.612,2.612v31.505h-2.618l14.532,14.432-3.216-6.431v-19.853l3.683,9.37h8.379l3.765-9.413v18.135h-2.612ZM428.441,374.48l-5.364-13.648v25.367l.595,1.188-8.485-8.426h1.192v-32.919l-1.198-1.198h8.058l8.752,21.878,8.752-21.878h7.979l-1.198,1.198v46.398l.579,1.159-8.396-8.396h1.198v-24.328l-5.442,13.605h-7.02Z" fill="#fff" stroke-width="0"/>
        </g>
        <path d="M302.992,265.189l23.867,6.06h0l-29.849-25.379,4.217,9.197,1.766,10.122Z" fill="#c12788" stroke-width="0"/>
        <path d="M367.43,255.067l4.217-9.197-29.849,25.379h0l23.867-6.06,1.766-10.122Z" fill="#c12788" stroke-width="0"/>
        <g>
          <path d="M275.754,412.813v-7.2h1.529v7.2h-1.529Z" fill="#fff" stroke-width="0"/>
          <path d="M281.934,412.813v-7.2h1.6l4.03,4.8v-4.8h1.569v7.2h-1.6l-4.05-4.82v4.82h-1.55Z" fill="#fff" stroke-width="0"/>
          <path d="M294.274,412.813v-7.2h6.65v1.561h-5.08v1.26h4.09v1.56h-4.09v2.82h-1.57Z" fill="#fff" stroke-width="0"/>
          <path d="M306.944,412.813c-.407,0-.756-.145-1.045-.435-.291-.29-.436-.639-.436-1.046v-4.239c0-.407.145-.755.436-1.045.289-.29.638-.436,1.045-.436h4.239c.4,0,.747.146,1.04.436s.44.638.44,1.045v4.239c0,.407-.147.756-.44,1.046s-.64.435-1.04.435h-4.239ZM307.343,411.254h3.75v-4.08h-4.08v4.08h.33Z" fill="#fff" stroke-width="0"/>
          <path d="M317.753,412.813v-7.19h5.71c.406,0,.757.147,1.051.44.293.293.439.64.439,1.04v1.86c0,.399-.146.746-.439,1.04-.294.293-.645.439-1.051.439h-.07l1.561,1.84v.53h-1.6l-1.99-2.37-2.061.01v2.36h-1.55ZM319.633,408.884h3.75v-1.71h-4.08v1.71h.33Z" fill="#fff" stroke-width="0"/>
          <path d="M330.014,412.813v-7.2h1.6l2.439,2.91,2.432-2.91h1.609v7.2h-1.561v-4.83l-2.48,2.96-2.49-2.95v4.82h-1.549Z" fill="#fff" stroke-width="0"/>
          <path d="M343.313,412.813v-5.72c0-.407.145-.755.436-1.045.289-.29.639-.436,1.045-.436h4.23c.406,0,.756.146,1.049.436s.441.638.441,1.045v5.72h-1.57v-2.32h-4.08v2.32h-1.551ZM344.864,408.933h4.08v-1.76h-4.08v1.76Z" fill="#fff" stroke-width="0"/>
          <path d="M358.114,412.813v-5.64h-2.82v-1.561h7.201v1.561h-2.82v5.64h-1.561Z" fill="#fff" stroke-width="0"/>
          <path d="M367.204,412.813v-7.2h1.529v7.2h-1.529Z" fill="#fff" stroke-width="0"/>
          <path d="M374.842,412.813c-.406,0-.754-.145-1.045-.435-.289-.29-.434-.639-.434-1.046v-4.239c0-.407.145-.755.434-1.045.291-.29.639-.436,1.045-.436h4.24c.4,0,.748.146,1.041.436s.439.638.439,1.045v4.239c0,.407-.146.756-.439,1.046s-.641.435-1.041.435h-4.24ZM375.243,411.254h3.75v-4.08h-4.08v4.08h.33Z" fill="#fff" stroke-width="0"/>
          <path d="M385.663,412.813v-7.2h1.6l4.031,4.8v-4.8h1.568v7.2h-1.6l-4.049-4.82v4.82h-1.551Z" fill="#fff" stroke-width="0"/>
          <path d="M293.008,433.813c-.406,0-.755-.145-1.045-.435s-.436-.639-.436-1.046v-.67h1.551v.591h4.08v-1.261h-4.15c-.406,0-.755-.145-1.045-.435s-.436-.639-.436-1.045v-1.42c0-.407.146-.755.436-1.045s.639-.436,1.045-.436h4.24c.4,0,.746.146,1.039.436.294.29.441.638.441,1.045v.67h-1.57v-.59h-4.08v1.26h4.17c.4,0,.746.145,1.039.435.294.29.441.639.441,1.045v1.42c0,.407-.147.756-.441,1.046-.293.29-.639.435-1.039.435h-4.24Z" fill="#fff" stroke-width="0"/>
          <path d="M303.848,433.813v-7.2h6.65v1.561h-5.08v1.26h4.09v1.56h-4.09v1.261h5.08v1.56h-6.65Z" fill="#fff" stroke-width="0"/>
          <path d="M316.968,433.813c-.407,0-.755-.145-1.045-.435s-.435-.639-.435-1.046v-4.239c0-.407.145-.755.435-1.045s.638-.436,1.045-.436h5.7v1.561h-5.631v4.08h5.631v1.56h-5.7Z" fill="#fff" stroke-width="0"/>
          <path d="M329.169,433.813c-.407,0-.756-.145-1.045-.435-.291-.29-.436-.639-.436-1.046v-5.72h1.55v5.641h4.08v-5.641h1.571v5.72c0,.407-.148.756-.441,1.046s-.64.435-1.04.435h-4.239Z" fill="#fff" stroke-width="0"/>
          <path d="M339.977,433.813v-7.19h5.711c.406,0,.756.147,1.049.44.295.293.441.64.441,1.04v1.86c0,.399-.146.746-.441,1.04-.293.293-.643.439-1.049.439h-.07l1.561,1.84v.53h-1.6l-1.99-2.37-2.061.01v2.36h-1.551ZM341.858,429.884h3.75v-1.71h-4.08v1.71h.33Z" fill="#fff" stroke-width="0"/>
          <path d="M352.198,433.813v-7.2h1.529v7.2h-1.529Z" fill="#fff" stroke-width="0"/>
          <path d="M361.038,433.813v-5.64h-2.82v-1.561h7.201v1.561h-2.82v5.64h-1.561Z" fill="#fff" stroke-width="0"/>
          <path d="M373.108,433.813v-2.69l-3.33-4.51h1.85l2.26,2.84,2.25-2.84h1.871l-3.342,4.521v2.68h-1.559Z" fill="#fff" stroke-width="0"/>
        </g>
        <path d="M204.687,262.455s-4.793,4.923-11.529,7.773c0,0,5.829-1.295,6.736,4.016l.13-5.441,4.664-6.348Z" fill="#eed2ff" stroke-width="0"/>
        <path d="M460.276,262.455s4.793,4.923,11.529,7.773c0,0-5.829-1.295-6.736,4.016l-.13-5.441-4.664-6.348Z" fill="#eed2ff" stroke-width="0"/>
        <path d="M319.09,264.003c-5.433-4.841-15.228-13.356-22.08-18.133,5.533,6.258,15.117,15.01,20.55,19.85.66.584,1.393,1.232,2.182,1.929.017.005.057.022.174.099.006.015-.007.028-.06.036-.027.004-.063.006-.113.007h-.04l-.327-.062-.681-.129c-1.821-.343-3.674-.678-5.503-.987-3.657-.619-7.213-1.139-10.2-1.424,2.836.982,6.286,1.987,9.87,2.943,1.792.478,3.617.944,5.416,1.389.554.133,1.106.265,1.654.397.858.197,1.71.393,2.555.588,1.747.397,3.462.786,5.131,1.165-3.212-2.889-6.132-5.515-8.527-7.668Z" fill="#891799" stroke-width="0"/>
        <path d="M351.096,265.72c5.433-4.841,15.017-13.592,20.55-19.85-6.852,4.777-16.647,13.292-22.08,18.133-2.394,2.153-5.314,4.779-8.527,7.668,1.67-.379,3.385-.768,5.131-1.165.844-.194,1.697-.39,2.555-.588.548-.131,1.099-.264,1.653-.397,1.799-.445,3.624-.911,5.416-1.389,3.583-.956,7.033-1.962,9.87-2.943-2.988.286-6.544.805-10.2,1.424-1.829.31-3.682.644-5.503.987l-.681.129-.327.062h-.04c-.05,0-.086-.003-.113-.007-.053-.008-.066-.021-.06-.036.117-.077.156-.095.174-.099.789-.698,1.522-1.346,2.182-1.929Z" fill="#891799" stroke-width="0"/>
        <path d="M263.85,417.16c.596,9.964-.329,10.211,10.882,10.882-11.154.668-10.282.868-10.882,10.882-.596-9.964.329-10.211-10.882-10.882,11.154-.667,10.282-.868,10.882-10.882Z" fill="#fff" stroke-width="0"/>
        <path d="M402.668,417.16c.596,9.964-.329,10.211,10.882,10.882-11.154.668-10.282.868-10.882,10.882-.596-9.964.329-10.211-10.882-10.882,11.154-.667,10.282-.868,10.882-10.882Z" fill="#fff" stroke-width="0"/>
        <path d="M332.936,142.797c.406-.137.815-.275,1.274-.43.545.291,1.093.584,1.645.879.715.373,1.435.749,2.158,1.126,1.451.746,2.921,1.493,4.419,2.224,2.992,1.47,6.081,2.908,9.297,4.251,1.589.681,3.292,1.3,4.905,1.914,1.545.562,3.008,1.397,4.431,2.322,2.789,1.953,5.326,4.441,7.502,7.295,2.204,2.834,4.1,5.995,5.688,9.344.786,1.678,1.427,3.404,2.165,5.243.734,1.795,1.493,3.586,2.264,5.383,3.103,7.178,6.409,14.468,9.873,21.869,3.476,7.396,7.08,14.91,11.059,22.418.501.937.995,1.879,1.526,2.81l.784,1.402c.084.125.345.78.806.984l.645.471.722.527c.098.089.216.138.343.172l.296.099.376.126,1.505.503c1.004.336,2.01.672,3.018,1.008,4.003,1.423,7.98,3.024,11.88,4.856,7.812,3.637,15.396,8.017,22.627,13.03,3.598,2.532,7.146,5.169,10.566,7.986,1.703,1.416,3.395,2.851,5.042,4.338.831.736,1.633,1.502,2.446,2.257l1.195,1.155.768.769-.299,1.485c-.128.681-.255,1.363-.363,2.048-.23,1.367-.41,2.745-.565,4.128-.284,2.769-.434,5.574-.183,8.424.108.715.153,1.428.333,2.145l.248,1.074.382,1.068c.561,1.378,1.319,2.646,2.262,3.79.943,1.139,2.071,2.121,3.312,2.912.615.408,1.274.74,1.943,1.049.338.149.681.287,1.031.411l.251.082.111.028c.014,4.079.029,8.158.043,12.234l.113,1.713.215,1.641c.131,1.099.348,2.157.518,3.238.384,2.142.799,4.27,1.238,6.39,1.76,8.478,3.734,16.864,5.745,25.187.51,2.079,1.019,4.154,1.526,6.226l.3,1.197c-.011.098-.102.136-.176.235l-.555.601c-.767.772-1.395,1.684-2.075,2.539-1.253,1.81-2.227,3.81-2.901,5.884-.674,2.079-1.022,4.198-1.36,6.297-.583,4.202-.975,8.362-1.507,12.485-.512,4.124-1.16,8.202-1.858,12.245-.389,2.012-.733,4.035-1.174,6.016-.512,1.96-.915,3.941-1.51,5.866-.635,1.914-1.213,3.839-1.886,5.725-.72,1.87-1.438,3.733-2.152,5.588-3.053,7.349-6.53,14.374-10.13,21.142-3.599,6.771-7.383,13.259-11.194,19.502-3.819,6.239-7.653,12.246-11.547,17.948,3.994-5.633,7.927-11.579,11.843-17.764,3.908-6.19,7.787-12.631,11.481-19.369,3.695-6.736,7.267-13.738,10.421-21.094.74-1.86,1.483-3.728,2.229-5.603.699-1.894,1.305-3.834,1.966-5.762.622-1.941,1.054-3.953,1.593-5.939.466-2,.829-4.018,1.241-6.04.741-4.056,1.431-8.152,1.983-12.29.571-4.133,1.002-8.313,1.612-12.445.348-2.05.706-4.107,1.356-6.052.651-1.943,1.562-3.776,2.741-5.455.65-.798,1.234-1.645,1.977-2.379l.533-.568.437-.468.222-.237.111-.119c.012-.046-.019-.103-.026-.154l-.462-1.907c-.492-2.073-.985-4.149-1.478-6.229-1.948-8.325-3.864-16.718-5.563-25.167-.424-2.112-.823-4.229-1.19-6.346-.159-1.057-.37-2.121-.488-3.173l-.198-1.579-.094-1.527c.01-4.579.02-9.161.029-13.743l-.92-.217c-.29-.068-.651-.196-.739-.226-.297-.107-.591-.228-.883-.357-.576-.271-1.148-.561-1.677-.918-1.072-.691-2.039-1.542-2.844-2.525-.802-.979-1.462-2.102-1.928-3.268l-.31-.873-.208-.935c-.156-.616-.192-1.284-.289-1.924-.219-2.627-.07-5.328.219-8.005.156-1.34.337-2.678.568-4.009.108-.667.234-1.33.362-1.992.148-.743.202-1.041.545-2.531l-.986-1.02-.601-.606-1.216-1.186c-.825-.772-1.638-1.556-2.479-2.306-1.667-1.518-3.377-2.98-5.098-4.422-3.456-2.869-7.041-5.555-10.678-8.135-7.311-5.108-14.99-9.577-22.92-13.298-3.959-1.873-8.001-3.515-12.074-4.975-1.026-.346-2.05-.691-3.072-1.036l-1.532-.516-.383-.129-.096-.032c-.022-.009.013.004.013.004l-.01-.005-.567-.417-.644-.473c-.042-.045.035.078-.15-.251l-.768-1.38c-.519-.914-1.005-1.849-1.499-2.777-3.924-7.444-7.506-14.953-10.957-22.331-3.44-7.386-6.729-14.667-9.807-21.815-.765-1.788-1.516-3.567-2.238-5.338-.694-1.735-1.386-3.598-2.21-5.364-1.663-3.517-3.639-6.821-5.964-9.818-2.296-3.011-4.997-5.687-8.062-7.833-1.568-1.024-3.199-1.956-4.96-2.6-1.667-.635-3.237-1.205-4.819-1.882-3.147-1.316-6.197-2.737-9.156-4.191-1.481-.723-2.937-1.463-4.373-2.202-.716-.374-1.428-.745-2.136-1.115-.864-.465-1.722-.927-2.576-1.387-.844.285-1.594.538-2.341.791-6.152,2.152-12.165,5.404-17.979,9.324-2.91,1.96-5.779,4.087-8.619,6.337-.705.568-1.413,1.139-2.124,1.712-.705.589-1.414,1.127-2.122,1.822l-1.063.995-.957,1.082c-.661.71-1.227,1.484-1.794,2.261-2.256,3.118-4.057,6.539-5.672,10.068-1.61,3.535-3.016,7.197-4.35,10.919-1.348,3.712-2.547,7.538-4.023,11.203-1.511,3.691-3.194,7.414-4.882,11.164-1.716,3.743-3.45,7.524-5.2,11.341-.886,1.904-1.776,3.816-2.67,5.737-.449.959-.899,1.92-1.35,2.884l-.304.646c-.006.012-.008.028-.024.027l-1.274.315c-2.075.525-4.149.998-6.249,1.571-2.096.589-4.218,1.124-6.314,1.766-2.07.726-4.147,1.454-6.231,2.185-2.033.857-4.073,1.718-6.119,2.58-8.085,3.679-15.812,8.329-23.11,13.655l-2.73,2.014-2.666,2.108c-1.795,1.387-3.496,2.896-5.228,4.37l-2.542,2.283-2.488,2.351c-.814.802-1.629,1.604-2.43,2.424l-1.192,1.242-.587.636-.941,1.045.339,1.517.201.99c.127.662.254,1.326.362,1.993.23,1.332.411,2.67.568,4.01.289,2.677.438,5.379.218,8.006-.097.641-.133,1.308-.289,1.924l-.208.935-.31.873c-.466,1.166-1.126,2.288-1.928,3.267-.805.983-1.771,1.833-2.843,2.525-.529.357-1.102.646-1.677.918-.291.13-.585.25-.882.357-.088.03-.449.158-.739.226l-.92.217c.01,4.579.02,9.158.03,13.734l-.094,1.526-.197,1.577c-.117,1.051-.328,2.114-.487,3.171-.366,2.116-.765,4.232-1.188,6.343-1.698,8.445-3.613,16.835-5.56,25.157-.493,2.079-.986,4.155-1.478,6.228l-.458,1.889-.038.157c-.022.055.058.083.081.126l.222.237.449.481.532.568c.743.733,1.328,1.579,1.981,2.375,1.176,1.68,2.094,3.508,2.748,5.45.648,1.946,1.012,3.999,1.36,6.05.611,4.131,1.042,8.311,1.612,12.445.552,4.138,1.24,8.235,1.982,12.292.41,2.022.776,4.04,1.239,6.041.538,1.986.973,3.998,1.592,5.94.66,1.928,1.268,3.868,1.965,5.764.746,1.876,1.49,3.744,2.23,5.605,3.153,7.359,6.726,14.364,10.422,21.102,3.695,6.74,7.576,13.184,11.485,19.377,3.917,6.188,7.852,12.136,11.848,17.771-3.896-5.704-7.731-11.714-11.552-17.955-3.812-6.246-7.598-12.736-11.198-19.51-3.6-6.771-7.078-13.798-10.131-21.15-.714-1.855-1.432-3.719-2.152-5.589-.67-1.887-1.251-3.812-1.885-5.726-.592-1.926-.997-3.907-1.508-5.868-.438-1.983-.785-4.005-1.172-6.018-.699-4.044-1.345-8.122-1.857-12.246-.531-4.123-.922-8.283-1.507-12.485-.337-2.099-.692-4.217-1.365-6.296-.676-2.073-1.657-4.069-2.908-5.88-.682-.853-1.311-1.764-2.078-2.535l-.555-.6c-.043-.071-.168-.128-.154-.224l.304-1.214c.508-2.071,1.016-4.146,1.526-6.225,2.01-8.32,3.984-16.704,5.742-25.177.439-2.119.854-4.246,1.237-6.387.169-1.08.387-2.137.517-3.236l.214-1.64.113-1.712c.014-4.073.028-8.149.042-12.224l.111-.028.25-.082c.35-.124.693-.262,1.031-.411.669-.309,1.328-.641,1.943-1.049,1.242-.791,2.369-1.773,3.312-2.912.944-1.143,1.702-2.411,2.262-3.789l.382-1.068.249-1.074c.18-.717.224-1.43.333-2.145.251-2.85.101-5.654-.183-8.424-.155-1.383-.335-2.761-.566-4.129-.108-.685-.235-1.367-.363-2.048l-.304-1.51.771-.829,1.171-1.209c.788-.8,1.592-1.585,2.395-2.37l2.458-2.304,2.513-2.239c1.713-1.445,3.395-2.927,5.169-4.287l2.634-2.068,2.697-1.974c7.208-5.221,14.822-9.769,22.76-13.352,2.007-.84,4.008-1.677,6.002-2.511,2.041-.709,4.074-1.416,6.101-2.121,2.052-.622,4.13-1.138,6.181-1.711,2.057-.557,4.17-1.035,6.24-1.553l1.836-.449.379-.093c.059-.02.135-.021.181-.057l.083-.176.333-.704.377-.799c.454-.964.907-1.925,1.359-2.884.899-1.921,1.794-3.834,2.685-5.738,1.76-3.82,3.505-7.605,5.231-11.351,1.702-3.764,3.387-7.474,4.938-11.245,1.542-3.816,2.731-7.608,4.076-11.292,1.326-3.685,2.714-7.283,4.284-10.722,1.573-3.432,3.32-6.725,5.43-9.634.53-.725,1.057-1.447,1.658-2.087l.871-.988.947-.882c.595-.594,1.337-1.162,2.026-1.736.702-.565,1.401-1.128,2.097-1.689,2.802-2.217,5.619-4.303,8.466-6.219,5.687-3.831,11.516-6.974,17.415-9.036Z" fill="#eed2ff" stroke-width="0"/>
      </g>
    </g>
  </g>
</svg>