<svg width="489" height="156" viewBox="0 0 489 156" fill="none" xmlns="http://www.w3.org/2000/svg">
<path d="M195 39.4033H210.207L209.864 80.0692L244.427 39.4033H262.172L234.981 71.4352L262.864 120.05H245.24L224.85 83.2986L209.985 100.117L210.214 120.05H195.007V39.4033H195Z" fill="black"/>
<path d="M269.16 57.4951H283.904V120.055H269.16V57.4951Z" fill="black"/>
<path d="M293.553 57.4974H308.297V64.7551C312.674 59.4579 319.126 56.2285 326.961 56.2285C340.328 56.2285 349.083 64.641 349.083 77.4242V120.051H334.454V79.727C334.454 71.5496 329.385 67.1721 321.778 67.1721C316.132 67.1721 311.177 69.8241 308.297 73.8524V120.051H293.553V57.4974Z" fill="black"/>
<path d="M357.234 88.8387C357.234 68.9053 368.178 56.2362 384.311 56.2362C392.838 56.2362 399.867 60.2712 404.359 67.5289V39.418H419.103V120.065H404.359V110.155C399.867 117.413 392.838 121.334 384.311 121.334C368.064 121.334 357.234 109.007 357.234 88.8454V88.8387ZM404.352 88.8387C404.352 74.4375 397.9 66.8307 387.991 66.8307C378.081 66.8307 371.978 74.4375 371.978 88.7179C371.978 102.998 378.202 110.726 387.991 110.726C397.779 110.726 404.352 103.119 404.352 88.832V88.8387Z" fill="black"/>
<path d="M427.359 88.8305C427.359 68.0914 439.8 55.8789 458.122 55.8789C476.444 55.8789 488.999 68.0914 488.999 88.8305C488.999 109.57 476.672 121.547 458.122 121.547C439.572 121.547 427.359 109.335 427.359 88.8305ZM474.249 88.7164C474.249 74.3152 467.911 66.7084 458.122 66.7084C448.333 66.7084 442.109 74.3152 442.109 88.7164C442.109 103.118 448.447 110.724 458.122 110.724C467.797 110.724 474.249 103.238 474.249 88.7164Z" fill="black"/>
<path d="M283.904 44.9343C283.904 40.863 280.604 37.5625 276.532 37.5625C272.461 37.5625 269.16 40.863 269.16 44.9343C269.16 49.0057 272.461 52.3061 276.532 52.3061C280.604 52.3061 283.904 49.0057 283.904 44.9343Z" fill="black"/>
<path d="M80.2018 33.5497C88.0482 33.5497 94.3959 27.158 94.3959 19.2822C94.3959 11.4064 88.0335 5 80.2018 5C72.3702 5 66.0078 11.3917 66.0078 19.2675C66.0078 27.1433 72.3702 33.535 80.2018 33.535V33.5497Z" fill="#242424"/>
<path d="M50.7838 34.6055C42.9521 34.6055 36.5898 40.9972 36.5898 48.873C36.5898 56.7487 42.9521 63.1404 50.7838 63.1404C58.6155 63.1404 64.9778 56.7487 64.9778 48.873C64.9778 40.9972 58.6155 34.6055 50.7838 34.6055Z" fill="#242424"/>
<path d="M21.3366 92.7322C29.183 92.7322 35.5306 86.3405 35.5306 78.4648C35.5306 70.589 29.1683 64.1973 21.3366 64.1973C13.5049 64.1973 7.14258 70.5743 7.14258 78.4501C7.14258 86.3258 13.5049 92.7175 21.3366 92.7175V92.7322Z" fill="#242424"/>
<path d="M50.7838 93.7744C42.9521 93.7744 36.5898 100.166 36.5898 108.042C36.5898 115.918 42.9521 122.309 50.7838 122.309C58.6155 122.309 64.9778 115.918 64.9778 108.042C64.9778 100.166 58.6155 93.7744 50.7838 93.7744Z" fill="#242424"/>
<path d="M80.2018 151.935C88.0482 151.935 94.3959 145.544 94.3959 137.668C94.3959 129.792 88.0335 123.4 80.2018 123.4C72.3702 123.4 66.0078 129.792 66.0078 137.668C66.0078 145.544 72.3702 151.935 80.2018 151.935Z" fill="#242424"/>
<path d="M109.632 6.59961C102.653 6.59961 97.0254 12.286 97.0254 19.2655C97.0254 26.245 102.682 31.9314 109.632 31.9314C116.582 31.9314 122.239 26.245 122.239 19.2655C122.239 12.286 116.582 6.59961 109.632 6.59961Z" fill="#242424"/>
<path d="M80.2009 36.1768C73.2215 36.1768 67.5938 41.8632 67.5938 48.8426C67.5938 55.8221 73.2509 61.5085 80.2009 61.5085C87.151 61.5085 92.8079 55.8221 92.8079 48.8426C92.8079 41.8632 87.151 36.1768 80.2009 36.1768Z" fill="#242424"/>
<path d="M50.783 91.1501C57.7624 91.1501 63.3901 85.4637 63.3901 78.4842C63.3901 71.5048 57.733 65.8184 50.783 65.8184C43.8329 65.8184 38.1758 71.5048 38.1758 78.4842C38.1758 85.4637 43.8329 91.1501 50.783 91.1501Z" fill="#242424"/>
<path d="M80.2009 120.727C87.1804 120.727 92.8079 115.041 92.8079 108.061C92.8079 101.082 87.151 95.3955 80.2009 95.3955C73.2509 95.3955 67.5938 101.082 67.5938 108.061C67.5938 115.041 73.2509 120.727 80.2009 120.727Z" fill="#242424"/>
<path d="M109.632 124.986C102.653 124.986 97.0254 130.673 97.0254 137.652C97.0254 144.632 102.682 150.318 109.632 150.318C116.582 150.318 122.239 144.632 122.239 137.652C122.239 130.673 116.582 124.986 109.632 124.986Z" fill="#242424"/>
<path d="M139.075 28.67C144.233 28.67 148.42 24.4677 148.42 19.2808C148.42 14.094 144.247 9.8916 139.075 9.8916C133.903 9.8916 129.73 14.094 129.73 19.2808C129.73 24.4677 133.903 28.67 139.075 28.67Z" fill="#242424"/>
<path d="M109.513 58.2257C114.671 58.2257 118.858 54.0233 118.858 48.8365C118.858 43.6496 114.685 39.4473 109.513 39.4473C104.341 39.4473 100.168 43.6496 100.168 48.8365C100.168 54.0233 104.341 58.2257 109.513 58.2257Z" fill="#242424"/>
<path d="M79.9642 87.7823C85.1217 87.7823 89.3093 83.58 89.3093 78.3931C89.3093 73.2063 85.1364 69.0039 79.9642 69.0039C74.7921 69.0039 70.6191 73.2063 70.6191 78.3931C70.6191 83.58 74.7921 87.7823 79.9642 87.7823Z" fill="#242424"/>
<path d="M109.644 117.466C114.802 117.466 118.989 113.264 118.989 108.077C118.989 102.89 114.816 98.6875 109.644 98.6875C104.472 98.6875 100.299 102.89 100.299 108.077C100.299 113.264 104.472 117.466 109.644 117.466Z" fill="#242424"/>
<path d="M139.327 147.142C144.484 147.142 148.672 142.939 148.672 137.752C148.672 132.566 144.499 128.363 139.327 128.363C134.155 128.363 129.982 132.566 129.982 137.752C129.982 142.939 134.155 147.142 139.327 147.142Z" fill="#242424"/>
<path d="M50.7836 14.6631C48.2416 14.6631 46.1992 16.7202 46.1992 19.2769C46.1992 21.8336 48.2416 23.8907 50.7836 23.8907C53.3256 23.8907 55.368 21.8336 55.368 19.2769C55.368 16.7202 53.3256 14.6631 50.7836 14.6631Z" fill="#242424"/>
<path d="M21.3383 14.6631C18.7963 14.6631 16.7539 16.7202 16.7539 19.2769C16.7539 21.8336 18.7963 23.8907 21.3383 23.8907C23.8803 23.8907 25.9227 21.8336 25.9227 19.2769C25.9227 16.7202 23.8803 14.6631 21.3383 14.6631Z" fill="#242424"/>
<path d="M21.3383 44.2617C18.7963 44.2617 16.7539 46.3188 16.7539 48.8755C16.7539 51.4322 18.7963 53.4893 21.3383 53.4893C23.8803 53.4893 25.9227 51.4322 25.9227 48.8755C25.9227 46.3188 23.8803 44.2617 21.3383 44.2617Z" fill="#242424"/>
<path d="M21.3383 103.479C18.7963 103.479 16.7539 105.537 16.7539 108.093C16.7539 110.65 18.7963 112.707 21.3383 112.707C23.8803 112.707 25.9227 110.65 25.9227 108.093C25.9227 105.537 23.8803 103.479 21.3383 103.479Z" fill="#242424"/>
<path d="M21.3383 133.071C18.7963 133.071 16.7539 135.128 16.7539 137.685C16.7539 140.242 18.7963 142.299 21.3383 142.299C23.8803 142.299 25.9227 140.242 25.9227 137.685C25.9227 135.128 23.8803 133.071 21.3383 133.071Z" fill="#242424"/>
<path d="M50.7836 133.071C48.2416 133.071 46.1992 135.128 46.1992 137.685C46.1992 140.242 48.2416 142.299 50.7836 142.299C53.3256 142.299 55.368 140.242 55.368 137.685C55.368 135.128 53.3256 133.071 50.7836 133.071Z" fill="#242424"/>
</svg>
