<?xml version="1.0" encoding="utf-8"?>
<!-- Generator: Adobe Illustrator 27.9.4, SVG Export Plug-In . SVG Version: 9.03 Build 54784)  -->
<svg version="1.1" id="Layer_1" xmlns="http://www.w3.org/2000/svg" xmlns:xlink="http://www.w3.org/1999/xlink" x="0px" y="0px"
	 viewBox="0 0 425.2 283.5" style="enable-background:new 0 0 425.2 283.5;" xml:space="preserve">
<style type="text/css">
	.st0{fill:url(#SVGID_1_);}
	.st1{fill:#B1B3B6;}
	.st2{fill:#F37032;}
	.st3{fill:#1E90B3;}
	.st4{fill:#53B7A9;}
</style>
<g>
	<linearGradient id="SVGID_1_" gradientUnits="userSpaceOnUse" x1="206.2099" y1="17.103" x2="204.7293" y2="160.7418">
		<stop  offset="0.4872" style="stop-color:#53B7A9"/>
		<stop  offset="1" style="stop-color:#1E90B3"/>
	</linearGradient>
	<path class="st0" d="M280,34.8l-148.7,0l13.5,13.5h121.7v57.5l-54.1,33.8l-54.1-33.8l0-43.9l-6.8-6.8l-6.7-6.8v64.2l67.6,43.9
		l67.6-43.9V34.8z"/>
	<circle class="st1" cx="224.5" cy="113.3" r="9.3"/>
	<circle class="st1" cx="200.2" cy="113.3" r="9.3"/>
	<circle class="st2" cx="176.6" cy="66.5" r="9.3"/>
	<path class="st3" d="M247.4,81.4c-8.7,0-13.9-5.4-13.9-14.1c0-5.1-4.2-9.3-9.3-9.3c-5.1,0-9.3,4.2-9.3,9.3c0,0,0,0,0,0.1
		c0,0,0,0,0,0.1c0,8.4-5.6,14.1-14.5,14.1c-5.1,0-9.3,4.2-9.3,9.3c0,5.1,4.2,9.3,9.3,9.3c5.1,0,9.3-4.2,9.3-9.3
		c0-9,5.7-14.5,14.6-14.5c0.1,0,0.5,0,0.6,0c0.2,0,0.2,0,0.4,0c8.2,0,12.9,5.9,12.9,14.4c0,5.1,4.2,9.3,9.3,9.3
		c5.1,0,9.3-4.2,9.3-9.3S252.5,81.4,247.4,81.4z"/>
	<circle class="st1" cx="248.5" cy="66.5" r="9.3"/>
	<path class="st4" d="M224.5,81.4c-8.7,0-14.6-5.4-14.6-14.1c0-5.1-4.2-9.3-9.3-9.3c-5.1,0-9.3,4.2-9.3,9.3c0,0,0,0,0,0.1
		c0,0,0,0,0,0.1c0,8.4-5,14.1-13.9,14.1c-5.1,0-9.3,4.2-9.3,9.3c0,5.1,4.2,9.3,9.3,9.3s9.3-4.2,9.3-9.3c0-9,5.1-14.4,13.9-14.4
		c0.1,0,0.5,0,0.6,0c0.2,0,0.2,0,0.4,0c8.2,0,13.6,5.9,13.6,14.3c0,5.1,4.2,9.3,9.3,9.3c5.1,0,9.3-4.2,9.3-9.3
		S229.6,81.4,224.5,81.4z"/>
</g>
<g>
	<path class="st1" d="M178.1,198.5h-10.3v-31.9h10.3V198.5z"/>
	<path class="st1" d="M214.9,198.5h-10.7l-1.3-4.2h-11.7l-1.3,4.2h-10.3l11-31.9h12.6L214.9,198.5z M195.6,179.6l-2.2,7.4h7.2
		l-2.2-7.4c-0.5-1.9-1-3.5-1.4-4.8L195.6,179.6z"/>
	<path class="st1" d="M236.3,178.7l2.5-12.1h15.9v31.9h-10.1v-9.1c0-4.4,0.1-8.5,0.2-12.2c-0.3,1.5-0.6,3-1,4.3l-4.1,16.9h-8.4
		l-4.2-16.9c-0.2-0.6-0.3-1.2-0.4-1.8c-0.1-0.6-0.3-1.1-0.3-1.5c-0.1-0.4-0.2-0.7-0.2-0.8c0.2,3.6,0.2,7.6,0.2,11.9v9.1h-10.1v-31.9
		h15.9l2.6,12.1c0.3,1.3,0.5,2.6,0.8,3.8C235.9,180.6,236.2,179.3,236.3,178.7z"/>
	<path class="st1" d="M122.5,207.4h24.4v7.5h-7.8v20h-8.9v-20h-7.8V207.4z"/>
	<path class="st1" d="M167.8,224.7c0,0.7-0.1,1.5-0.2,2.2h-14.8c0.1,2,1.4,3,3.9,3c1.4,0,2.4-0.4,2.9-1.1h7.6
		c-0.6,2.1-1.9,3.6-3.7,4.8c-1.9,1.1-4.2,1.7-7,1.7c-3.5,0-6.3-0.9-8.4-2.8c-2-1.8-3.1-4.4-3.1-7.6c0-3.2,1-5.7,3.1-7.6
		c2.1-1.9,4.8-2.9,8.3-2.9c3.4,0,6.1,0.9,8.2,2.7C166.8,219,167.8,221.5,167.8,224.7z M156.5,219.8c-2,0-3.2,1-3.5,2.9h7
		C159.8,220.8,158.6,219.8,156.5,219.8z"/>
	<path class="st1" d="M180.6,235.3c-3.5,0-6.2-1-8.2-2.9c-2-1.9-3-4.4-3-7.6c0-3.2,1-5.7,3.1-7.6c2-1.9,4.8-2.8,8.3-2.8
		c3.3,0,5.9,0.8,7.8,2.4c1.9,1.6,2.9,3.6,3.2,6.1h-8.2c-0.3-1.5-1.3-2.3-3-2.3c-1.1,0-1.9,0.3-2.4,1s-0.7,1.7-0.7,3.2
		c0,1.5,0.2,2.6,0.7,3.3c0.5,0.6,1.2,1,2.3,1c1.7,0,2.8-0.9,3.1-2.7h8.1c-0.3,2.7-1.4,4.8-3.4,6.4
		C186.4,234.5,183.8,235.3,180.6,235.3z"/>
	<path class="st1" d="M208.3,214.5c4.6,0,6.9,2.7,6.9,8v12.3h-8.2v-11c0-1.7-0.8-2.6-2.3-2.6c-0.8,0-1.4,0.2-1.9,0.7
		c-0.5,0.5-0.7,1.1-0.7,2v11h-8.2v-27.5h8.2v10.4C203.4,215.6,205.4,214.5,208.3,214.5z"/>
	<path class="st1" d="M227.5,207.4h13.2c9.2,0,13.7,4.6,13.7,13.7s-4.6,13.7-13.9,13.7h-13.1V207.4z M236.4,227.6h3.8
		c1.8,0,3.1-0.5,3.9-1.5c0.8-1,1.2-2.6,1.2-5s-0.4-4-1.2-5c-0.8-1-2.1-1.5-3.9-1.5h-3.8V227.6z"/>
	<path class="st1" d="M278.7,234.9h-8.2c-0.4-0.7-0.6-1.5-0.6-2.3c-1.2,2-3.4,3-6.5,3c-2.3,0-4.1-0.5-5.5-1.6c-1.3-1.1-2-2.6-2-4.6
		c0-1.8,0.6-3.2,1.9-4.3c1.2-1,3.2-1.7,5.9-1.9l3.7-0.3c0.9-0.1,1.5-0.2,1.9-0.5s0.6-0.6,0.6-1c0-1-0.8-1.5-2.3-1.5
		c-0.8,0-1.4,0.1-1.8,0.4c-0.4,0.3-0.6,0.8-0.6,1.5h-8.2c0.1-2.5,1-4.4,2.7-5.6c1.7-1.2,4.4-1.8,8-1.8c6.9,0,10.4,2.1,10.4,6.4v10.8
		C277.9,232.8,278.2,233.9,278.7,234.9z M266.5,230.5c2.1,0,3.2-1.1,3.2-3.2v-1.3c-0.3,0.4-0.9,0.7-1.8,0.8l-1.9,0.2
		c-1.3,0.2-1.9,0.7-1.9,1.7C264.1,229.9,264.9,230.5,266.5,230.5z"/>
	<path class="st1" d="M293.7,218.6l1.1-3.6h8.4l-8,20.2c-1.2,3.1-2.6,5.2-4.2,6.2c-1.6,1-4,1.5-7.3,1.5c-1,0-2.2,0-3.6-0.1v-6.2h3.7
		c1.7,0,2.5-0.6,2.5-1.9c0-0.4-0.1-0.9-0.4-1.5l-7.4-18.2h8.7l1.1,3.6c0.7,2.5,1.6,5.8,2.6,9.7C292,224.5,293,221.3,293.7,218.6z"/>
</g>
</svg>
