<?xml version="1.0" encoding="UTF-8" standalone="no"?>
<!-- Created with Inkscape (http://www.inkscape.org/) -->

<svg
   xmlns:dc="http://purl.org/dc/elements/1.1/"
   xmlns:cc="http://creativecommons.org/ns#"
   xmlns:rdf="http://www.w3.org/1999/02/22-rdf-syntax-ns#"
   xmlns:svg="http://www.w3.org/2000/svg"
   xmlns="http://www.w3.org/2000/svg"
   xmlns:sodipodi="http://sodipodi.sourceforge.net/DTD/sodipodi-0.dtd"
   xmlns:inkscape="http://www.inkscape.org/namespaces/inkscape"
   width="37.247147mm"
   height="12.80144mm"
   viewBox="0 0 37.247147 12.80144"
   version="1.1"
   id="svg32239"
   inkscape:version="0.92.5 (2060ec1f9f, 2020-04-08)"
   sodipodi:docname="logo.svg">
  <defs
     id="defs32233" />
  <sodipodi:namedview
     id="base"
     pagecolor="#ffffff"
     bordercolor="#666666"
     borderopacity="1.0"
     inkscape:pageopacity="0.0"
     inkscape:pageshadow="2"
     inkscape:zoom="4.0237183"
     inkscape:cx="13.348867"
     inkscape:cy="12.442879"
     inkscape:document-units="mm"
     inkscape:current-layer="layer1"
     showgrid="false"
     fit-margin-top="0"
     fit-margin-left="0"
     fit-margin-right="0"
     fit-margin-bottom="0"
     inkscape:window-width="1920"
     inkscape:window-height="1017"
     inkscape:window-x="-8"
     inkscape:window-y="-8"
     inkscape:window-maximized="1" />
  <metadata
     id="metadata32236">
    <rdf:RDF>
      <cc:Work
         rdf:about="">
        <dc:format>image/svg+xml</dc:format>
        <dc:type
           rdf:resource="http://purl.org/dc/dcmitype/StillImage" />
        <dc:title />
      </cc:Work>
    </rdf:RDF>
  </metadata>
  <g
     inkscape:label="Layer 1"
     inkscape:groupmode="layer"
     id="layer1"
     transform="translate(-62.293632,-85.815184)">
    <g
       transform="matrix(0.72007607,0,0,0.72007607,36.98004,-26.388905)"
       id="g15685"
       inkscape:export-xdpi="299.841"
       inkscape:export-ydpi="299.841">
      <path
         style="color:#000000;font-style:normal;font-variant:normal;font-weight:normal;font-stretch:normal;font-size:medium;line-height:normal;font-family:sans-serif;font-variant-ligatures:normal;font-variant-position:normal;font-variant-caps:normal;font-variant-numeric:normal;font-variant-alternates:normal;font-feature-settings:normal;text-indent:0;text-align:start;text-decoration:none;text-decoration-line:none;text-decoration-style:solid;text-decoration-color:#000000;letter-spacing:normal;word-spacing:normal;text-transform:none;writing-mode:lr-tb;direction:ltr;text-orientation:mixed;dominant-baseline:auto;baseline-shift:baseline;text-anchor:start;white-space:normal;shape-padding:0;clip-rule:nonzero;display:inline;overflow:visible;visibility:visible;opacity:1;isolation:auto;mix-blend-mode:normal;color-interpolation:sRGB;color-interpolation-filters:linearRGB;solid-color:#000000;solid-opacity:1;vector-effect:none;fill:#0270a1;fill-opacity:1;fill-rule:nonzero;stroke:none;stroke-width:0.92508054;stroke-linecap:butt;stroke-linejoin:miter;stroke-miterlimit:4;stroke-dasharray:none;stroke-dashoffset:0;stroke-opacity:1;color-rendering:auto;image-rendering:auto;shape-rendering:auto;text-rendering:auto;enable-background:accumulate"
         d="m 43.823885,155.82255 -0.335223,0.35211 c -0.599882,0.63005 -1.727344,1.27062 -3.029232,1.65749 -0.340039,0.10102 -0.693955,0.1779 -1.051648,0.2421 0.169685,0.0875 0.276337,0.26244 0.276444,0.45338 -3e-5,0.28186 -0.228527,0.51036 -0.510401,0.51039 -0.215198,-6e-5 -0.407244,-0.13507 -0.480138,-0.33754 -0.246456,3.13229 0.08584,7.04892 2.619966,9.50513 l 0.575782,-0.7319 c -2.099964,-2.11045 -2.487887,-5.56869 -2.289015,-8.49389 0.382489,-0.068 0.759134,-0.15271 1.12265,-0.26073 1.243601,-0.36955 2.3267,-0.93659 3.100815,-1.61326 0.774107,0.67663 1.856687,1.24372 3.100232,1.61326 1.252115,0.37209 2.644248,0.52335 3.983107,0.35153 0.07836,2.50043 -0.220262,4.96435 -1.232646,7.16714 -1.038196,2.25896 -2.813002,4.25666 -5.713346,5.78958 0.0521,-0.0178 0.106742,-0.027 0.161791,-0.0274 0.281875,3e-5 0.510372,0.22853 0.510402,0.5104 9.2e-5,0.0872 -0.02214,0.17294 -0.0646,0.24909 2.962729,-1.60876 4.847629,-3.7451 5.946137,-6.13529 1.163756,-2.53214 1.454256,-5.33104 1.311215,-8.09948 l -0.02795,-0.5366 -0.526695,0.10654 c -1.307019,0.26615 -2.781898,0.125 -4.083788,-0.26188 -1.301892,-0.38688 -2.429345,-1.02803 -3.029234,-1.65808 z m -0.01803,16.28802 c -0.0018,8.9e-4 -0.0034,0.002 -0.0053,0.003 l -5.95e-4,0.002 c 0.0018,-0.001 0.0038,-0.003 0.0059,-0.004 z m -0.107666,0.68209 -0.04015,0.26713 0.190308,0.0728 0.182162,-0.0913 c 0.01472,-0.008 0.0284,-0.0153 0.04307,-0.0228 -0.152706,-0.015 -0.290553,-0.098 -0.375381,-0.2258 z"
         id="path15655"
         inkscape:connector-curvature="0"
         sodipodi:nodetypes="ccccccccccccccsccccccccccccccccccccc" />
      <path
         style="color:#000000;font-style:normal;font-variant:normal;font-weight:normal;font-stretch:normal;font-size:medium;line-height:normal;font-family:sans-serif;font-variant-ligatures:normal;font-variant-position:normal;font-variant-caps:normal;font-variant-numeric:normal;font-variant-alternates:normal;font-feature-settings:normal;text-indent:0;text-align:start;text-decoration:none;text-decoration-line:none;text-decoration-style:solid;text-decoration-color:#000000;letter-spacing:normal;word-spacing:normal;text-transform:none;writing-mode:lr-tb;direction:ltr;text-orientation:mixed;dominant-baseline:auto;baseline-shift:baseline;text-anchor:start;white-space:normal;shape-padding:0;clip-rule:nonzero;display:inline;overflow:visible;visibility:visible;opacity:1;isolation:auto;mix-blend-mode:normal;color-interpolation:sRGB;color-interpolation-filters:linearRGB;solid-color:#000000;solid-opacity:1;vector-effect:none;fill:#06a4db;fill-opacity:1;fill-rule:nonzero;stroke:none;stroke-width:0.92508054;stroke-linecap:butt;stroke-linejoin:miter;stroke-miterlimit:4;stroke-dasharray:none;stroke-dashoffset:0;stroke-opacity:1;color-rendering:auto;image-rendering:auto;shape-rendering:auto;text-rendering:auto;enable-background:accumulate"
         d="m 35.792491,159.22717 c -0.07703,2.75759 0.263635,5.64463 1.503267,8.16525 0.836026,1.69993 2.170635,3.20199 3.954861,4.37819 5.849757,-2.24595 7.644254,-6.83822 7.785522,-9.76389 l -0.919534,-0.0931 c -0.589586,4.30634 -3.328482,7.3782 -6.783037,8.8712 -1.461038,-1.04309 -2.490433,-2.34269 -3.207319,-3.80036 -1.138901,-2.31578 -1.47849,-5.0408 -1.410149,-7.68862 z"
         id="path15657"
         inkscape:connector-curvature="0"
         sodipodi:nodetypes="csccccscc" />
      <path
         style="color:#000000;font-style:normal;font-variant:normal;font-weight:normal;font-stretch:normal;font-size:medium;line-height:normal;font-family:sans-serif;font-variant-ligatures:normal;font-variant-position:normal;font-variant-caps:normal;font-variant-numeric:normal;font-variant-alternates:normal;font-feature-settings:normal;text-indent:0;text-align:start;text-decoration:none;text-decoration-line:none;text-decoration-style:solid;text-decoration-color:#000000;letter-spacing:normal;word-spacing:normal;text-transform:none;writing-mode:lr-tb;direction:ltr;text-orientation:mixed;dominant-baseline:auto;baseline-shift:baseline;text-anchor:start;white-space:normal;shape-padding:0;clip-rule:nonzero;display:inline;overflow:visible;visibility:visible;opacity:1;isolation:auto;mix-blend-mode:normal;color-interpolation:sRGB;color-interpolation-filters:linearRGB;solid-color:#000000;solid-opacity:1;vector-effect:none;fill:#0270a1;fill-opacity:1;fill-rule:nonzero;stroke:none;stroke-width:0.92508054;stroke-linecap:butt;stroke-linejoin:miter;stroke-miterlimit:4;stroke-dasharray:none;stroke-dashoffset:0;stroke-opacity:1;color-rendering:auto;image-rendering:auto;shape-rendering:auto;text-rendering:auto;enable-background:accumulate"
         d="m 43.88441,159.39245 -0.221155,0.11873 c -0.717312,0.38492 -1.117577,0.60163 -1.979328,0.76997 l -0.353847,0.0693 -0.01923,0.36025 c -0.139736,2.6092 0.472609,4.84436 2.184191,5.95836 l 0.27004,0.17634 0.258402,-0.19322 c 1.722229,-1.28358 2.247016,-3.06832 2.493653,-4.88514 l -0.923091,-0.0713 c -0.215315,1.5691 -0.626418,2.93121 -1.859227,3.9869 -1.066566,-0.87818 -1.550921,-2.50601 -1.493954,-4.60526 0.627603,-0.1622 1.132986,-0.3749 1.643524,-0.64483 z"
         id="path15659"
         inkscape:connector-curvature="0"
         sodipodi:nodetypes="cccccccccccccc" />
      <path
         style="color:#000000;font-style:normal;font-variant:normal;font-weight:normal;font-stretch:normal;font-size:medium;line-height:normal;font-family:sans-serif;font-variant-ligatures:normal;font-variant-position:normal;font-variant-caps:normal;font-variant-numeric:normal;font-variant-alternates:normal;font-feature-settings:normal;text-indent:0;text-align:start;text-decoration:none;text-decoration-line:none;text-decoration-style:solid;text-decoration-color:#000000;letter-spacing:normal;word-spacing:normal;text-transform:none;writing-mode:lr-tb;direction:ltr;text-orientation:mixed;dominant-baseline:auto;baseline-shift:baseline;text-anchor:start;white-space:normal;shape-padding:0;clip-rule:nonzero;display:inline;overflow:visible;visibility:visible;opacity:1;isolation:auto;mix-blend-mode:normal;color-interpolation:sRGB;color-interpolation-filters:linearRGB;solid-color:#000000;solid-opacity:1;vector-effect:none;fill:#06a4db;fill-opacity:1;fill-rule:nonzero;stroke:none;stroke-width:1.11009669;stroke-linecap:round;stroke-linejoin:round;stroke-miterlimit:4;stroke-dasharray:none;stroke-dashoffset:0;stroke-opacity:1;paint-order:stroke fill markers;color-rendering:auto;image-rendering:auto;shape-rendering:auto;text-rendering:auto;enable-background:accumulate"
         d="m 36.245276,157.52137 c -0.595193,0 -1.091223,0.49371 -1.091223,1.0889 0,0.59519 0.49603,1.08831 1.091223,1.08831 0.595195,0 1.088314,-0.49312 1.088314,-1.08831 0,-0.59519 -0.493119,-1.0889 -1.088314,-1.0889 z m -0.0011,0.57791 a 0.5104542,0.5104542 0 0 1 0.5104,0.51099 0.5104542,0.5104542 0 0 1 -0.5104,0.5104 0.5104542,0.5104542 0 0 1 -0.510401,-0.5104 0.5104542,0.5104542 0 0 1 0.510401,-0.51099 z"
         id="path15661"
         inkscape:connector-curvature="0" />
      <path
         style="color:#000000;font-style:normal;font-variant:normal;font-weight:normal;font-stretch:normal;font-size:medium;line-height:normal;font-family:sans-serif;font-variant-ligatures:normal;font-variant-position:normal;font-variant-caps:normal;font-variant-numeric:normal;font-variant-alternates:normal;font-feature-settings:normal;text-indent:0;text-align:start;text-decoration:none;text-decoration-line:none;text-decoration-style:solid;text-decoration-color:#000000;letter-spacing:normal;word-spacing:normal;text-transform:none;writing-mode:lr-tb;direction:ltr;text-orientation:mixed;dominant-baseline:auto;baseline-shift:baseline;text-anchor:start;white-space:normal;shape-padding:0;clip-rule:nonzero;display:inline;overflow:visible;visibility:visible;opacity:1;isolation:auto;mix-blend-mode:normal;color-interpolation:sRGB;color-interpolation-filters:linearRGB;solid-color:#000000;solid-opacity:1;vector-effect:none;fill:#0270a1;fill-opacity:1;fill-rule:nonzero;stroke:none;stroke-width:1.11009669;stroke-linecap:round;stroke-linejoin:round;stroke-miterlimit:4;stroke-dasharray:none;stroke-dashoffset:0;stroke-opacity:1;paint-order:stroke fill markers;color-rendering:auto;image-rendering:auto;shape-rendering:auto;text-rendering:auto;enable-background:accumulate"
         d="m 39.172661,157.43757 c -0.595193,0 -1.088895,0.49603 -1.088895,1.09122 0,0.5952 0.493702,1.08888 1.088895,1.08888 0.595193,0 1.091221,-0.49368 1.091221,-1.08888 0,-0.59519 -0.496028,-1.09122 -1.091221,-1.09122 z m 0.0011,0.57965 a 0.5104542,0.5104542 0 0 1 0.5104,0.51041 0.5104542,0.5104542 0 0 1 -0.5104,0.51039 0.5104542,0.5104542 0 0 1 -0.510401,-0.51039 0.5104542,0.5104542 0 0 1 0.510401,-0.51041 z"
         id="path15663"
         inkscape:connector-curvature="0" />
      <path
         style="color:#000000;font-style:normal;font-variant:normal;font-weight:normal;font-stretch:normal;font-size:medium;line-height:normal;font-family:sans-serif;font-variant-ligatures:normal;font-variant-position:normal;font-variant-caps:normal;font-variant-numeric:normal;font-variant-alternates:normal;font-feature-settings:normal;text-indent:0;text-align:start;text-decoration:none;text-decoration-line:none;text-decoration-style:solid;text-decoration-color:#000000;letter-spacing:normal;word-spacing:normal;text-transform:none;writing-mode:lr-tb;direction:ltr;text-orientation:mixed;dominant-baseline:auto;baseline-shift:baseline;text-anchor:start;white-space:normal;shape-padding:0;clip-rule:nonzero;display:inline;overflow:visible;visibility:visible;opacity:1;isolation:auto;mix-blend-mode:normal;color-interpolation:sRGB;color-interpolation-filters:linearRGB;solid-color:#000000;solid-opacity:1;vector-effect:none;fill:#0270a1;fill-opacity:1;fill-rule:nonzero;stroke:none;stroke-width:1.11009669;stroke-linecap:round;stroke-linejoin:round;stroke-miterlimit:4;stroke-dasharray:none;stroke-dashoffset:0;stroke-opacity:1;paint-order:stroke fill markers;color-rendering:auto;image-rendering:auto;shape-rendering:auto;text-rendering:auto;enable-background:accumulate"
         d="m 42.225752,167.08978 c -0.595193,0 -1.088892,0.49544 -1.088892,1.09065 0,0.59519 0.493699,1.08889 1.088892,1.08889 0.595196,0 1.088895,-0.4937 1.088895,-1.08889 0,-0.59521 -0.493699,-1.09065 -1.088895,-1.09065 z m 0,0.57908 a 0.5104542,0.5104542 0 0 1 0.510404,0.51039 0.5104542,0.5104542 0 0 1 -0.510404,0.51041 0.5104542,0.5104542 0 0 1 -0.5104,-0.51041 0.5104542,0.5104542 0 0 1 0.5104,-0.51039 z"
         id="path15665"
         inkscape:connector-curvature="0" />
      <path
         style="color:#000000;font-style:normal;font-variant:normal;font-weight:normal;font-stretch:normal;font-size:medium;line-height:normal;font-family:sans-serif;font-variant-ligatures:normal;font-variant-position:normal;font-variant-caps:normal;font-variant-numeric:normal;font-variant-alternates:normal;font-feature-settings:normal;text-indent:0;text-align:start;text-decoration:none;text-decoration-line:none;text-decoration-style:solid;text-decoration-color:#000000;letter-spacing:normal;word-spacing:normal;text-transform:none;writing-mode:lr-tb;direction:ltr;text-orientation:mixed;dominant-baseline:auto;baseline-shift:baseline;text-anchor:start;white-space:normal;shape-padding:0;clip-rule:nonzero;display:inline;overflow:visible;visibility:visible;opacity:1;isolation:auto;mix-blend-mode:normal;color-interpolation:sRGB;color-interpolation-filters:linearRGB;solid-color:#000000;solid-opacity:1;vector-effect:none;fill:#0270a1;fill-opacity:1;fill-rule:nonzero;stroke:none;stroke-width:1.11009669;stroke-linecap:round;stroke-linejoin:round;stroke-miterlimit:4;stroke-dasharray:none;stroke-dashoffset:0;stroke-opacity:1;paint-order:stroke fill markers;color-rendering:auto;image-rendering:auto;shape-rendering:auto;text-rendering:auto;enable-background:accumulate"
         d="m 44.124189,171.42034 c -0.595196,0 -1.091222,0.49603 -1.091222,1.09122 0,0.59519 0.496026,1.08889 1.091222,1.08889 0.595193,0 1.088895,-0.4937 1.088895,-1.08889 0,-0.59519 -0.493702,-1.09122 -1.088895,-1.09122 z m -0.0011,0.57965 a 0.5104542,0.5104542 0 0 1 0.510401,0.5104 0.5104542,0.5104542 0 0 1 -0.510401,0.51041 0.5104542,0.5104542 0 0 1 -0.510401,-0.51041 0.5104542,0.5104542 0 0 1 0.510401,-0.5104 z"
         id="path15667"
         inkscape:connector-curvature="0" />
      <path
         style="color:#000000;font-style:normal;font-variant:normal;font-weight:normal;font-stretch:normal;font-size:medium;line-height:normal;font-family:sans-serif;font-variant-ligatures:normal;font-variant-position:normal;font-variant-caps:normal;font-variant-numeric:normal;font-variant-alternates:normal;font-feature-settings:normal;text-indent:0;text-align:start;text-decoration:none;text-decoration-line:none;text-decoration-style:solid;text-decoration-color:#000000;letter-spacing:normal;word-spacing:normal;text-transform:none;writing-mode:lr-tb;direction:ltr;text-orientation:mixed;dominant-baseline:auto;baseline-shift:baseline;text-anchor:start;white-space:normal;shape-padding:0;clip-rule:nonzero;display:inline;overflow:visible;visibility:visible;opacity:1;isolation:auto;mix-blend-mode:normal;color-interpolation:sRGB;color-interpolation-filters:linearRGB;solid-color:#000000;solid-opacity:1;vector-effect:none;fill:#06a4db;fill-opacity:1;fill-rule:nonzero;stroke:none;stroke-width:1.11009669;stroke-linecap:round;stroke-linejoin:round;stroke-miterlimit:4;stroke-dasharray:none;stroke-dashoffset:0;stroke-opacity:1;paint-order:stroke fill markers;color-rendering:auto;image-rendering:auto;shape-rendering:auto;text-rendering:auto;enable-background:accumulate"
         d="m 48.626423,160.20665 c -0.595193,0 -1.090637,0.49369 -1.090637,1.0889 0,0.59519 0.495444,1.09121 1.090637,1.09121 0.595196,2e-5 1.088895,-0.49602 1.088895,-1.09121 0,-0.59521 -0.493699,-1.0889 -1.088895,-1.0889 z m -5.81e-4,0.57966 a 0.5104542,0.5104542 0 0 1 0.510401,0.5104 0.5104542,0.5104542 0 0 1 -0.510401,0.51039 0.5104542,0.5104542 0 0 1 -0.510401,-0.51039 0.5104542,0.5104542 0 0 1 0.510401,-0.5104 z"
         id="path15669"
         inkscape:connector-curvature="0" />
      <path
         style="color:#000000;font-style:normal;font-variant:normal;font-weight:normal;font-stretch:normal;font-size:medium;line-height:normal;font-family:sans-serif;font-variant-ligatures:normal;font-variant-position:normal;font-variant-caps:normal;font-variant-numeric:normal;font-variant-alternates:normal;font-feature-settings:normal;text-indent:0;text-align:start;text-decoration:none;text-decoration-line:none;text-decoration-style:solid;text-decoration-color:#000000;letter-spacing:normal;word-spacing:normal;text-transform:none;writing-mode:lr-tb;direction:ltr;text-orientation:mixed;dominant-baseline:auto;baseline-shift:baseline;text-anchor:start;white-space:normal;shape-padding:0;clip-rule:nonzero;display:inline;overflow:visible;visibility:visible;opacity:1;isolation:auto;mix-blend-mode:normal;color-interpolation:sRGB;color-interpolation-filters:linearRGB;solid-color:#000000;solid-opacity:1;vector-effect:none;fill:#0270a1;fill-opacity:1;fill-rule:nonzero;stroke:none;stroke-width:1.11009669;stroke-linecap:round;stroke-linejoin:round;stroke-miterlimit:4;stroke-dasharray:none;stroke-dashoffset:0;stroke-opacity:1;paint-order:stroke fill markers;color-rendering:auto;image-rendering:auto;shape-rendering:auto;text-rendering:auto;enable-background:accumulate"
         d="m 46.130291,160.00004 c -0.595193,0 -1.091222,0.49603 -1.091222,1.09122 0,0.5952 0.496029,1.0889 1.091222,1.0889 0.595192,0 1.088894,-0.4937 1.088894,-1.0889 0,-0.59519 -0.493702,-1.09122 -1.088894,-1.09122 z m -0.0011,0.57966 a 0.5104542,0.5104542 0 0 1 0.510401,0.5104 0.5104542,0.5104542 0 0 1 -0.510401,0.5104 0.5104542,0.5104542 0 0 1 -0.510401,-0.5104 0.5104542,0.5104542 0 0 1 0.510401,-0.5104 z"
         id="path15671"
         inkscape:connector-curvature="0" />
      <g
         id="g15683"
         transform="matrix(1.0706525,0,0,1.0706525,-26.524522,2.1333063)">
        <g
           aria-label="MALTEK"
           style="font-style:normal;font-variant:normal;font-weight:bold;font-stretch:normal;font-size:7.70775747px;line-height:1.5;font-family:Metropolis;-inkscape-font-specification:'Metropolis Bold';letter-spacing:0px;word-spacing:0px;fill:#333333;fill-opacity:1;stroke:none;stroke-width:0.19269393"
           id="text15677">
          <path
             d="m 75.29963,152.77264 h 1.13304 v -3.29892 l 1.641752,2.99061 1.634045,-2.99061 v 3.29892 h 1.140748 v -5.29523 h -1.140748 l -1.634045,2.99061 -1.641752,-2.99061 h -1.13304 z"
             style="font-style:normal;font-variant:normal;font-weight:bold;font-stretch:normal;font-family:Metropolis;-inkscape-font-specification:'Metropolis Bold';fill:#333333;fill-opacity:1;stroke-width:0.19269393"
             id="path9725" />
          <path
             d="m 85.822164,152.77264 h 1.279488 L 84.94348,147.47741 H 83.6717 l -2.158172,5.29523 h 1.27178 l 0.339141,-0.83243 h 2.358574 z m -2.304619,-1.7959 0.786191,-1.93465 0.786191,1.93465 z"
             style="font-style:normal;font-variant:normal;font-weight:bold;font-stretch:normal;font-family:Metropolis;-inkscape-font-specification:'Metropolis Bold';fill:#333333;fill-opacity:1;stroke-width:0.19269393"
             id="path9727" />
          <path
             d="m 88.835536,151.74751 v -4.2701 h -1.140748 v 5.29523 h 3.776801 v -1.02513 z"
             style="font-style:normal;font-variant:normal;font-weight:bold;font-stretch:normal;font-family:Metropolis;-inkscape-font-specification:'Metropolis Bold';fill:#333333;fill-opacity:1;stroke-width:0.19269393"
             id="path9729" />
          <path
             d="m 92.480722,152.77264 h 1.140748 v -4.27009 h 1.64946 v -1.02514 h -4.439668 v 1.02514 h 1.64946 z"
             style="font-style:normal;font-variant:normal;font-weight:bold;font-stretch:normal;font-family:Metropolis;-inkscape-font-specification:'Metropolis Bold';fill:#333333;fill-opacity:1;stroke-width:0.19269393"
             id="path9731" />
          <path
             d="m 100.10887,148.50255 v -1.02514 h -4.077399 v 5.29523 h 4.077399 v -1.02513 h -2.936651 v -1.16387 h 2.659176 v -1.02513 h -2.659176 v -1.05596 z"
             style="font-style:normal;font-variant:normal;font-weight:bold;font-stretch:normal;font-family:Metropolis;-inkscape-font-specification:'Metropolis Bold';fill:#333333;fill-opacity:1;stroke-width:0.19269393"
             id="path9733" />
          <path
             d="m 101.11927,152.77264 h 1.13304 v -1.47989 l 0.66286,-0.70911 1.62634,2.189 h 1.37969 l -2.21213,-2.99831 2.06568,-2.29692 h -1.37969 l -2.14275,2.42795 v -2.42795 h -1.13304 z"
             style="font-style:normal;font-variant:normal;font-weight:bold;font-stretch:normal;font-family:Metropolis;-inkscape-font-specification:'Metropolis Bold';fill:#333333;fill-opacity:1;stroke-width:0.19269393"
             id="path9735" />
        </g>
        <g
           aria-label="SOLUTIONS"
           style="font-style:normal;font-variant:normal;font-weight:500;font-stretch:normal;font-size:3.774014px;line-height:1.5;font-family:Metropolis;-inkscape-font-specification:'Metropolis Medium';letter-spacing:1.19163477px;word-spacing:0px;fill:#333333;fill-opacity:1;stroke:none;stroke-width:0.09435035"
           id="text15681">
          <path
             d="m 76.367678,156.51272 c 0.61139,0 0.943503,-0.33211 0.943503,-0.7699 0,-0.4642 -0.358531,-0.63781 -0.875571,-0.75857 -0.426463,-0.1019 -0.64913,-0.18493 -0.64913,-0.42647 0,-0.20757 0.203797,-0.3925 0.494396,-0.3925 0.264181,0 0.524588,0.117 0.74348,0.31702 l 0.218893,-0.28682 c -0.249085,-0.2189 -0.547232,-0.36608 -0.947277,-0.36608 -0.520814,0 -0.898216,0.32834 -0.898216,0.76235 0,0.46798 0.350984,0.62648 0.879346,0.75103 0.434011,0.0981 0.64913,0.19247 0.64913,0.43778 0,0.20757 -0.184927,0.39627 -0.543458,0.39627 -0.350983,0 -0.622712,-0.14341 -0.852927,-0.3623 l -0.230215,0.28305 c 0.275503,0.26418 0.634034,0.41514 1.068046,0.41514 z"
             style="font-style:normal;font-variant:normal;font-weight:500;font-stretch:normal;font-family:Metropolis;-inkscape-font-specification:'Metropolis Medium';letter-spacing:1.19163477px;fill:#333333;fill-opacity:1;stroke-width:0.09435035"
             id="path9738" />
          <path
             d="m 80.212975,156.51649 c 0.728385,0 1.339775,-0.61516 1.339775,-1.34354 0,-0.72839 -0.61139,-1.33978 -1.339775,-1.33978 -0.728384,0 -1.347323,0.61139 -1.347323,1.33978 0,0.72838 0.618939,1.34354 1.347323,1.34354 z m 0,-0.35098 c -0.51704,0 -0.954825,-0.45288 -0.954825,-0.99256 0,-0.53591 0.437785,-0.9888 0.954825,-0.9888 0.51704,0 0.951052,0.45289 0.951052,0.9888 0,0.53968 -0.434012,0.99256 -0.951052,0.99256 z"
             style="font-style:normal;font-variant:normal;font-weight:500;font-stretch:normal;font-family:Metropolis;-inkscape-font-specification:'Metropolis Medium';letter-spacing:1.19163477px;fill:#333333;fill-opacity:1;stroke-width:0.09435035"
             id="path9740" />
          <path
             d="m 83.561813,156.11645 v -2.23799 h -0.38495 v 2.59275 h 1.758691 v -0.35476 z"
             style="font-style:normal;font-variant:normal;font-weight:500;font-stretch:normal;font-family:Metropolis;-inkscape-font-specification:'Metropolis Medium';letter-spacing:1.19163477px;fill:#333333;fill-opacity:1;stroke-width:0.09435035"
             id="path9742" />
          <path
             d="m 87.430886,156.51649 c 0.64913,0 1.113334,-0.47175 1.113334,-1.13597 v -1.50206 h -0.384949 v 1.49451 c 0,0.4642 -0.301921,0.79632 -0.728385,0.79632 -0.430238,0 -0.732159,-0.33212 -0.732159,-0.79632 v -1.49451 h -0.381175 v 1.50206 c 0,0.66422 0.46043,1.13597 1.113334,1.13597 z"
             style="font-style:normal;font-variant:normal;font-weight:500;font-stretch:normal;font-family:Metropolis;-inkscape-font-specification:'Metropolis Medium';letter-spacing:1.19163477px;fill:#333333;fill-opacity:1;stroke-width:0.09435035"
             id="path9744" />
          <path
             d="m 90.807626,156.47121 h 0.381176 v -2.23799 h 0.852927 v -0.35476 h -2.083256 v 0.35476 h 0.849153 z"
             style="font-style:normal;font-variant:normal;font-weight:500;font-stretch:normal;font-family:Metropolis;-inkscape-font-specification:'Metropolis Medium';letter-spacing:1.19163477px;fill:#333333;fill-opacity:1;stroke-width:0.09435035"
             id="path9746" />
          <path
             d="m 93.670442,156.47121 h 0.381176 v -2.59275 h -0.381176 z"
             style="font-style:normal;font-variant:normal;font-weight:500;font-stretch:normal;font-family:Metropolis;-inkscape-font-specification:'Metropolis Medium';letter-spacing:1.19163477px;fill:#333333;fill-opacity:1;stroke-width:0.09435035"
             id="path9748" />
          <path
             d="m 97.061973,156.51649 c 0.728384,0 1.339774,-0.61516 1.339774,-1.34354 0,-0.72839 -0.61139,-1.33978 -1.339774,-1.33978 -0.728385,0 -1.347323,0.61139 -1.347323,1.33978 0,0.72838 0.618938,1.34354 1.347323,1.34354 z m 0,-0.35098 c -0.51704,0 -0.954826,-0.45288 -0.954826,-0.99256 0,-0.53591 0.437786,-0.9888 0.954826,-0.9888 0.517039,0 0.951051,0.45289 0.951051,0.9888 0,0.53968 -0.434012,0.99256 -0.951051,0.99256 z"
             style="font-style:normal;font-variant:normal;font-weight:500;font-stretch:normal;font-family:Metropolis;-inkscape-font-specification:'Metropolis Medium';letter-spacing:1.19163477px;fill:#333333;fill-opacity:1;stroke-width:0.09435035"
             id="path9750" />
          <path
             d="m 100.10511,156.47121 h 0.38118 v -1.96626 l 1.49074,1.96626 h 0.38117 v -2.59275 h -0.38117 v 1.96626 l -1.49074,-1.96626 h -0.38118 z"
             style="font-style:normal;font-variant:normal;font-weight:500;font-stretch:normal;font-family:Metropolis;-inkscape-font-specification:'Metropolis Medium';letter-spacing:1.19163477px;fill:#333333;fill-opacity:1;stroke-width:0.09435035"
             id="path9752" />
          <path
             d="m 104.97813,156.51272 c 0.61139,0 0.9435,-0.33211 0.9435,-0.7699 0,-0.4642 -0.35853,-0.63781 -0.87557,-0.75857 -0.42646,-0.1019 -0.64913,-0.18493 -0.64913,-0.42647 0,-0.20757 0.2038,-0.3925 0.4944,-0.3925 0.26418,0 0.52458,0.117 0.74348,0.31702 l 0.21889,-0.28682 c -0.24908,-0.2189 -0.54723,-0.36608 -0.94728,-0.36608 -0.52081,0 -0.89821,0.32834 -0.89821,0.76235 0,0.46798 0.35098,0.62648 0.87934,0.75103 0.43401,0.0981 0.64913,0.19247 0.64913,0.43778 0,0.20757 -0.18492,0.39627 -0.54346,0.39627 -0.35098,0 -0.62271,-0.14341 -0.85292,-0.3623 l -0.23022,0.28305 c 0.27551,0.26418 0.63404,0.41514 1.06805,0.41514 z"
             style="font-style:normal;font-variant:normal;font-weight:500;font-stretch:normal;font-family:Metropolis;-inkscape-font-specification:'Metropolis Medium';letter-spacing:1.19163477px;fill:#333333;fill-opacity:1;stroke-width:0.09435035"
             id="path9754" />
        </g>
      </g>
    </g>
  </g>
</svg>
