<?xml version="1.0" encoding="UTF-8" standalone="no"?>
<svg
   id="Layer_1"
   viewBox="0 0 789.7 186.1"
   version="1.1"
   sodipodi:docname="specterops-logo-black-with-text.svg"
   inkscape:version="1.3.2 (091e20e, 2023-11-25, custom)"
   xmlns:inkscape="http://www.inkscape.org/namespaces/inkscape"
   xmlns:sodipodi="http://sodipodi.sourceforge.net/DTD/sodipodi-0.dtd"
   xmlns="http://www.w3.org/2000/svg"
   xmlns:svg="http://www.w3.org/2000/svg">
  <sodipodi:namedview
     id="namedview17"
     pagecolor="#ffffff"
     bordercolor="#000000"
     borderopacity="0.25"
     inkscape:showpageshadow="2"
     inkscape:pageopacity="0.0"
     inkscape:pagecheckerboard="0"
     inkscape:deskcolor="#d1d1d1"
     inkscape:zoom="1.4442994"
     inkscape:cx="711.07141"
     inkscape:cy="271.75806"
     inkscape:window-width="3840"
     inkscape:window-height="2126"
     inkscape:window-x="3829"
     inkscape:window-y="-11"
     inkscape:window-maximized="1"
     inkscape:current-layer="Layer_1" />
  <defs
     id="defs1">
    <style
       id="style1">.cls-1{fill:#fdfeff;}</style>
  </defs>
  <path
     class="cls-1"
     d="m246.6,96.6c-2.7-6.4-10.1-8.3-17.9-9.2-2.5-.3-4.9-.7-6.8-1.4h.6c-2.6-.9-4.3-2.2-4.3-4.6.1-3.4,3.2-6.1,9.8-6.1,5.1,0,9.6,2.6,11.2,5.3l7.1-3.6c0-.1-.1-.1-.1-.2h.1c-3.6-7.3-11.2-9.4-18.5-9.4-8.7.1-18.3,4-18.3,13.8v1.5c.7,9.5,9.2,11.9,18.5,13,6.2.7,10.9,2.5,10.9,6.9-.1,5-5.3,7-10.9,7s-11.2-2.3-13.3-7.5l-7.4,3.8c0,.1.1.1.1.2h-.1c3.5,8.6,10.9,11.6,20.6,11.6,10.5,0,19.8-4.5,19.8-15v-.5c0-2.2-.3-4-1-5.6h-.1Z"
     id="path1"
     style="fill:#000000;fill-opacity:1;opacity:1" />
  <path
     class="cls-1"
     d="m333.5,107.2v8.8h35.3v-8.8h-35.3Z"
     id="path2"
     style="fill:#000000;fill-opacity:1;opacity:1" />
  <path
     class="cls-1"
     d="m367.9,96.6v-8.3h-25.6v-.1h-8.8v8.4h34.4Z"
     id="path3"
     style="fill:#000000;fill-opacity:1;opacity:1" />
  <path
     class="cls-1"
     d="m333.5,77.4h35.3v-8.6h-35.3v8.6Z"
     id="path4"
     style="fill:#000000;fill-opacity:1;opacity:1" />
  <path
     class="cls-1"
     d="m287.3,68.7h-13.3v8.5h13.3c11.3,0,11.4,16.7,0,16.7h-13.3v22.1h9.5v-13.9h3.9c23.1,0,23-33.4-.1-33.4Z"
     id="path5"
     style="fill:#000000;fill-opacity:1;opacity:1" />
  <path
     class="cls-1"
     d="m416.5,108.7c-11.7,0-16.2-8.2-16.3-16-.1-7.9,4.9-16.4,16.3-16.4,4.1,0,8.3,1.4,11.4,4.5l5.9-5.7c-4.9-4.8-10.9-7.2-17.3-7.2-17.1,0-25.1,12.5-25,24.9.1,12.3,7.5,24.3,25,24.3,6.8,0,13.1-2.2,17.9-7l-6.1-6.1c-3,3-7.7,4.7-11.8,4.7Z"
     id="path6"
     style="fill:#000000;fill-opacity:1;opacity:1" />
  <path
     class="cls-1"
     d="m455.5,76.9h14.9v39.1h8.9v-39.1h15v-8.1h-38.8v8.1Z"
     id="path7"
     style="fill:#000000;fill-opacity:1;opacity:1" />
  <path
     class="cls-1"
     d="m519,107.2v8.8h35.3v-8.8h-35.3Z"
     id="path8"
     style="fill:#000000;fill-opacity:1;opacity:1" />
  <path
     class="cls-1"
     d="m553.3,96.6v-8.3h-25.6v-.1h-8.7v8.4h34.3Z"
     id="path9"
     style="fill:#000000;fill-opacity:1;opacity:1" />
  <path
     class="cls-1"
     d="m519,77.4h35.3v-8.6h-35.3v8.6Z"
     id="path10"
     style="fill:#000000;fill-opacity:1;opacity:1" />
  <path
     class="cls-1"
     d="m663.2,67.8c-16.3,0-24.3,12.5-24.3,24.9s7.7,24.3,24.3,24.3,24.1-12.2,24.2-24.4c.2-12.3-7.9-24.8-24.2-24.8Zm0,41.1c-11.1,0-15.3-8.3-15.5-16.1-.2-8,4.4-16.9,15.5-16.9s15.6,8.9,15.4,16.9c-.1,7.8-4.3,16.1-15.4,16.1Z"
     id="path11"
     style="fill:#000000;fill-opacity:1;opacity:1" />
  <path
     class="cls-1"
     d="m720.2,68.7h-13.3v8.5h13.3c11.3,0,11.4,16.7,0,16.7h-13.4v22.1h8.6v-13.9h4.7c23.2,0,23.1-33.4.1-33.4Z"
     id="path12"
     style="fill:#000000;fill-opacity:1;opacity:1" />
  <path
     class="cls-1"
     d="m788.7,96.6h-.1c-2.7-6.4-10.1-8.3-17.9-9.2-2.5-.3-4.9-.7-6.8-1.4h.6c-.6-.2-1.1-.4-1.6-.7-1.7-.9-2.7-2.1-2.7-4,.1-3.4,3.2-6.1,9.8-6.1,5.1,0,9.6,2.6,11.2,5.3l7.1-3.6c0-.1-.1-.1-.1-.2h.1c-3.6-7.3-11.2-9.4-18.5-9.4-8.7.1-18.3,4-18.3,13.8v1.5c.7,9.5,9.2,11.9,18.5,13,6.2.7,10.8,2.5,10.9,6.8-.1,5-5.3,7-10.9,7s-11.2-2.3-13.3-7.5l-7.4,3.8c0,.1.1.1.1.2h-.1c3.5,8.6,10.9,11.6,20.6,11.6,10.5,0,19.8-4.5,19.8-15q0-.2,0-.3c0-2.2-.3-4-1-5.6Z"
     id="path13"
     style="fill:#000000;fill-opacity:1;opacity:1" />
  <path
     class="cls-1"
     d="m612.5,84.4c0-8.2-5.9-15.6-17-15.6h-13.6v8.3h13.6c5.6,0,8.1,3.8,8.1,7.6s-2.4,7.6-8.1,7.6h-13.5v23.7h8.6v-15.8l5.2-.5,14.3,16.3h10.6v-.6l-15.7-17.6c5.6-2.8,7.5-8.1,7.5-13.4Z"
     id="path14"
     style="fill:#000000;fill-opacity:1;opacity:1" />
  <polygon
     class="cls-1"
     points="58.4 77.3 58.4 83.9 63.1 89.6 78.3 90.3 78.3 77.3 68.2 71.6 58.4 77.3"
     id="polygon14"
     style="fill:#000000;fill-opacity:1;opacity:1" />
  <polygon
     class="cls-1"
     points="92.3 77.3 92.3 90.5 107.2 89.6 112.3 83.9 112.3 77.3 102.2 71.6 92.3 77.3"
     id="polygon15"
     style="fill:#000000;fill-opacity:1;opacity:1" />
  <path
     class="cls-1"
     d="m141.4,125.2l.1-.1V60.9l-17.3-9.7-13-7.3-25.6-14.3-25.2,14.3-13,7.4-3.2,1.8-12.1-7.1,4-2.3,19-10.9,30.2-17.2,30.8,17.3,19,10.7,18.4,10.3,13.7-7.9v-.1l-25.4-14.2-19-10.7L85.3,0l-36.9,21.1-19,10.9-24.4,13.9v.3l25.8,14.8v63.7l55.4,31.9,41.7-23.6,12,7.1-53.6,30.3-67.4-38.8-13.7,7.9,81,46.6,67.3-38.1,13.9-7.9v-.1l-13.8-7.8-12.2-7Zm-13.5-7.8l-41.7,23.6-41.8-24.2v-48l9.8-5.6,13-7.4,18.4-10.5,18.9,10.6,13,7.3,10.4,5.8v48.4Z"
     id="path15"
     style="fill:#000000;fill-opacity:1;opacity:1" />
  <polygon
     class="cls-1"
     points="156.6 118 171.1 125.4 171.1 60.2 156.6 68.4 156.6 118"
     id="polygon16"
     style="fill:#000000;fill-opacity:1;opacity:1" />
  <polygon
     class="cls-1"
     points="14.6 68.4 0 60.2 0 125.4 14.6 118 14.6 68.4"
     id="polygon17" />
</svg>
