<svg xmlns="http://www.w3.org/2000/svg" viewBox="0 0 399.65 50.87"><defs><style>.cls-1{fill:#181818;}</style></defs><g id="Layer_2" data-name="Layer 2"><g id="Layer_1-2" data-name="Layer 1"><path class="cls-1" d="M34.93,36c0,7.59-6.28,14.85-16.48,14.85A22,22,0,0,1,0,41.84l6.48-5.12c2.95,4.67,6.88,7.18,11.9,7.18,5.49,0,9-3.53,9-7.93,0-5-5.42-6.67-11.13-8.5-6.7-2.18-14-4.89-14-14C2.24,6,9,0,18.11,0a19.46,19.46,0,0,1,16,7.33l-6,4.47a11.14,11.14,0,0,0-9.94-5.29c-5,0-8.27,3-8.27,6.85,0,4.75,5.22,6.3,10.91,8.21h0C27.54,23.87,34.93,26.79,34.93,36ZM56.4,15.6h0ZM73.83,32.89v2.82H45.77c1,5.25,5,8.71,10.94,8.71a10.63,10.63,0,0,0,9.9-6.1l6,3.32c-3,5.56-8.34,9.22-15.87,9.22C46,50.86,38.78,43.2,38.78,33.37A17.47,17.47,0,0,1,56.41,15.6C66.44,15.61,73.83,22.86,73.83,32.89Zm-7.37-3.32c-1.09-4.88-4.82-7.59-10-7.59a10.53,10.53,0,0,0-10.31,7.59Zm29.4,14.49,0,0A10.67,10.67,0,0,1,85.17,33.23,10.55,10.55,0,0,1,95.75,22.38a10.11,10.11,0,0,1,9.56,6.37L111.82,26A17.06,17.06,0,0,0,95.75,15.6a17.43,17.43,0,0,0-17.7,17.63,17.47,17.47,0,0,0,17.7,17.63A17.1,17.1,0,0,0,112,40.21l-6.61-2.8A10.22,10.22,0,0,1,95.86,44.06Zm115-11.17v2.85H182.83c1,5.22,5,8.68,10.92,8.68a10.65,10.65,0,0,0,9.91-6.1l6,3.32c-3,5.56-8.34,9.22-15.88,9.22-10.71,0-17.9-7.66-17.9-17.49A17.45,17.45,0,0,1,193.46,15.6C203.49,15.6,210.89,22.85,210.89,32.89Zm-7.39-3.32c-1.09-4.88-4.81-7.59-10-7.59a10.52,10.52,0,0,0-10.3,7.59Zm-10.05-14h0ZM252.1,40.35l-8.75-24.08h-7.19l-8.89,24.08-7.73-24.08-7.39-.06,11.26,34h7.12L239.69,26l9,24.21h7l11.8-33.91H260.1ZM383,29.81l0,0c-4.89-1.09-8-1.76-8-4.25,0-2.17,2-4.06,5.83-4.06a8.74,8.74,0,0,1,7.6,3.86l6-3.29c-2.64-4.07-7.33-6.58-13.6-6.58-8-.06-13.08,4.88-13.08,10.21,0,7,5.95,8.88,11.73,10.1,4.25.85,8.2,1.49,8.2,4.21,0,2.37-2.1,4.47-6.17,4.47a9.64,9.64,0,0,1-8.68-4.94L366.36,43c2.85,5,7.8,7.86,14.85,7.86,9.63.07,13.7-6.24,13.7-10.92C394.91,32.86,388.61,31,383,29.81ZM395,9.24l1.4,2h-1l-1.37-1.92h-.57v1.93h-.84V5.9h2a1.61,1.61,0,0,1,1.7,1.7h0A1.6,1.6,0,0,1,395,9.24Zm-.34-.79a.85.85,0,1,0,0-1.7h-1.18v1.7Zm3.42-3.73a5.35,5.35,0,0,1,1.53,3.78,5.29,5.29,0,1,1-10.58,0,5.29,5.29,0,0,1,5.28-5.35A5.33,5.33,0,0,1,398.11,4.72Zm.67,3.78A4.44,4.44,0,1,0,394.34,13v0a4.42,4.42,0,0,0,4.44-4.48ZM140.11,34.94a8.31,8.31,0,0,1-16.62,0V16.24H116.1v18.7a15.7,15.7,0,1,0,31.4,0V16.24h-7.39ZM308.43,29h0V50.16h7.33V29a5.67,5.67,0,0,1,5.66-5.66h7.65V16.05h-7.65A13,13,0,0,0,308.43,29ZM152.82,31.14v19h7.32v-19a7.78,7.78,0,0,1,7.77-7.77h5.52V16.05h-5.52A15.11,15.11,0,0,0,152.82,31.14ZM303,36.89a9.28,9.28,0,0,1-.22.91c-.06.21-.08.42-.15.63s-.24.57-.35.86-.21.56-.33.83c-.22.5-.47,1-.74,1.47-.13.23-.26.47-.41.71a16.9,16.9,0,0,1-1,1.41c-.09.12-.16.25-.25.37l0,0a17.61,17.61,0,0,1-4.16,3.78l0,0-.13.06a16.56,16.56,0,0,1-2.5,1.32c-.3.13-.61.22-.91.33a15.8,15.8,0,0,1-1.77.56c-.4.1-.79.18-1.18.25s-.49.12-.74.15-.6,0-.9.06-.8.07-1.2.08c-.61,0-1.22,0-1.82-.08-.32,0-.65,0-1-.08a17.76,17.76,0,0,1-2.6-.58c-.34-.1-.65-.24-1-.36a15.16,15.16,0,0,1-1.61-.67c-.37-.17-.72-.37-1.08-.58s-.94-.57-1.39-.88-.65-.46-1-.72a16.92,16.92,0,0,1-1.53-1.41c-.16-.16-.34-.29-.5-.46a.61.61,0,0,0-.07-.1,17.21,17.21,0,0,1-1.54-2h0a17.33,17.33,0,0,1-2.29-5.13l-.06,0c-.06-.2-.06-.4-.11-.61-.11-.47-.18-1-.25-1.43a16.59,16.59,0,0,1-.2-1.71c0-.42,0-.84,0-1.27a16,16,0,0,1,.11-1.83c0-.4.14-.79.22-1.18a18.52,18.52,0,0,1,.43-1.82c.12-.38.27-.75.42-1.12a16,16,0,0,1,.76-1.75c.17-.34.38-.66.58-1a18.86,18.86,0,0,1,1.12-1.68c.09-.12.15-.24.24-.36l0,0a17.47,17.47,0,0,1,4.14-3.75v0a17.77,17.77,0,0,1,2.26-1.25l.07,0c.13-.06.27-.09.4-.14a16.18,16.18,0,0,1,2.34-.81l.86-.19a17.3,17.3,0,0,1,2-.31l.91-.07c.24,0,.49,0,.73,0,.48,0,1,.07,1.43.11.23,0,.46,0,.69.05a17.42,17.42,0,0,1,5.51,1.61c.18.08.35.19.53.28a19.81,19.81,0,0,1,1.93,1.17l.64.47a19.19,19.19,0,0,1,1.73,1.52c.14.14.29.27.42.42a17.39,17.39,0,0,1,1.89,2.37h0a15.92,15.92,0,0,1,2.26,5.11h0c.06.21.08.43.13.65a14.92,14.92,0,0,1,.3,1.48c.05.41.08.83.11,1.24s.06.78.06,1.17,0,1-.07,1.45-.05.65-.09,1C303.19,35.88,303.09,36.39,303,36.89Zm-26.2-9.71,0,0a10.65,10.65,0,0,0-1.23,2.6c0,.07,0,.15,0,.22a10.88,10.88,0,0,0-.42,2.4c0,.33,0,.66,0,1a10.59,10.59,0,0,0,1.22,4.73,10.86,10.86,0,0,0,1.19,1.71,10.63,10.63,0,0,0,8.6,3.79,10.42,10.42,0,0,0,1.68-.2c.19,0,.37,0,.55-.09a10.77,10.77,0,0,0,6.59-5c.12-.21.23-.43.34-.65a9.28,9.28,0,0,0,.4-.91c.09-.23.16-.46.24-.7s.18-.62.24-.94.09-.51.12-.76.08-.62.09-.93,0-.54,0-.81,0-.61-.07-.92a10.69,10.69,0,0,0-2.51-5.7l-.4-.42a8.71,8.71,0,0,0-.83-.78c-.12-.11-.25-.21-.38-.31a9.73,9.73,0,0,0-1.11-.74l-.22-.14a10.68,10.68,0,0,0-3.16-1.13h0a10,10,0,0,0-1.64-.18h-.13a10.94,10.94,0,0,0-1.61.09h-.06c-.34.05-.68.14-1,.22a10.24,10.24,0,0,0-1.77.6c-.18.07-.37.13-.55.21h0A10.68,10.68,0,0,0,276.77,27.18ZM334.09.68v49.5h7.2V.68ZM357,16.27l-15.69,17,15.69,17h8.65l-15.7-17,15.7-17Z"/></g></g></svg>