<?xml version="1.0" encoding="utf-8"?>
<!-- Generator: Adobe Illustrator 25.4.1, SVG Export Plug-In . SVG Version: 6.00 Build 0)  -->
<svg version="1.1" id="Layer_1" xmlns="http://www.w3.org/2000/svg" xmlns:xlink="http://www.w3.org/1999/xlink" x="0px" y="0px"
	 viewBox="0 0 743.1 259.5" style="enable-background:new 0 0 743.1 259.5;" xml:space="preserve">
<style type="text/css">
	.st0{fill:#C10230;}
	.st1{opacity:0.58;fill:url(#SVGID_1_);}
	.st2{fill:#54565A;}
	.st3{opacity:0.25;}
	.st4{clip-path:url(#SVGID_00000150800827625562598140000010626470762497772216_);}
</style>
<g>
	<g>
		<g>
			<g>
				<path class="st0" d="M171.3,51.5c-10.5,0.2-20.5,2.5-29.6,6.4c-2.5-2.5-6-4.1-9.8-4.1c-7.7,0-13.9,6.2-13.9,13.9
					c0,2.5,0.7,4.9,1.9,7c-1,1.1-2,2.2-2.9,3.3c-2.2,2.7-4.3,5.3-6.4,8.1c-1.2-0.6-2.5-0.9-3.9-0.9c-2.2,0-4.3,0.8-5.9,2.1
					c-3-1.6-6-3.2-9-4.8c-0.2-0.1-0.5-0.3-0.7-0.4c0-0.1,0-0.1,0-0.2c0-3.9-3.2-7-7-7c-3.9,0-7,3.2-7,7c0,3.9,3.2,7,7,7
					c2.4,0,4.5-1.2,5.7-3c0.2,0,0.4,0.1,0.6,0.2c1.1,0.6,2.3,1.1,3.5,1.7c1.5,0.8,3.1,1.6,4.6,2.5c-0.6,1.3-1,2.7-1,4.2
					c0,2.9,1.3,5.4,3.3,7.1c0,0,0,0.1,0,0.1c-2.4,4.6-4.8,9.2-6.6,14.1c-0.1,0.4-0.3,0.7-0.5,1.1c-0.4,0.8-0.7,0.9-1.5,0.4
					c-1.3-0.9-2.5-1.7-3.8-2.6c0,0-0.1-0.1-0.1-0.1c0.3-0.8,0.5-1.7,0.5-2.6c0-3.9-3.2-7-7-7c-3.9,0-7,3.2-7,7c0,1,0.2,1.9,0.6,2.8
					c-0.1,0.2-0.3,0.3-0.4,0.5c-3.4,3.7-6.3,7.9-8.2,12.6c-0.7,1.8-1.9,2.4-3.8,2.1c-0.7-0.1-1.4-0.3-2.2-0.4c-0.9-1.8-2.7-3-4.8-3
					c-3,0-5.4,2.4-5.4,5.4c0,3,2.4,5.4,5.4,5.4c2.3,0,4.2-1.4,5-3.5c2,0.6,3,2.5,2.6,4.6c-0.3,1.3-0.4,2.6-0.5,4
					c-0.1,0.9-0.2,1.8-0.2,2.7c0,2.2-0.1,4.3,0,6.5c0.1,1.1,0.1,2.2,0,3.3c-1.3,0.9-2.2,2.3-2.2,4c0,2.7,2.2,4.8,4.8,4.8
					c2.7,0,4.8-2.2,4.8-4.8c0-2.1-1.4-3.9-3.3-4.5c-0.1-0.3-0.2-0.7-0.2-1.1c0-1.7,0-3.3,0-5.5c-0.1-2.5,0-5.6,0.7-8.6
					c0.5-2.1,1.3-2.6,3.2-1.6c1.7,0.9,3.4,1.8,5,2.8c2.3,1.5,4.6,3.2,6.9,4.9c0,0,0,0,0,0c-0.4,1-0.7,2-0.7,3.2
					c0,4.2,3.4,7.6,7.6,7.6c1.2,0,2.3-0.3,3.3-0.8c0.1,0.1,0.1,0.1,0.2,0.2c0.8,1,1.7,2,2.5,3c2,4.7,4.6,9.2,7.5,13.5
					c-0.3,0.3-0.7,0.5-1,0.7c-4.1,2.4-8.2,4.6-12.6,6.5c-0.2,0.1-0.3,0.1-0.4,0.2c-1.3-2-3.6-3.3-6.1-3.3c-4.1,0-7.3,3.3-7.3,7.3
					c0,4.1,3.3,7.3,7.3,7.3c4.1,0,7.3-3.3,7.3-7.3c0,0,0-0.1,0-0.1c0,0,0.1-0.1,0.1-0.1c4.7-1.9,9.1-4.3,13.5-6.9
					c0.8-0.5,1.3-0.8,1.7-0.9c1.1,1.5,2.3,3,3.5,4.4c2.3,3.7,4.9,7.1,7.8,10.4c0.1,0.1,0.2,0.3,0.3,0.4c-0.5,1.1-0.9,2.4-0.9,3.8
					c0,4.9,3.9,8.8,8.8,8.8c2.6,0,5-1.2,6.6-3c3.9,2.6,7.4,4.5,10.1,5.4c4.6,1.6,8.6,2.1,11.1,2.5c0,0,0,0,0,0
					c4.9,0.9,10.9,1.7,18.7,1.7c42.8-0.8,77.3-35.8,77.3-78.8C248.6,87.2,214.1,52.3,171.3,51.5z M186.1,106.8
					c0.6-3.5,1.3-7,1.3-10.6c0-1.7,0.2-3.4,0.4-5.1c0-0.2,0.1-0.3,0.2-0.5c0.1,0.2,0.2,0.3,0.2,0.5c0.5,3,1.1,6,1.5,9
					c0.3,2.5,0.4,4.9,0.6,7.4c0.1,0.7,0.1,1.4,0.2,2.1c0,0,0,0,0,0c0,0.1,0,0.3,0,0.4c-0.1,0.6-0.2,1.2-0.3,1.8
					c-0.5-0.4-1-0.7-1.5-1.1c-0.5-0.4-1-1-1.6-1.3C185.9,108.8,185.9,108,186.1,106.8z M143.9,60.8c0.1-0.1,0.3-0.1,0.4-0.2
					c2.7-1.1,5.4-2.2,8.2-3.1c1.9-0.6,3.9-0.7,5.8-1c2.2-0.3,4.2,0.4,6.1,1.3c2.9,1.3,5.4,3.2,7.7,5.3c3.1,2.8,5.7,6.1,8.1,9.4
					c1.3,1.8,2.3,3.7,2.6,6.1c0.6,3.6,0.5,7.3,0.6,12.1c0.1,2.7,0,6.6-0.7,10.4c-0.2,1.2-0.3,2.4-0.4,3.6c-0.1,0.7-0.5,0.8-1.1,0.5
					c-2.1-1.2-4.2-2.4-6.4-3.5c0.1-0.6,0.1-1.2,0.1-1.8c0-7.7-6.2-13.9-13.9-13.9c-2.2,0-4.3,0.5-6.2,1.5
					c-3.3-4.6-7.4-8.4-11.5-12.2c1.4-2.2,2.3-4.8,2.3-7.6C145.7,65.2,145.1,62.9,143.9,60.8z M170,126.2c-0.4-3.8-0.9-7.6-1.9-11.3
					c-0.2-0.9-0.5-1.7-0.7-2.5c2.8-1.4,5.1-3.8,6.4-6.8c2.1,1.2,4.3,2.5,6.4,3.7c0.7,0.4,1,1,0.9,2c-0.3,1.2-0.5,2.6-0.9,4
					c-1.4,4.3-2.8,8.6-4.5,12.8c-1.3,3.3-3.1,6.4-4.7,9.6c0,0,0,0,0,0.1c-0.2-0.1-0.4-0.1-0.6-0.2c0,0,0-0.1,0-0.1
					C170.6,133.7,170.4,129.9,170,126.2z M118.7,82c1.2-1.4,2.4-2.8,3.7-4.1c2.5,2.3,5.8,3.7,9.4,3.7c3.5,0,6.7-1.3,9.1-3.5
					c0.2,0.2,0.5,0.5,0.9,0.8c3.4,3.4,6.9,6.7,9.8,10.6c0,0.1,0.1,0.1,0.1,0.2c-1.1,1-2,2.1-2.7,3.4c-2.7-0.4-5.3-1.2-8-1.2
					c-0.9,0-1.9-0.2-2.8-0.4c-4.6-0.7-9.3-0.3-14-0.4c-2.9,0-5.9,0-8.8,0.2c-0.4-1.1-1-2.1-1.7-2.9C115.3,86.2,117,84.1,118.7,82z
					 M91.6,122.9c-0.9,2.9-1.7,5.7-2.4,8.6c-0.5,1.9-0.7,3.9-0.9,5.8c-0.1,1.1-0.2,2.2-0.3,3.3c-1,0.2-2,0.6-2.8,1.2
					c-1.1-0.8-2.2-1.6-3.2-2.4c-3-2.5-6.5-4.3-10-6c-1.2-0.6-1.8-1.5-2.1-2.8c0.1-0.4,0.1-0.8,0.3-1.1c1.9-4.1,3.9-8,7.3-11.1
					c0.2-0.2,0.4-0.4,0.7-0.5c1.1,0.7,2.4,1.1,3.7,1.1c1.5,0,2.9-0.5,4.1-1.3c0.3,0.1,0.6,0.3,0.9,0.5c1.4,1.1,2.9,2.1,4.3,3.1
					C91.7,121.7,91.8,122.1,91.6,122.9z M110,135.9c-0.3,0.8-1.2,1.4-1.9,1.9c-2.4,1.7-4.8,3.2-7.2,4.8c-1.1,0.7-2.2,1.3-3.3,1.9
					c-0.4,0.2-0.8,0.4-1.2,0.6c-0.8-2-2.4-3.5-4.4-4.3c0.5-5.2,1.4-10.2,3-15.2c0.5-1.7,0.6-1.7,2.1-0.8c4.6,2.8,9.3,5.6,14,8.2
					C110.7,134.1,110.3,135,110,135.9z M115.5,108c-1.5,3.9-2.4,7.9-2.9,12c-0.1,1.2-0.1,2.5-0.1,3.7c-0.1,1.9-0.1,3.7-0.4,5.6
					c-4.5-2.6-9.1-5.2-13.5-7.9c-1.9-1.1-1.9-1.2-1-3.3c1.9-4.8,3.8-9.6,6.5-14.1c0.1-0.2,0.2-0.4,0.4-0.5c0.7,0.2,1.5,0.3,2.3,0.3
					c2.2,0,4.2-0.8,5.8-2c0.1,0.1,0.2,0.2,0.3,0.4c1.2,1.4,2.3,2.9,3.3,4.4C115.9,107,115.7,107.4,115.5,108z M130.1,134.1
					c-1-3.4,0.6-12.9,1.2-14.6c1.1-3.1,2.4-6,5.3-8.8c2.9-2.7,4.2-1.6,5.6-0.9c1.4,0.7,3,2.2,3.1,6.4c0.1,4.9-1,6.1-2.2,10.7
					c-1.2,4.6-1.5,6.7-2.6,8.6c-0.9,1.5-2.9,3.2-5.2,4.4C131.8,141.8,131,137.5,130.1,134.1z M137.8,142.8c-0.1,1.3-0.4,1.5-1.6,0.9
					c-0.2-0.1-0.3-0.1-0.5-0.2c-0.5-0.3-0.6-0.5,0-0.8c0.7-0.4,1.4-0.8,2.3-1.3C137.9,142,137.9,142.4,137.8,142.8z M146.9,153.3
					c-0.1-0.3-0.1-0.5-0.3-0.7c-1.4-2.2-2.7-4.5-5.1-5.8c-1.2-0.6-1.6-1.9-2.4-2.8c-0.4-0.5,0.1-2.8,0.7-3.3
					c2.4-2.1,3.8-4.8,4.7-7.9c0.9-3.2,1.5-6.4,2-9.7c0.4-2.4,0.9-4.8,0.8-7.3c0-0.9,0.1-2.2-0.1-3.1c-0.3-1.6,0-2.7-0.6-4.2
					c-1-2.5-1.8-3.8-3.7-4.8c-0.2-0.1-0.4-0.3-0.6-0.5c-1.6-2-3.8-3.1-5.9-4.4c-1.6-1-3.4-1.7-5.2-2.6c-0.5-0.2-1.1-0.3-1.6-0.5
					c-0.4-0.1-0.7-0.2-1.1-0.4c-2.5-0.6-3.8,0.2-5.1,0.9c-1.3,0.6-2.2,2-3.2,3.3c-0.8,1.1-1.5,2.2-2.2,3.2c-1-1.2-2-2.5-2.9-3.7
					c-0.1-0.1-0.1-0.2-0.2-0.3c0.5-1,0.9-2.1,1-3.3c0.2,0,0.3,0,0.5-0.1c3.2-0.2,6.4-0.4,9.6-0.6c4.1,0.1,8.2,0.3,12.2,0.9
					c2.7,0.4,5.5,0.6,8.2,0.9c0.4,0,0.8,0.1,1.1,0.2c0,0,0.1,0,0.1,0c-0.2,1-0.4,2.1-0.4,3.1c0,7.7,6.2,13.9,13.9,13.9
					c0.9,0,1.7-0.1,2.5-0.2c0.1,0.4,0.2,0.8,0.4,1.4c0.5,1.9,0.6,3.9,1.1,5.8c1.1,4.8,1.1,9.7,1.1,14.7c0,0.4,0,0.8,0,1.2
					c0,0.1,0,0.2,0,0.3c-0.1,0-0.2,0-0.3,0c-6,0-11.2,3.9-13.1,9.2c-0.1,0-0.2,0-0.3-0.1c-4.2-1.5-9.1-2.6-12.1-3.9
					c0.1,0.6-0.3,1.1-0.1,1.3c0.3,0.5,0.8,1.7,2.7,3.3c0.7,0.3,1,0.7,1.7,1c2.3,0.8,3.9,1.3,6.2,1.9c0.4,0.1,0.8,0.3,1.1,0.5
					c0,0.2,0,0.4,0,0.6c0,2.5,0.7,4.9,1.8,6.9c-1.7,1.1-3.3,2.3-4.9,3.5c-0.1-0.5-0.2-1-0.3-1.5
					C147.9,157.5,147.4,155.4,146.9,153.3z M195.4,169.5c-0.3,0.2-0.6,0.5-0.9,0.7c-1.2,1-1.2,1.2-0.7,2.6c0.2,0.5,0.3,1,0.4,1.5
					c0.1,0.7-0.2,1.3-0.8,1.7c-4.7,3.1-9,6.9-14.3,9c-0.1,1-0.2,2.7-0.4,4.2c0.2-0.1,0.5-0.2,0.7-0.3c2.4-1,4.6-2.2,6.8-3.4
					c1.3-0.7,1.5-0.7,1.9,0.7c0.7,2.2,1.2,4.8,0.8,7.1c-0.2,1.5-0.6,2.8-1.1,4.2c-0.8,2.3-2.4,3-4.8,3.8c-4.7,1.6-6.7,2-8.5,2.5
					c-2.9,0.7-8.4,1.1-11.9,0.9c-5.1-0.2-9.9-1.3-13.8-2.6c-0.1-0.1-0.1-0.2-0.2-0.4c-0.1-0.2-0.1-0.3,0-0.4c0,0-0.1,0-0.1,0
					c-0.6-1,0.7-3.2,1-5.2c0.3-2,0.8-5.9,0.8-8.4c0-2.5,0-11.9,0-11.9c0.1-3.6-0.3-7.2-0.9-10.7c2.2-1.4,4.4-2.8,6.6-4.3
					c2.5,2.4,5.9,3.8,9.6,3.8c5.9,0,10.9-3.7,12.9-8.9c1.1,0.2,2.3,0.3,3.5,0.4c2.8,0.2,5.6,0.3,8.4,0.4c2.2,0.1,2.3,0,2.4,2.2
					c0.2,2,0.8,3.9,2.1,5.5c0.3,0.4,0.6,0.8,0.9,1.2C197.3,167.2,197.1,168.2,195.4,169.5z M203.7,151.6c-1.1,0.6-2.3,1.1-3.7,1
					c-2-0.1-4.1,0-7,0c-3,0.1-6.9,0-10.8-0.7c-0.9-0.2-1.8-0.1-2.6-0.1c0-0.4,0.1-0.7,0.1-1.1c0-4.5-2.1-8.4-5.4-11
					c2.1-4.1,4.3-8.2,6.1-12.4c1.7-4,3.1-8.2,4-12.6c0.1-0.4,0.2-0.7,0.3-1.1c0.1-0.7,0.5-0.9,1-0.4c2,1.9,4,3.7,6,5.6
					c0.4,0.3,0.6,0.8,0.8,1.3c2.6,7.3,6.5,14,9.9,21c1.1,2.4,2.3,4.7,2.8,7.3C205.4,150,205.1,150.9,203.7,151.6z"/>
				<path class="st0" d="M67.1,100.6c3,0,5.4-2.4,5.4-5.4s-2.4-5.4-5.4-5.4c-3,0-5.4,2.4-5.4,5.4S64.1,100.6,67.1,100.6z"/>
			</g>
		</g>
		
			<radialGradient id="SVGID_1_" cx="143.0484" cy="88.4505" r="129.5992" gradientTransform="matrix(-3.305190e-02 0.9995 -0.994 -3.287237e-02 235.6985 -51.6121)" gradientUnits="userSpaceOnUse">
			<stop  offset="0" style="stop-color:#FFFFFF;stop-opacity:0"/>
			<stop  offset="0.1254" style="stop-color:#C9CACA;stop-opacity:0.1468"/>
			<stop  offset="0.2576" style="stop-color:#97999A;stop-opacity:0.3015"/>
			<stop  offset="0.3886" style="stop-color:#6E7071;stop-opacity:0.455"/>
			<stop  offset="0.5158" style="stop-color:#4E5052;stop-opacity:0.6039"/>
			<stop  offset="0.6381" style="stop-color:#373A3C;stop-opacity:0.747"/>
			<stop  offset="0.7533" style="stop-color:#292C2E;stop-opacity:0.8819"/>
			<stop  offset="0.8542" style="stop-color:#24272A"/>
		</radialGradient>
		<path class="st1" d="M171.3,51.5c-10.5,0.2-20.5,2.5-29.6,6.4c-2.5-2.5-6-4.1-9.8-4.1c-7.7,0-13.9,6.2-13.9,13.9
			c0,2.5,0.7,4.9,1.9,7c-1,1.1-2,2.2-2.9,3.3c-2.2,2.7-4.3,5.3-6.4,8.1c-1.2-0.6-2.5-0.9-3.9-0.9c-2.2,0-4.3,0.8-5.9,2.1
			c-3-1.6-6-3.2-9-4.8c-0.2-0.1-0.5-0.3-0.7-0.4c0-0.1,0-0.1,0-0.2c0-3.9-3.2-7-7-7c-3.9,0-7,3.2-7,7c0,3.9,3.2,7,7,7
			c2.4,0,4.5-1.2,5.7-3c0.2,0,0.4,0.1,0.6,0.2c1.1,0.6,2.3,1.1,3.5,1.7c1.5,0.8,3.1,1.6,4.6,2.5c-0.6,1.3-1,2.7-1,4.2
			c0,2.9,1.3,5.4,3.3,7.1c0,0,0,0.1,0,0.1c-2.4,4.6-4.8,9.2-6.6,14.1c-0.1,0.4-0.3,0.7-0.5,1.1c-0.4,0.8-0.7,0.9-1.5,0.4
			c-1.3-0.9-2.5-1.7-3.8-2.6c0,0-0.1-0.1-0.1-0.1c0.3-0.8,0.5-1.7,0.5-2.6c0-3.9-3.2-7-7-7c-3.9,0-7,3.2-7,7c0,1,0.2,1.9,0.6,2.8
			c-0.1,0.2-0.3,0.3-0.4,0.5c-3.4,3.7-6.3,7.9-8.2,12.6c-0.7,1.8-1.9,2.4-3.8,2.1c-0.7-0.1-1.4-0.3-2.2-0.4c-0.9-1.8-2.7-3-4.8-3
			c-3,0-5.4,2.4-5.4,5.4c0,3,2.4,5.4,5.4,5.4c2.3,0,4.2-1.4,5-3.5c2,0.6,3,2.5,2.6,4.6c-0.3,1.3-0.4,2.6-0.5,4
			c-0.1,0.9-0.2,1.8-0.2,2.7c0,2.2-0.1,4.3,0,6.5c0.1,1.1,0.1,2.2,0,3.3c-1.3,0.9-2.2,2.3-2.2,4c0,2.7,2.2,4.8,4.8,4.8
			c2.7,0,4.8-2.2,4.8-4.8c0-2.1-1.4-3.9-3.3-4.5c-0.1-0.3-0.2-0.7-0.2-1.1c0-1.7,0-3.3,0-5.5c-0.1-2.5,0-5.6,0.7-8.6
			c0.5-2.1,1.3-2.6,3.2-1.6c1.7,0.9,3.4,1.8,5,2.8c2.3,1.5,4.6,3.2,6.9,4.9c0,0,0,0,0,0c-0.4,1-0.7,2-0.7,3.2c0,4.2,3.4,7.6,7.6,7.6
			c1.2,0,2.3-0.3,3.3-0.8c0.1,0.1,0.1,0.1,0.2,0.2c0.8,1,1.7,2,2.5,3c2,4.7,4.6,9.2,7.5,13.5c-0.3,0.3-0.7,0.5-1,0.7
			c-4.1,2.4-8.2,4.6-12.6,6.5c-0.2,0.1-0.3,0.1-0.4,0.2c-1.3-2-3.6-3.3-6.1-3.3c-4.1,0-7.3,3.3-7.3,7.3c0,4.1,3.3,7.3,7.3,7.3
			c4.1,0,7.3-3.3,7.3-7.3c0,0,0-0.1,0-0.1c0,0,0.1-0.1,0.1-0.1c4.7-1.9,9.1-4.3,13.5-6.9c0.8-0.5,1.3-0.8,1.7-0.9
			c1.1,1.5,2.3,3,3.5,4.4c2.3,3.7,4.9,7.1,7.8,10.4c0.1,0.1,0.2,0.3,0.3,0.4c-0.5,1.1-0.9,2.4-0.9,3.8c0,4.9,3.9,8.8,8.8,8.8
			c2.6,0,5-1.2,6.6-3c3.9,2.6,7.4,4.5,10.1,5.4c4.6,1.6,8.6,2.1,11.1,2.5c0,0,0,0,0,0c4.9,0.9,10.9,1.7,18.7,1.7
			c42.8-0.8,77.3-35.8,77.3-78.8C248.6,87.2,214.1,52.3,171.3,51.5z M186.1,106.8c0.6-3.5,1.3-7,1.3-10.6c0-1.7,0.2-3.4,0.4-5.1
			c0-0.2,0.1-0.3,0.2-0.5c0.1,0.2,0.2,0.3,0.2,0.5c0.5,3,1.1,6,1.5,9c0.3,2.5,0.4,4.9,0.6,7.4c0.1,0.7,0.1,1.4,0.2,2.1c0,0,0,0,0,0
			c0,0.1,0,0.3,0,0.4c-0.1,0.6-0.2,1.2-0.3,1.8c-0.5-0.4-1-0.7-1.5-1.1c-0.5-0.4-1-1-1.6-1.3C185.9,108.8,185.9,108,186.1,106.8z
			 M143.9,60.8c0.1-0.1,0.3-0.1,0.4-0.2c2.7-1.1,5.4-2.2,8.2-3.1c1.9-0.6,3.9-0.7,5.8-1c2.2-0.3,4.2,0.4,6.1,1.3
			c2.9,1.3,5.4,3.2,7.7,5.3c3.1,2.8,5.7,6.1,8.1,9.4c1.3,1.8,2.3,3.7,2.6,6.1c0.6,3.6,0.5,7.3,0.6,12.1c0.1,2.7,0,6.6-0.7,10.4
			c-0.2,1.2-0.3,2.4-0.4,3.6c-0.1,0.7-0.5,0.8-1.1,0.5c-2.1-1.2-4.2-2.4-6.4-3.5c0.1-0.6,0.1-1.2,0.1-1.8c0-7.7-6.2-13.9-13.9-13.9
			c-2.2,0-4.3,0.5-6.2,1.5c-3.3-4.6-7.4-8.4-11.5-12.2c1.4-2.2,2.3-4.8,2.3-7.6C145.7,65.2,145.1,62.9,143.9,60.8z M170,126.2
			c-0.4-3.8-0.9-7.6-1.9-11.3c-0.2-0.9-0.5-1.7-0.7-2.5c2.8-1.4,5.1-3.8,6.4-6.8c2.1,1.2,4.3,2.5,6.4,3.7c0.7,0.4,1,1,0.9,2
			c-0.3,1.2-0.5,2.6-0.9,4c-1.4,4.3-2.8,8.6-4.5,12.8c-1.3,3.3-3.1,6.4-4.7,9.6c0,0,0,0,0,0.1c-0.2-0.1-0.4-0.1-0.6-0.2
			c0,0,0-0.1,0-0.1C170.6,133.7,170.4,129.9,170,126.2z M118.7,82c1.2-1.4,2.4-2.8,3.7-4.1c2.5,2.3,5.8,3.7,9.4,3.7
			c3.5,0,6.7-1.3,9.1-3.5c0.2,0.2,0.5,0.5,0.9,0.8c3.4,3.4,6.9,6.7,9.8,10.6c0,0.1,0.1,0.1,0.1,0.2c-1.1,1-2,2.1-2.7,3.4
			c-2.7-0.4-5.3-1.2-8-1.2c-0.9,0-1.9-0.2-2.8-0.4c-4.6-0.7-9.3-0.3-14-0.4c-2.9,0-5.9,0-8.8,0.2c-0.4-1.1-1-2.1-1.7-2.9
			C115.3,86.2,117,84.1,118.7,82z M91.6,122.9c-0.9,2.9-1.7,5.7-2.4,8.6c-0.5,1.9-0.7,3.9-0.9,5.8c-0.1,1.1-0.2,2.2-0.3,3.3
			c-1,0.2-2,0.6-2.8,1.2c-1.1-0.8-2.2-1.6-3.2-2.4c-3-2.5-6.5-4.3-10-6c-1.2-0.6-1.8-1.5-2.1-2.8c0.1-0.4,0.1-0.8,0.3-1.1
			c1.9-4.1,3.9-8,7.3-11.1c0.2-0.2,0.4-0.4,0.7-0.5c1.1,0.7,2.4,1.1,3.7,1.1c1.5,0,2.9-0.5,4.1-1.3c0.3,0.1,0.6,0.3,0.9,0.5
			c1.4,1.1,2.9,2.1,4.3,3.1C91.7,121.7,91.8,122.1,91.6,122.9z M110,135.9c-0.3,0.8-1.2,1.4-1.9,1.9c-2.4,1.7-4.8,3.2-7.2,4.8
			c-1.1,0.7-2.2,1.3-3.3,1.9c-0.4,0.2-0.8,0.4-1.2,0.6c-0.8-2-2.4-3.5-4.4-4.3c0.5-5.2,1.4-10.2,3-15.2c0.5-1.7,0.6-1.7,2.1-0.8
			c4.6,2.8,9.3,5.6,14,8.2C110.7,134.1,110.3,135,110,135.9z M115.5,108c-1.5,3.9-2.4,7.9-2.9,12c-0.1,1.2-0.1,2.5-0.1,3.7
			c-0.1,1.9-0.1,3.7-0.4,5.6c-4.5-2.6-9.1-5.2-13.5-7.9c-1.9-1.1-1.9-1.2-1-3.3c1.9-4.8,3.8-9.6,6.5-14.1c0.1-0.2,0.2-0.4,0.4-0.5
			c0.7,0.2,1.5,0.3,2.3,0.3c2.2,0,4.2-0.8,5.8-2c0.1,0.1,0.2,0.2,0.3,0.4c1.2,1.4,2.3,2.9,3.3,4.4C115.9,107,115.7,107.4,115.5,108z
			 M130.1,134.1c-1-3.4,0.6-12.9,1.2-14.6c1.1-3.1,2.4-6,5.3-8.8c2.9-2.7,4.2-1.6,5.6-0.9c1.4,0.7,3,2.2,3.1,6.4
			c0.1,4.9-1,6.1-2.2,10.7c-1.2,4.6-1.5,6.7-2.6,8.6c-0.9,1.5-2.9,3.2-5.2,4.4C131.8,141.8,131,137.5,130.1,134.1z M137.8,142.8
			c-0.1,1.3-0.4,1.5-1.6,0.9c-0.2-0.1-0.3-0.1-0.5-0.2c-0.5-0.3-0.6-0.5,0-0.8c0.7-0.4,1.4-0.8,2.3-1.3
			C137.9,142,137.9,142.4,137.8,142.8z M146.9,153.3c-0.1-0.3-0.1-0.5-0.3-0.7c-1.4-2.2-2.7-4.5-5.1-5.8c-1.2-0.6-1.6-1.9-2.4-2.8
			c-0.4-0.5,0.1-2.8,0.7-3.3c2.4-2.1,3.8-4.8,4.7-7.9c0.9-3.2,1.5-6.4,2-9.7c0.4-2.4,0.9-4.8,0.8-7.3c0-0.9,0.1-2.2-0.1-3.1
			c-0.3-1.6,0-2.7-0.6-4.2c-1-2.5-1.8-3.8-3.7-4.8c-0.2-0.1-0.4-0.3-0.6-0.5c-1.6-2-3.8-3.1-5.9-4.4c-1.6-1-3.4-1.7-5.2-2.6
			c-0.5-0.2-1.1-0.3-1.6-0.5c-0.4-0.1-0.7-0.2-1.1-0.4c-2.5-0.6-3.8,0.2-5.1,0.9c-1.3,0.6-2.2,2-3.2,3.3c-0.8,1.1-1.5,2.2-2.2,3.2
			c-1-1.2-2-2.5-2.9-3.7c-0.1-0.1-0.1-0.2-0.2-0.3c0.5-1,0.9-2.1,1-3.3c0.2,0,0.3,0,0.5-0.1c3.2-0.2,6.4-0.4,9.6-0.6
			c4.1,0.1,8.2,0.3,12.2,0.9c2.7,0.4,5.5,0.6,8.2,0.9c0.4,0,0.8,0.1,1.1,0.2c0,0,0.1,0,0.1,0c-0.2,1-0.4,2.1-0.4,3.1
			c0,7.7,6.2,13.9,13.9,13.9c0.9,0,1.7-0.1,2.5-0.2c0.1,0.4,0.2,0.8,0.4,1.4c0.5,1.9,0.6,3.9,1.1,5.8c1.1,4.8,1.1,9.7,1.1,14.7
			c0,0.4,0,0.8,0,1.2c0,0.1,0,0.2,0,0.3c-0.1,0-0.2,0-0.3,0c-6,0-11.2,3.9-13.1,9.2c-0.1,0-0.2,0-0.3-0.1c-4.2-1.5-9.1-2.6-12.1-3.9
			c0.1,0.6-0.3,1.1-0.1,1.3c0.3,0.5,0.8,1.7,2.7,3.3c0.7,0.3,1,0.7,1.7,1c2.3,0.8,3.9,1.3,6.2,1.9c0.4,0.1,0.8,0.3,1.1,0.5
			c0,0.2,0,0.4,0,0.6c0,2.5,0.7,4.9,1.8,6.9c-1.7,1.1-3.3,2.3-4.9,3.5c-0.1-0.5-0.2-1-0.3-1.5C147.9,157.5,147.4,155.4,146.9,153.3z
			 M195.4,169.5c-0.3,0.2-0.6,0.5-0.9,0.7c-1.2,1-1.2,1.2-0.7,2.6c0.2,0.5,0.3,1,0.4,1.5c0.1,0.7-0.2,1.3-0.8,1.7
			c-4.7,3.1-9,6.9-14.3,9c-0.1,1-0.2,2.7-0.4,4.2c0.2-0.1,0.5-0.2,0.7-0.3c2.4-1,4.6-2.2,6.8-3.4c1.3-0.7,1.5-0.7,1.9,0.7
			c0.7,2.2,1.2,4.8,0.8,7.1c-0.2,1.5-0.6,2.8-1.1,4.2c-0.8,2.3-2.4,3-4.8,3.8c-4.7,1.6-6.7,2-8.5,2.5c-2.9,0.7-8.4,1.1-11.9,0.9
			c-5.1-0.2-9.9-1.3-13.8-2.6c-0.1-0.1-0.1-0.2-0.2-0.4c-0.1-0.2-0.1-0.3,0-0.4c0,0-0.1,0-0.1,0c-0.6-1,0.7-3.2,1-5.2
			c0.3-2,0.8-5.9,0.8-8.4c0-2.5,0-11.9,0-11.9c0.1-3.6-0.3-7.2-0.9-10.7c2.2-1.4,4.4-2.8,6.6-4.3c2.5,2.4,5.9,3.8,9.6,3.8
			c5.9,0,10.9-3.7,12.9-8.9c1.1,0.2,2.3,0.3,3.5,0.4c2.8,0.2,5.6,0.3,8.4,0.4c2.2,0.1,2.3,0,2.4,2.2c0.2,2,0.8,3.9,2.1,5.5
			c0.3,0.4,0.6,0.8,0.9,1.2C197.3,167.2,197.1,168.2,195.4,169.5z M203.7,151.6c-1.1,0.6-2.3,1.1-3.7,1c-2-0.1-4.1,0-7,0
			c-3,0.1-6.9,0-10.8-0.7c-0.9-0.2-1.8-0.1-2.6-0.1c0-0.4,0.1-0.7,0.1-1.1c0-4.5-2.1-8.4-5.4-11c2.1-4.1,4.3-8.2,6.1-12.4
			c1.7-4,3.1-8.2,4-12.6c0.1-0.4,0.2-0.7,0.3-1.1c0.1-0.7,0.5-0.9,1-0.4c2,1.9,4,3.7,6,5.6c0.4,0.3,0.6,0.8,0.8,1.3
			c2.6,7.3,6.5,14,9.9,21c1.1,2.4,2.3,4.7,2.8,7.3C205.4,150,205.1,150.9,203.7,151.6z M61.7,95.2c0-3,2.4-5.4,5.4-5.4
			c3,0,5.4,2.4,5.4,5.4s-2.4,5.4-5.4,5.4C64.1,100.6,61.7,98.2,61.7,95.2z"/>
	</g>
	<g>
		<path class="st2" d="M269.1,134.6V85.1h10.2v18.5h22.3V85.1h10.1v49.5h-10.1v-21.7h-22.3v21.7H269.1z"/>
		<path class="st2" d="M325.8,91.6c4.9-5,11-7.5,18.4-7.5c7.4,0,13.4,2.5,18.3,7.5c4.9,4.9,7.4,11,7.4,18.2c0,7.1-2.5,13.2-7.4,18.2
			c-4.9,5-11,7.5-18.3,7.5c-7.4,0-13.5-2.5-18.4-7.5c-4.9-5-7.3-11.1-7.3-18.2C318.5,102.6,320.9,96.5,325.8,91.6z M344.2,126
			c4.4,0,8-1.6,10.9-4.6c2.9-3,4.4-6.9,4.4-11.6c0-4.7-1.5-8.6-4.4-11.6c-2.9-3-6.5-4.6-10.9-4.6c-4.4,0-8.1,1.6-11,4.6
			c-2.9,3-4.3,6.9-4.3,11.6c0,4.7,1.4,8.6,4.3,11.6C336.1,124.5,339.8,126,344.2,126z"/>
		<path class="st2" d="M376.5,134.6V85.1h22.9c5.2,0,9.4,1.3,12.4,4.1c3,2.7,4.6,6.2,4.6,10.5c0,6.6-3.8,11.7-10.2,13.7l15.3,21.1
			h-11.8l-14.4-20h-8.6v20H376.5z M386.7,106h12.2c4.6,0,7.4-2.1,7.4-6c0-3.7-2.8-6-7.4-6h-12.2V106z"/>
		<path class="st2" d="M426,134.6V85.1h10.1v49.5H426z"/>
		<path class="st2" d="M441.8,134.6v-7.2l25.7-33.1H443v-9.1h38.3v7.1l-25.7,33.2h26.8v9.1H441.8z"/>
		<path class="st2" d="M492.1,91.6c4.9-5,11-7.5,18.4-7.5c7.4,0,13.4,2.5,18.3,7.5c4.9,4.9,7.4,11,7.4,18.2c0,7.1-2.5,13.2-7.4,18.2
			c-4.9,5-11,7.5-18.3,7.5c-7.4,0-13.5-2.5-18.4-7.5c-4.9-5-7.3-11.1-7.3-18.2C484.8,102.6,487.2,96.5,492.1,91.6z M510.5,126
			c4.4,0,8-1.6,10.9-4.6c2.9-3,4.4-6.9,4.4-11.6c0-4.7-1.5-8.6-4.4-11.6c-2.9-3-6.5-4.6-10.9-4.6c-4.4,0-8.1,1.6-11,4.6
			c-2.9,3-4.3,6.9-4.3,11.6c0,4.7,1.4,8.6,4.3,11.6C502.4,124.5,506.1,126,510.5,126z"/>
		<path class="st2" d="M542.9,134.6V85.1h8.7l24.9,31.7V85.1h9.9v49.5H578l-25.2-31.8v31.8H542.9z"/>
		<path class="st2" d="M592.2,131.6v-9.7c4.4,3,9.2,4.5,14.5,4.5c5.9,0,10.3-3.1,10.3-8.3c0-4.7-3.8-8.1-9.8-8.1
			c-2.3,0-4.7,0.4-7,1.3v-6.7L612,93.9h-18.2v-8.8H625v7.6L613.8,103c3.5,0.6,6.6,2.3,9.3,4.9c2.7,2.6,4,6,4,10.3
			c0,5.3-1.9,9.5-5.7,12.7c-3.8,3.2-8.6,4.7-14.2,4.7C601.4,135.6,596.4,134.2,592.2,131.6z"/>
		<path class="st2" d="M633.5,128.7c1.4-1.4,3.8-1.4,5.2,0c1.4,1.4,1.4,3.8,0,5.2c-1.4,1.4-3.8,1.4-5.2,0
			C632.1,132.5,632.1,130.1,633.5,128.7z"/>
		<path class="st2" d="M648.5,132.4c-2.5-2-3.7-4.8-3.7-8.3c0-3.5,1.3-6.2,4-8.3c2.7-2,6-3,10-3c4.5,0,8.6,1.1,12.3,3.3v-3.4
			c0-5.7-3.7-8.6-11.2-8.6c-4,0-7.7,1.1-11.2,3.5v-4.9c3.3-2.1,7.4-3.1,12.2-3.1c9.1,0,15.3,4.4,15.3,12.7v14.1
			c0,2.6,1.3,4.2,3.3,4.2c0.8,0,1.4-0.1,2-0.4v4c-0.7,0.5-1.8,0.8-3.4,0.8c-3.3,0-5.9-1.8-6.4-5.4c-3.5,4-8.1,6-13.8,6
			C654.2,135.4,651.1,134.4,648.5,132.4z M671.1,125.1v-4.7c-3.5-2.3-7.2-3.4-11.1-3.4c-6.2,0-10.1,2.6-10.1,6.9c0,4.6,4,7,9.3,7
			C664.1,130.8,668.6,128.2,671.1,125.1z"/>
		<path class="st2" d="M685.5,86.2c1.4-1.4,3.7-1.4,5.1,0c1.4,1.4,1.4,3.7,0,5.1c-1.4,1.3-3.7,1.3-5.1,0
			C684.2,89.8,684.2,87.6,685.5,86.2z M685.5,134.6v-34.1h5.1v34.1H685.5z"/>
	</g>
	<g>
		<g>
			<path class="st2" d="M372.4,165.2h-6.6v19.1H363v-19.1h-6.6v-2.4h16V165.2z"/>
			<path class="st2" d="M386.3,174.5c1.1,0.5,1.9,1.3,2.4,2.4s0.8,2.2,0.8,3.6v3.8h-2.9v-3.6c0-1.7-0.4-3-1.2-3.9
				c-0.8-0.8-2-1.3-3.5-1.3h-4.3v8.7h-2.8v-18.9c0-0.8,0.2-1.4,0.7-1.8c0.4-0.5,1-0.7,1.8-0.7h4.9c2.6,0,4.5,0.6,5.6,1.7
				c1.2,1.2,1.7,2.7,1.7,4.7c0,1.2-0.2,2.3-0.7,3.3C388.3,173.4,387.5,174.1,386.3,174.5z M377.6,173.1h4.5c1.7,0,2.9-0.4,3.5-1.1
				c0.6-0.7,1-1.7,1-2.9s-0.3-2.2-1-2.9c-0.7-0.7-1.8-1.1-3.5-1.1H378c-0.2,0-0.4,0.1-0.4,0.4V173.1z"/>
			<path class="st2" d="M400.9,184.5c-2.3,0-4.2-0.6-5.6-1.9c-1.4-1.3-2.1-3.1-2.1-5.4v-14.4h2.9v14.2c0,1.8,0.4,3.1,1.3,3.9
				c0.8,0.8,2,1.2,3.5,1.2c1.5,0,2.7-0.4,3.6-1.2c0.9-0.8,1.3-2.1,1.3-3.9v-14.2h2.8v14.4c0,2.3-0.7,4.1-2,5.4
				C405.3,183.8,403.4,184.5,400.9,184.5z"/>
			<path class="st2" d="M423.6,172.8c0.8,0.2,1.4,0.6,2,1c0.5,0.5,1,1,1.3,1.7s0.4,1.6,0.4,2.6c0,1.9-0.7,3.5-2.2,4.6
				c-1.4,1.1-3.4,1.7-5.9,1.7c-1.7,0-3.2-0.2-4.4-0.6c-1.2-0.4-2.3-0.9-3.2-1.7l1.2-2.6c0.7,0.7,1.6,1.3,2.7,1.7
				c1.1,0.4,2.3,0.6,3.6,0.6c3.5,0,5.2-1.3,5.2-3.9c0-1-0.3-1.8-0.8-2.4c-0.5-0.6-1.4-0.9-2.7-1l-2.7-0.2c-2.1-0.2-3.7-0.7-4.7-1.7
				c-1.1-1-1.6-2.3-1.6-4.1c0-0.9,0.2-1.7,0.5-2.5c0.3-0.7,0.8-1.4,1.5-1.9c0.6-0.5,1.4-1,2.3-1.3c0.9-0.3,1.9-0.5,3-0.5
				c1.3,0,2.5,0.2,3.7,0.5c1.2,0.3,2.2,0.7,2.9,1.2l-1.1,2.3c-0.8-0.5-1.6-1-2.6-1.2c-0.9-0.3-2-0.4-3-0.4c-1.4,0-2.6,0.3-3.3,1
				c-0.8,0.7-1.2,1.6-1.2,2.7c0,1,0.3,1.8,1,2.4c0.7,0.5,1.6,0.9,2.7,1l2.7,0.2C422,172.4,422.9,172.6,423.6,172.8z"/>
			<path class="st2" d="M444.5,165.2H438v19.1h-2.8v-19.1h-6.6v-2.4h16V165.2z"/>
			<path class="st2" d="M466.3,172.8c1,0.5,1.7,1.1,2.2,2c0.5,0.9,0.7,1.9,0.7,3c0,1.9-0.6,3.5-1.7,4.7c-1.1,1.2-3,1.7-5.6,1.7h-4.9
				c-0.8,0-1.4-0.2-1.8-0.7c-0.5-0.5-0.7-1.1-0.7-1.8v-16.4c0-0.8,0.2-1.4,0.7-1.8c0.4-0.5,1.1-0.7,1.8-0.7h4.9
				c1.2,0,2.2,0.1,3.1,0.4c0.8,0.3,1.5,0.7,2.1,1.2c0.5,0.5,0.9,1.1,1.2,1.8c0.2,0.7,0.4,1.5,0.4,2.4c0,0.9-0.2,1.8-0.6,2.5
				C467.5,171.9,467,172.4,466.3,172.8z M461.8,171.7c1.4,0,2.4-0.3,3-0.8c0.6-0.5,0.9-1.3,0.9-2.3c0-1.1-0.3-1.9-0.8-2.5
				c-0.5-0.6-1.6-0.9-3-0.9h-4.2c-0.2,0-0.4,0.1-0.4,0.4v6.2H461.8z M461.8,181.9c0.9,0,1.6-0.1,2.1-0.3c0.6-0.2,1-0.5,1.4-0.8
				c0.3-0.4,0.6-0.8,0.7-1.3c0.2-0.5,0.2-1,0.2-1.6c0-1.2-0.3-2.1-1-2.8c-0.7-0.7-1.8-1-3.5-1h-4.5v7.4c0,0.2,0.1,0.4,0.4,0.4H461.8
				z"/>
			<path class="st2" d="M480.1,184.5c-2.3,0-4.2-0.6-5.6-1.9c-1.4-1.3-2.1-3.1-2.1-5.4v-14.4h2.9v14.2c0,1.8,0.4,3.1,1.3,3.9
				s2,1.2,3.5,1.2s2.7-0.4,3.6-1.2c0.9-0.8,1.3-2.1,1.3-3.9v-14.2h2.8v14.4c0,2.3-0.7,4.1-2,5.4
				C484.5,183.8,482.6,184.5,480.1,184.5z"/>
			<path class="st2" d="M505.9,165.2h-6.6v19.1h-2.8v-19.1h-6.6v-2.4h16V165.2z"/>
			<path class="st2" d="M523.1,184.5c-1.3,0-2.3-0.3-3.1-1c-0.8-0.7-1.3-1.6-1.5-2.8l-3.6-17.9h2.8l3.4,17.2
				c0.1,0.6,0.3,1.1,0.6,1.5c0.3,0.4,0.8,0.6,1.4,0.6c0.6,0,1-0.2,1.4-0.6c0.3-0.4,0.6-0.9,0.7-1.5l3.4-17.2h2.8l-3.6,17.9
				c-0.3,1.2-0.8,2.1-1.5,2.8C525.4,184.1,524.4,184.5,523.1,184.5z"/>
			<path class="st2" d="M547.7,184.3h-11.1c-0.8,0-1.4-0.2-1.8-0.7s-0.7-1.1-0.7-1.8v-16.4c0-0.8,0.2-1.4,0.7-1.8
				c0.4-0.5,1-0.7,1.8-0.7h11.1v2.4h-10.3c-0.2,0-0.4,0.1-0.4,0.4v6.2h8.8v2.4h-8.8v7.4c0,0.2,0.1,0.4,0.4,0.4h10.3V184.3z"/>
			<path class="st2" d="M562.6,174.5c1.1,0.5,1.9,1.3,2.4,2.4s0.8,2.2,0.8,3.6v3.8h-2.9v-3.6c0-1.7-0.4-3-1.2-3.9
				c-0.8-0.8-2-1.3-3.5-1.3h-4.3v8.7H551v-18.9c0-0.8,0.2-1.4,0.7-1.8c0.4-0.5,1-0.7,1.8-0.7h4.9c2.6,0,4.5,0.6,5.6,1.7
				c1.2,1.2,1.7,2.7,1.7,4.7c0,1.2-0.2,2.3-0.7,3.3C564.6,173.4,563.8,174.1,562.6,174.5z M553.9,173.1h4.5c1.7,0,2.9-0.4,3.5-1.1
				c0.6-0.7,1-1.7,1-2.9s-0.3-2.2-1-2.9c-0.7-0.7-1.8-1.1-3.5-1.1h-4.2c-0.2,0-0.4,0.1-0.4,0.4V173.1z"/>
			<path class="st2" d="M573.1,184.3h-2.8v-21.5h2.8V184.3z"/>
			<path class="st2" d="M577.4,184.3v-19c0-0.8,0.2-1.4,0.7-1.8c0.4-0.5,1-0.7,1.8-0.7h11v2.4h-10.3c-0.2,0-0.4,0.1-0.4,0.4v6.2h8.8
				v2.4h-8.8v10.2H577.4z"/>
			<path class="st2" d="M607.8,178.6c0,1.9-0.6,3.3-1.9,4.4c-1.3,1-3.2,1.5-5.8,1.5c-1,0-2-0.1-2.8-0.3c-0.8-0.2-1.6-0.4-2.2-0.6
				c-0.7-0.3-1.3-0.5-1.9-0.9l1-2.3c0.5,0.3,1.1,0.6,1.7,0.8c0.5,0.2,1.2,0.4,1.9,0.5c0.7,0.2,1.5,0.2,2.3,0.2c1.7,0,3-0.3,3.7-0.9
				c0.8-0.6,1.2-1.5,1.2-2.7v-1.6c-0.6,0.5-1.3,0.8-2.1,1c-0.8,0.2-1.8,0.3-2.9,0.3c-2.3,0-4.1-0.6-5.4-1.9c-1.3-1.2-2-3-2-5.4v-8.1
				h2.8c0,1.3,0,2.6,0,3.9c0,1.3,0,2.6,0,3.9c0,1.8,0.4,3.1,1.2,3.9c0.8,0.8,2,1.2,3.5,1.2c0.7,0,1.4-0.1,2-0.2
				c0.6-0.1,1.1-0.3,1.5-0.6c0.4-0.3,0.8-0.7,1-1.3c0.2-0.5,0.4-1.2,0.4-2.1v-8.9h2.9V178.6z"/>
		</g>
		<path class="st0" d="M505.1,166.1c0.8,0.1,0.7,0.2-0.2,0.3c-0.2-0.1-0.5-0.2-0.7-0.2c1.5-0.3,3-0.6,4.4-0.3c0,0,0.6-0.2,0.9-0.3
			c0.5,0,0.5,0.2,0.6,0.4c0.3,0,0.7-0.1,1-0.1c-0.7-0.2-3-0.4-3-0.4c-4.2,0.4-8.3,0.7-12.2,0.9c-0.3,0.1-0.5,0.3-0.9,0.2
			c-0.3-0.1-0.6-0.1-0.9-0.1c-0.6,0-1.1,0.1-1.7,0.1c-0.2,0-0.4,0.1-0.6,0.1c0,0,0,0,0,0c-0.3,0.1-0.2,0.2,0,0.2
			c0.2,0,0.4,0.1,0.6,0.2c-0.1,0-0.4-0.1-0.6-0.2c-0.3-0.1-0.6-0.1-0.9-0.1c0.3,0,0.6-0.1,1-0.2c0.1,0,0.2,0,0.3-0.1
			c-1.3,0.1-2.6,0.2-3.9,0.2c-0.3,0-0.6,0.1-0.8,0.1c-0.9,0.2-1.9,0.3-2.5,0.1c-0.2,0-0.5,0-0.7,0c0,0,0.1,0,0.1,0
			c-0.1,0-0.2,0-0.3,0c-1,0.1-2,0.1-3,0.2c-1.9,0.1-3.9,0.2-5.9,0.3c-12.8,0.7-24.6,1.7-37.9,2.5c-7.2,0.4-14.1,0.7-21,1
			c-13.6,0.4-25.8,2.2-39.6,1.9c-5.3-0.1-15,1-20,1.5c-6.6,1.5-2.8,3.6-2.4,3.7c4.4,1.7,7.5,0.3,16.2,0.9c-5.9-0.2,4.1-1.7,9.7-0.7
			c8.2,1.5,19.2-1.1,29-1.4c2.5-0.1,5-0.4,7.9-0.6c15.2-0.5,29-2.5,44.9-3.7c4.2-0.3,7.8-1.2,11.3-1.7c2.6-0.3,5.4-0.3,7.5-0.4
			c3.3-0.3,6.1-0.7,8.8-1.2c-3,0.4-5.2,0.7-8.6,1c-2.3,0.2,1.5-0.9,2.9-1.1c0.6-0.2,1.7,0.4,2.3,0.2c1.4-0.1,2.6-0.5,4.1-0.8
			c0.6-0.2,0.6,0.4,0.9,0.3c2-0.3,3.5-1.1,4.8-1.1c1,0,1.9,0,2.8,0c0.6,0,1.1,0,1.7-0.1c0.4-0.1,0.7-0.2,1.1-0.2
			c2.6-0.6,5.7-1.1,8.5-1.6c0,0,0,0,0,0C508.6,166.2,506.9,166.3,505.1,166.1z M474.4,167.9c1.2-0.3,2.2-0.2,3.1,0
			C476.6,168.1,475.4,168.1,474.4,167.9z"/>
		<g class="st3">
			<defs>
				<path id="SVGID_00000099638181995020498100000009443433285078266508_" class="st3" d="M505.1,166.1c0.8,0.1,0.7,0.2-0.2,0.3
					c-0.2-0.1-0.5-0.2-0.7-0.2c1.5-0.3,3-0.6,4.4-0.3c0,0,0.6-0.2,0.9-0.3c0.5,0,0.5,0.2,0.6,0.4c0.3,0,0.7-0.1,1-0.1
					c-0.7-0.2-3-0.4-3-0.4c-4.2,0.4-8.3,0.7-12.2,0.9c-0.3,0.1-0.5,0.3-0.9,0.2c-0.3-0.1-0.6-0.1-0.9-0.1c-0.6,0-1.1,0.1-1.7,0.1
					c-0.2,0-0.4,0.1-0.6,0.1c0,0,0,0,0,0c-0.3,0.1-0.2,0.2,0,0.2c0.2,0,0.4,0.1,0.6,0.2c-0.1,0-0.4-0.1-0.6-0.2
					c-0.3-0.1-0.6-0.1-0.9-0.1c0.3,0,0.6-0.1,1-0.2c0.1,0,0.2,0,0.3-0.1c-1.3,0.1-2.6,0.2-3.9,0.2c-0.3,0-0.6,0.1-0.8,0.1
					c-0.9,0.2-1.9,0.3-2.5,0.1c-0.2,0-0.5,0-0.7,0c0,0,0.1,0,0.1,0c-0.1,0-0.2,0-0.3,0c-1,0.1-2,0.1-3,0.2c-1.9,0.1-3.9,0.2-5.9,0.3
					c-12.8,0.7-24.6,1.7-37.9,2.5c-7.2,0.4-14.1,0.7-21,1c-13.6,0.4-25.8,2.2-39.6,1.9c-5.3-0.1-15,1-20,1.5
					c-6.6,1.5-2.8,3.6-2.4,3.7c4.4,1.7,7.5,0.3,16.2,0.9c-5.9-0.2,4.1-1.7,9.7-0.7c8.2,1.5,19.2-1.1,29-1.4c2.5-0.1,5-0.4,7.9-0.6
					c15.2-0.5,29-2.5,44.9-3.7c4.2-0.3,7.8-1.2,11.3-1.7c2.6-0.3,5.4-0.3,7.5-0.4c3.3-0.3,6.1-0.7,8.8-1.2c-3,0.4-5.2,0.7-8.6,1
					c-2.3,0.2,1.5-0.9,2.9-1.1c0.6-0.2,1.7,0.4,2.3,0.2c1.4-0.1,2.6-0.5,4.1-0.8c0.6-0.2,0.6,0.4,0.9,0.3c2-0.3,3.5-1.1,4.8-1.1
					c1,0,1.9,0,2.8,0c0.6,0,1.1,0,1.7-0.1c0.4-0.1,0.7-0.2,1.1-0.2c2.6-0.6,5.7-1.1,8.5-1.6c0,0,0,0,0,0
					C508.6,166.2,506.9,166.3,505.1,166.1z M474.4,167.9c1.2-0.3,2.2-0.2,3.1,0C476.6,168.1,475.4,168.1,474.4,167.9z"/>
			</defs>
			<use xlink:href="#SVGID_00000099638181995020498100000009443433285078266508_"  style="overflow:visible;fill:#C10230;"/>
			<clipPath id="SVGID_00000005959401192933738260000014967884116894115980_">
				<use xlink:href="#SVGID_00000099638181995020498100000009443433285078266508_"  style="overflow:visible;"/>
			</clipPath>
			<g style="clip-path:url(#SVGID_00000005959401192933738260000014967884116894115980_);">
				<polygon class="st2" points="356.4,165.2 363,165.2 363,184.3 365.8,184.3 365.8,165.2 372.4,165.2 372.4,162.8 356.4,162.8 
									"/>
				<path class="st2" d="M388.8,172.4c0.5-1,0.7-2,0.7-3.3c0-1.9-0.6-3.5-1.7-4.7c-1.2-1.2-3-1.7-5.6-1.7h-4.9
					c-0.8,0-1.4,0.2-1.8,0.7c-0.4,0.5-0.7,1.1-0.7,1.8v18.9h2.8v-8.7h4.3c1.5,0,2.6,0.4,3.5,1.3c0.8,0.8,1.2,2.1,1.2,3.9v3.6h2.9
					v-3.8c0-1.4-0.3-2.5-0.8-3.6s-1.3-1.8-2.4-2.4C387.5,174.1,388.3,173.4,388.8,172.4z M385.7,172.1c-0.7,0.7-1.8,1.1-3.5,1.1
					h-4.5v-7.6c0-0.2,0.1-0.4,0.4-0.4h4.2c1.7,0,2.9,0.4,3.5,1.1c0.6,0.7,1,1.7,1,2.9S386.3,171.3,385.7,172.1z"/>
				<path class="st2" d="M405.8,176.9c0,1.8-0.4,3.1-1.3,3.9c-0.9,0.8-2.1,1.2-3.6,1.2c-1.5,0-2.7-0.4-3.5-1.2
					c-0.8-0.8-1.3-2.1-1.3-3.9v-14.2h-2.9v14.4c0,2.3,0.7,4.1,2.1,5.4c1.4,1.3,3.2,1.9,5.6,1.9c2.5,0,4.4-0.6,5.7-1.9
					c1.3-1.3,2-3.1,2-5.4v-14.4h-2.8V176.9z"/>
				<path class="st2" d="M425.6,173.8c-0.5-0.5-1.2-0.8-2-1c-0.8-0.2-1.6-0.4-2.5-0.5l-2.7-0.2c-1.2-0.1-2.1-0.4-2.7-1
					c-0.7-0.5-1-1.3-1-2.4c0-1.1,0.4-2,1.2-2.7c0.8-0.7,1.9-1,3.3-1c1.1,0,2.1,0.1,3,0.4c0.9,0.3,1.8,0.7,2.6,1.2l1.1-2.3
					c-0.8-0.5-1.7-0.9-2.9-1.2c-1.2-0.3-2.5-0.5-3.7-0.5c-1.1,0-2.1,0.2-3,0.5c-0.9,0.3-1.7,0.7-2.3,1.3c-0.6,0.5-1.1,1.2-1.5,1.9
					c-0.3,0.7-0.5,1.6-0.5,2.5c0,1.8,0.5,3.2,1.6,4.1c1.1,1,2.7,1.5,4.7,1.7l2.7,0.2c1.2,0.1,2.1,0.4,2.7,1c0.5,0.6,0.8,1.4,0.8,2.4
					c0,2.6-1.7,3.9-5.2,3.9c-1.3,0-2.5-0.2-3.6-0.6c-1.1-0.4-2-1-2.7-1.7l-1.2,2.6c0.9,0.7,2,1.3,3.2,1.7c1.2,0.4,2.7,0.6,4.4,0.6
					c2.5,0,4.4-0.6,5.9-1.7c1.4-1.1,2.2-2.7,2.2-4.6c0-1-0.1-1.9-0.4-2.6S426.1,174.3,425.6,173.8z"/>
				<polygon class="st2" points="428.5,165.2 435.1,165.2 435.1,184.3 438,184.3 438,165.2 444.5,165.2 444.5,162.8 428.5,162.8 
									"/>
				<path class="st2" d="M466.3,172.8c0.7-0.4,1.3-0.9,1.7-1.7c0.4-0.7,0.6-1.6,0.6-2.5c0-0.9-0.1-1.7-0.4-2.4
					c-0.2-0.7-0.6-1.3-1.2-1.8c-0.5-0.5-1.2-0.9-2.1-1.2c-0.8-0.3-1.9-0.4-3.1-0.4h-4.9c-0.8,0-1.4,0.2-1.8,0.7
					c-0.5,0.5-0.7,1.1-0.7,1.8v16.4c0,0.8,0.2,1.4,0.7,1.8c0.4,0.5,1.1,0.7,1.8,0.7h4.9c2.6,0,4.5-0.6,5.6-1.7
					c1.1-1.2,1.7-2.7,1.7-4.7c0-1.1-0.2-2.2-0.7-3C468,173.9,467.2,173.3,466.3,172.8z M457.3,165.5c0-0.2,0.1-0.4,0.4-0.4h4.2
					c1.5,0,2.5,0.3,3,0.9c0.5,0.6,0.8,1.5,0.8,2.5c0,1-0.3,1.8-0.9,2.3c-0.6,0.5-1.6,0.8-3,0.8h-4.5V165.5z M466.1,179.5
					c-0.2,0.5-0.4,0.9-0.7,1.3c-0.3,0.4-0.8,0.6-1.4,0.8c-0.6,0.2-1.3,0.3-2.1,0.3h-4.2c-0.2,0-0.4-0.1-0.4-0.4v-7.4h4.5
					c1.7,0,2.8,0.3,3.5,1c0.6,0.7,1,1.6,1,2.8C466.3,178.5,466.2,179,466.1,179.5z"/>
				<path class="st2" d="M485,176.9c0,1.8-0.4,3.1-1.3,3.9c-0.9,0.8-2.1,1.2-3.6,1.2s-2.7-0.4-3.5-1.2s-1.3-2.1-1.3-3.9v-14.2h-2.9
					v14.4c0,2.3,0.7,4.1,2.1,5.4c1.4,1.3,3.2,1.9,5.6,1.9c2.5,0,4.4-0.6,5.7-1.9c1.3-1.3,2-3.1,2-5.4v-14.4H485V176.9z"/>
				<polygon class="st2" points="489.9,165.2 496.5,165.2 496.5,184.3 499.4,184.3 499.4,165.2 505.9,165.2 505.9,162.8 
					489.9,162.8 				"/>
				<path class="st2" d="M525.1,180c-0.1,0.6-0.3,1.1-0.7,1.5c-0.3,0.4-0.8,0.6-1.4,0.6c-0.6,0-1.1-0.2-1.4-0.6
					c-0.3-0.4-0.5-0.9-0.6-1.5l-3.4-17.2h-2.8l3.6,17.9c0.2,1.2,0.7,2.1,1.5,2.8c0.8,0.7,1.8,1,3.1,1c1.3,0,2.3-0.3,3.1-1
					c0.8-0.7,1.3-1.6,1.5-2.8l3.6-17.9h-2.8L525.1,180z"/>
				<path class="st2" d="M534.9,163.5c-0.4,0.5-0.7,1.1-0.7,1.8v16.4c0,0.8,0.2,1.4,0.7,1.8s1,0.7,1.8,0.7h11.1v-2.4h-10.3
					c-0.2,0-0.4-0.1-0.4-0.4v-7.4h8.8v-2.4h-8.8v-6.2c0-0.2,0.1-0.4,0.4-0.4h10.3v-2.4h-11.1C535.9,162.8,535.3,163,534.9,163.5z"/>
				<path class="st2" d="M565.1,172.4c0.5-1,0.7-2,0.7-3.3c0-1.9-0.6-3.5-1.7-4.7c-1.2-1.2-3-1.7-5.6-1.7h-4.9
					c-0.8,0-1.4,0.2-1.8,0.7c-0.4,0.5-0.7,1.1-0.7,1.8v18.9h2.8v-8.7h4.3c1.5,0,2.6,0.4,3.5,1.3c0.8,0.8,1.2,2.1,1.2,3.9v3.6h2.9
					v-3.8c0-1.4-0.3-2.5-0.8-3.6s-1.3-1.8-2.4-2.4C563.8,174.1,564.6,173.4,565.1,172.4z M561.9,172.1c-0.7,0.7-1.8,1.1-3.5,1.1
					h-4.5v-7.6c0-0.2,0.1-0.4,0.4-0.4h4.2c1.7,0,2.9,0.4,3.5,1.1c0.6,0.7,1,1.7,1,2.9S562.6,171.3,561.9,172.1z"/>
				<rect x="570.3" y="162.8" class="st2" width="2.8" height="21.5"/>
				<path class="st2" d="M578.1,163.5c-0.4,0.5-0.7,1.1-0.7,1.8v19h2.8v-10.2h8.8v-2.4h-8.8v-6.2c0-0.2,0.1-0.4,0.4-0.4h10.3v-2.4
					h-11C579.1,162.8,578.5,163,578.1,163.5z"/>
				<path class="st2" d="M604.9,162.8v8.9c0,0.8-0.1,1.5-0.4,2.1c-0.2,0.5-0.6,1-1,1.3c-0.4,0.3-0.9,0.5-1.5,0.6
					c-0.6,0.1-1.3,0.2-2,0.2c-1.5,0-2.7-0.4-3.5-1.2c-0.8-0.8-1.2-2.1-1.2-3.9c0-1.3,0-2.6,0-3.9c0-1.3,0-2.6,0-3.9h-2.8v8.1
					c0,2.4,0.7,4.2,2,5.4c1.3,1.2,3.1,1.9,5.4,1.9c1.1,0,2.1-0.1,2.9-0.3c0.8-0.2,1.5-0.6,2.1-1v1.6c0,1.2-0.4,2.1-1.2,2.7
					c-0.8,0.6-2,0.9-3.7,0.9c-0.8,0-1.6-0.1-2.3-0.2c-0.7-0.2-1.3-0.3-1.9-0.5c-0.6-0.2-1.2-0.5-1.7-0.8l-1,2.3
					c0.6,0.3,1.2,0.6,1.9,0.9c0.6,0.2,1.3,0.4,2.2,0.6c0.8,0.2,1.8,0.3,2.8,0.3c2.6,0,4.6-0.5,5.8-1.5c1.3-1,1.9-2.5,1.9-4.4v-15.8
					H604.9z"/>
			</g>
		</g>
	</g>
</g>
</svg>
