<?xml version="1.0" encoding="utf-8"?>
<!-- Generator: Adobe Illustrator 25.4.1, SVG Export Plug-In . SVG Version: 6.00 Build 0)  -->
<svg version="1.1" xmlns="http://www.w3.org/2000/svg" xmlns:xlink="http://www.w3.org/1999/xlink" x="0px" y="0px"
	 viewBox="0 0 425.5 446.9" style="enable-background:new 0 0 425.5 446.9;" xml:space="preserve">
<style type="text/css">
	.st0{fill:#54565A;}
	.st1{fill:#C10230;}
	.st2{opacity:0.25;}
	.st3{clip-path:url(#SVGID_00000048470613125586607720000008237461437007305358_);}
	.st4{opacity:0.58;fill:url(#SVGID_00000138560130772702958350000011502813263495821207_);}
</style>
<g id="Layer_1">
	<g>
		<path class="st0" d="M68.9,371.2v-37.3h7.7v14h16.8v-14h7.6v37.3h-7.6v-16.4H76.5v16.4H68.9z"/>
		<path class="st0" d="M111.6,338.8c3.7-3.8,8.3-5.6,13.8-5.6c5.5,0,10.1,1.9,13.8,5.6c3.7,3.7,5.5,8.3,5.5,13.7
			c0,5.4-1.9,10-5.5,13.7c-3.7,3.8-8.3,5.6-13.8,5.6c-5.5,0-10.2-1.9-13.8-5.6c-3.7-3.8-5.5-8.4-5.5-13.7
			C106.1,347.1,107.9,342.6,111.6,338.8z M125.4,364.8c3.3,0,6-1.2,8.2-3.5c2.2-2.3,3.3-5.2,3.3-8.7c0-3.5-1.1-6.4-3.3-8.7
			c-2.2-2.3-4.9-3.5-8.2-3.5c-3.3,0-6.1,1.2-8.3,3.5c-2.2,2.3-3.2,5.2-3.2,8.7c0,3.5,1.1,6.4,3.2,8.7
			C119.4,363.6,122.1,364.8,125.4,364.8z"/>
		<path class="st0" d="M149.8,371.2v-37.3h17.3c3.9,0,7.1,1,9.4,3.1c2.3,2,3.5,4.7,3.5,7.9c0,5-2.9,8.8-7.7,10.3l11.5,15.9h-8.9
			L164,356.1h-6.4v15.1H149.8z M157.5,349.7h9.2c3.5,0,5.5-1.6,5.5-4.5c0-2.8-2.1-4.5-5.5-4.5h-9.2V349.7z"/>
		<path class="st0" d="M187.1,371.2v-37.3h7.6v37.3H187.1z"/>
		<path class="st0" d="M199,371.2v-5.4l19.4-25h-18.5v-6.9h28.9v5.4l-19.3,25h20.2v6.9H199z"/>
		<path class="st0" d="M236.9,338.8c3.7-3.8,8.3-5.6,13.8-5.6c5.5,0,10.1,1.9,13.8,5.6c3.7,3.7,5.5,8.3,5.5,13.7
			c0,5.4-1.9,10-5.5,13.7c-3.7,3.8-8.3,5.6-13.8,5.6c-5.5,0-10.2-1.9-13.8-5.6c-3.7-3.8-5.5-8.4-5.5-13.7
			C231.5,347.1,233.3,342.6,236.9,338.8z M250.8,364.8c3.3,0,6-1.2,8.2-3.5c2.2-2.3,3.3-5.2,3.3-8.7c0-3.5-1.1-6.4-3.3-8.7
			c-2.2-2.3-4.9-3.5-8.2-3.5c-3.3,0-6.1,1.2-8.3,3.5c-2.2,2.3-3.2,5.2-3.2,8.7c0,3.5,1.1,6.4,3.2,8.7
			C244.7,363.6,247.5,364.8,250.8,364.8z"/>
		<path class="st0" d="M275.2,371.2v-37.3h6.6l18.8,23.9v-23.9h7.5v37.3h-6.3l-19-24v24H275.2z"/>
		<path class="st0" d="M312.4,369v-7.3c3.3,2.3,6.9,3.4,10.9,3.4c4.4,0,7.8-2.3,7.8-6.2c0-3.6-2.9-6.1-7.4-6.1c-1.8,0-3.5,0.3-5.3,1
			v-5.1l8.9-8.2h-13.7v-6.6h23.5v5.8l-8.4,7.7c2.7,0.5,5,1.7,7,3.7c2,2,3,4.5,3,7.8c0,4-1.4,7.1-4.3,9.5c-2.9,2.4-6.4,3.6-10.7,3.6
			C319.3,372,315.5,371,312.4,369z"/>
		<path class="st0" d="M343.5,366.8c1.1-1.1,2.9-1.1,3.9,0c1.1,1.1,1.1,2.9,0,3.9c-1.1,1.1-2.9,1.1-3.9,0
			C342.4,369.7,342.4,367.9,343.5,366.8z"/>
		<path class="st0" d="M354.8,369.6c-1.9-1.5-2.8-3.6-2.8-6.3c0-2.6,1-4.7,3-6.2c2-1.5,4.5-2.3,7.6-2.3c3.4,0,6.4,0.9,9.3,2.5v-2.6
			c0-4.3-2.8-6.4-8.5-6.4c-3,0-5.8,0.9-8.4,2.6v-3.7c2.5-1.5,5.5-2.3,9.2-2.3c6.9,0,11.5,3.3,11.5,9.5V365c0,2,1,3.2,2.5,3.2
			c0.6,0,1.1-0.1,1.5-0.3v3c-0.5,0.4-1.4,0.6-2.6,0.6c-2.5,0-4.4-1.3-4.8-4.1c-2.6,3-6.1,4.5-10.4,4.5
			C359.1,371.9,356.7,371.1,354.8,369.6z M371.8,364.1v-3.6c-2.6-1.7-5.4-2.6-8.4-2.6c-4.7,0-7.6,2-7.6,5.2c0,3.5,3,5.3,7,5.3
			C366.5,368.4,370,366.4,371.8,364.1z"/>
		<path class="st0" d="M382.7,334.7c1.1-1.1,2.8-1.1,3.8,0c1.1,1.1,1.1,2.8,0,3.8c-1.1,1-2.8,1-3.8,0
			C381.7,337.5,381.7,335.8,382.7,334.7z M382.7,371.2v-25.7h3.8v25.7H382.7z"/>
	</g>
	<g>
		<g>
			<path class="st0" d="M146.7,394.3h-5v14.4h-2.1v-14.4h-5v-1.8h12.1V394.3z"/>
			<path class="st0" d="M157.2,401.3c0.8,0.4,1.4,1,1.8,1.8c0.4,0.8,0.6,1.7,0.6,2.7v2.9h-2.2V406c0-1.3-0.3-2.3-0.9-2.9
				c-0.6-0.6-1.5-1-2.6-1h-3.3v6.6h-2.1v-14.3c0-0.6,0.2-1,0.5-1.4c0.3-0.4,0.8-0.5,1.4-0.5h3.7c2,0,3.4,0.4,4.3,1.3
				c0.9,0.9,1.3,2,1.3,3.5c0,0.9-0.2,1.7-0.5,2.5C158.7,400.5,158.1,401,157.2,401.3z M150.7,400.3h3.4c1.3,0,2.2-0.3,2.7-0.8
				c0.5-0.5,0.7-1.3,0.7-2.2c0-0.9-0.2-1.6-0.7-2.2c-0.5-0.5-1.4-0.8-2.7-0.8h-3.1c-0.2,0-0.3,0.1-0.3,0.3V400.3z"/>
			<path class="st0" d="M168.2,408.8c-1.8,0-3.2-0.5-4.2-1.4c-1-1-1.6-2.3-1.6-4.1v-10.9h2.2v10.7c0,1.3,0.3,2.3,1,2.9
				s1.5,0.9,2.6,0.9s2-0.3,2.7-0.9c0.7-0.6,1-1.6,1-2.9v-10.7h2.1v10.9c0,1.8-0.5,3.1-1.5,4.1C171.5,408.4,170.1,408.8,168.2,408.8z
				"/>
			<path class="st0" d="M185.3,400c0.6,0.2,1.1,0.4,1.5,0.8c0.4,0.3,0.7,0.8,1,1.3c0.2,0.5,0.3,1.2,0.3,1.9c0,1.5-0.5,2.6-1.6,3.5
				c-1.1,0.9-2.6,1.3-4.4,1.3c-1.3,0-2.4-0.1-3.3-0.4c-0.9-0.3-1.7-0.7-2.4-1.2l0.9-1.9c0.6,0.5,1.2,1,2,1.3
				c0.8,0.3,1.7,0.5,2.7,0.5c2.6,0,3.9-1,3.9-2.9c0-0.8-0.2-1.4-0.6-1.8c-0.4-0.4-1.1-0.7-2-0.8l-2-0.2c-1.6-0.1-2.8-0.6-3.6-1.3
				c-0.8-0.7-1.2-1.8-1.2-3.1c0-0.7,0.1-1.3,0.4-1.9c0.3-0.6,0.6-1,1.1-1.5c0.5-0.4,1.1-0.7,1.8-1c0.7-0.2,1.5-0.3,2.3-0.3
				c1,0,1.9,0.1,2.8,0.4c0.9,0.3,1.7,0.6,2.2,0.9l-0.8,1.8c-0.6-0.4-1.2-0.7-1.9-0.9c-0.7-0.2-1.5-0.3-2.3-0.3
				c-1.1,0-1.9,0.3-2.5,0.8c-0.6,0.5-0.9,1.2-0.9,2.1c0,0.8,0.2,1.4,0.7,1.8c0.5,0.4,1.2,0.7,2,0.7l2,0.2
				C184.1,399.7,184.8,399.8,185.3,400z"/>
			<path class="st0" d="M201.1,394.3h-5v14.4H194v-14.4h-5v-1.8h12.1V394.3z"/>
			<path class="st0" d="M217.5,400.1c0.8,0.3,1.3,0.8,1.7,1.5s0.5,1.4,0.5,2.3c0,1.5-0.4,2.6-1.3,3.5c-0.9,0.9-2.3,1.3-4.2,1.3h-3.7
				c-0.6,0-1-0.2-1.4-0.5c-0.3-0.3-0.5-0.8-0.5-1.4v-12.4c0-0.6,0.2-1,0.5-1.4c0.3-0.4,0.8-0.5,1.4-0.5h3.7c0.9,0,1.7,0.1,2.3,0.3
				c0.6,0.2,1.2,0.5,1.6,0.9c0.4,0.4,0.7,0.8,0.9,1.4c0.2,0.5,0.3,1.2,0.3,1.8c0,0.7-0.1,1.3-0.4,1.9
				C218.4,399.3,218,399.8,217.5,400.1z M214.1,399.2c1.1,0,1.8-0.2,2.3-0.6c0.4-0.4,0.6-1,0.6-1.7c0-0.8-0.2-1.4-0.6-1.9
				c-0.4-0.5-1.2-0.7-2.3-0.7H211c-0.2,0-0.3,0.1-0.3,0.3v4.7H214.1z M214.1,406.9c0.6,0,1.2-0.1,1.6-0.2c0.4-0.1,0.8-0.3,1-0.6
				c0.3-0.3,0.4-0.6,0.6-1c0.1-0.4,0.2-0.8,0.2-1.2c0-0.9-0.2-1.6-0.7-2.1c-0.5-0.5-1.4-0.8-2.6-0.8h-3.4v5.6c0,0.2,0.1,0.3,0.3,0.3
				H214.1z"/>
			<path class="st0" d="M227.9,408.8c-1.8,0-3.2-0.5-4.2-1.4c-1-1-1.6-2.3-1.6-4.1v-10.9h2.2v10.7c0,1.3,0.3,2.3,1,2.9
				s1.5,0.9,2.6,0.9c1.1,0,2-0.3,2.7-0.9c0.7-0.6,1-1.6,1-2.9v-10.7h2.1v10.9c0,1.8-0.5,3.1-1.5,4.1
				C231.2,408.4,229.8,408.8,227.9,408.8z"/>
			<path class="st0" d="M247.4,394.3h-5v14.4h-2.1v-14.4h-5v-1.8h12.1V394.3z"/>
			<path class="st0" d="M260.3,408.8c-1,0-1.8-0.3-2.4-0.8c-0.6-0.5-1-1.2-1.2-2.1l-2.7-13.5h2.1l2.6,13c0.1,0.5,0.3,0.8,0.5,1.1
				c0.2,0.3,0.6,0.4,1,0.4c0.4,0,0.8-0.1,1-0.4c0.3-0.3,0.4-0.7,0.5-1.1l2.5-13h2.1l-2.7,13.5c-0.2,0.9-0.6,1.6-1.2,2.1
				C262,408.6,261.3,408.8,260.3,408.8z"/>
			<path class="st0" d="M278.9,408.7h-8.3c-0.6,0-1-0.2-1.4-0.5c-0.3-0.4-0.5-0.8-0.5-1.4v-12.4c0-0.6,0.2-1,0.5-1.4
				c0.3-0.3,0.8-0.5,1.4-0.5h8.3v1.8h-7.8c-0.2,0-0.3,0.1-0.3,0.3v4.7h6.6v1.8h-6.6v5.6c0,0.2,0.1,0.3,0.3,0.3h7.8V408.7z"/>
			<path class="st0" d="M290.1,401.3c0.8,0.4,1.4,1,1.8,1.8c0.4,0.8,0.6,1.7,0.6,2.7v2.9h-2.2V406c0-1.3-0.3-2.3-0.9-2.9
				c-0.6-0.6-1.5-1-2.6-1h-3.3v6.6h-2.1v-14.3c0-0.6,0.2-1,0.5-1.4c0.3-0.4,0.8-0.5,1.4-0.5h3.7c2,0,3.4,0.4,4.3,1.3
				c0.9,0.9,1.3,2,1.3,3.5c0,0.9-0.2,1.7-0.5,2.5C291.6,400.5,290.9,401,290.1,401.3z M283.5,400.3h3.4c1.3,0,2.2-0.3,2.7-0.8
				c0.5-0.5,0.7-1.3,0.7-2.2c0-0.9-0.2-1.6-0.7-2.2c-0.5-0.5-1.4-0.8-2.7-0.8h-3.1c-0.2,0-0.3,0.1-0.3,0.3V400.3z"/>
			<path class="st0" d="M298,408.7h-2.1v-16.2h2.1V408.7z"/>
			<path class="st0" d="M301.3,408.7v-14.3c0-0.6,0.2-1,0.5-1.4c0.3-0.3,0.8-0.5,1.4-0.5h8.3v1.8h-7.7c-0.2,0-0.3,0.1-0.3,0.3v4.7
				h6.6v1.8h-6.6v7.7H301.3z"/>
			<path class="st0" d="M324.1,404.4c0,1.4-0.5,2.5-1.5,3.3c-1,0.8-2.4,1.1-4.4,1.1c-0.8,0-1.5-0.1-2.1-0.2s-1.2-0.3-1.6-0.4
				c-0.5-0.2-1-0.4-1.4-0.6l0.8-1.7c0.4,0.2,0.8,0.4,1.3,0.6c0.4,0.1,0.9,0.3,1.4,0.4c0.5,0.1,1.1,0.2,1.7,0.2
				c1.3,0,2.2-0.2,2.8-0.7c0.6-0.5,0.9-1.1,0.9-2v-1.2c-0.5,0.4-1,0.6-1.6,0.8c-0.6,0.2-1.3,0.2-2.2,0.2c-1.7,0-3.1-0.5-4.1-1.4
				c-1-0.9-1.5-2.3-1.5-4.1v-6.1h2.1c0,1,0,2,0,3s0,2,0,3c0,1.3,0.3,2.3,0.9,2.9s1.5,0.9,2.6,0.9c0.6,0,1.1,0,1.5-0.1
				c0.4-0.1,0.8-0.3,1.2-0.5s0.6-0.6,0.7-1c0.2-0.4,0.3-0.9,0.3-1.6v-6.7h2.2V404.4z"/>
		</g>
		<path class="st1" d="M246.8,395c0.6,0,0.5,0.2-0.1,0.3c-0.2-0.1-0.4-0.1-0.5-0.2c1.1-0.2,2.2-0.4,3.3-0.2c0,0,0.5-0.1,0.7-0.2
			c0.4,0,0.4,0.2,0.5,0.3c0.2,0,0.5-0.1,0.7-0.1c-0.6-0.2-2.3-0.3-2.3-0.3c-3.2,0.3-6.2,0.5-9.2,0.7c-0.2,0.1-0.4,0.2-0.7,0.2
			c-0.2-0.1-0.5-0.1-0.7-0.1c-0.4,0-0.9,0.1-1.3,0.1c-0.1,0-0.3,0-0.4,0.1c0,0,0,0,0,0c-0.2,0.1-0.2,0.1,0,0.2
			c0.2,0,0.3,0.1,0.5,0.1c-0.1,0-0.3-0.1-0.5-0.1c-0.2,0-0.4-0.1-0.7-0.1c0.2,0,0.5-0.1,0.7-0.1c0.1,0,0.1,0,0.2-0.1
			c-1,0.1-2,0.1-2.9,0.2c-0.2,0-0.4,0.1-0.6,0.1c-0.7,0.1-1.4,0.2-1.9,0.1c-0.2,0-0.3,0-0.5,0c0,0,0.1,0,0.1,0c-0.1,0-0.1,0-0.2,0
			c-0.7,0-1.5,0.1-2.2,0.1c-1.5,0.1-2.9,0.2-4.4,0.2c-9.7,0.5-18.6,1.3-28.6,1.9c-5.4,0.3-10.7,0.6-15.8,0.7
			c-10.2,0.3-19.4,1.7-29.9,1.4c-4-0.1-11.3,0.7-15.1,1.1c-5,1.1-2.1,2.7-1.8,2.8c3.4,1.3,5.7,0.2,12.2,0.6
			c-4.4-0.2,3.1-1.3,7.3-0.5c6.2,1.1,14.5-0.8,21.8-1c1.8,0,3.8-0.3,6-0.4c11.4-0.4,21.9-1.9,33.8-2.8c3.2-0.3,5.9-0.9,8.5-1.3
			c1.9-0.2,4-0.2,5.6-0.3c2.5-0.2,4.6-0.5,6.6-0.9c-2.3,0.3-3.9,0.5-6.5,0.8c-1.7,0.2,1.1-0.6,2.2-0.9c0.5-0.1,1.3,0.3,1.8,0.1
			c1.1-0.1,2-0.4,3.1-0.6c0.5-0.1,0.5,0.3,0.7,0.2c1.5-0.2,2.6-0.9,3.6-0.8c0.8,0,1.4,0,2.1,0c0.4,0,0.8,0,1.3-0.1
			c0.3-0.1,0.5-0.1,0.8-0.2c2-0.4,4.3-0.8,6.4-1.2c0,0,0,0,0,0C249.4,395.1,248.1,395.1,246.8,395z M223.6,396.3
			c0.9-0.3,1.7-0.1,2.4,0C225.3,396.5,224.4,396.5,223.6,396.3z"/>
		<g class="st2">
			<defs>
				<path id="SVGID_1_" class="st2" d="M246.8,395c0.6,0,0.5,0.2-0.1,0.3c-0.2-0.1-0.4-0.1-0.5-0.2c1.1-0.2,2.2-0.4,3.3-0.2
					c0,0,0.5-0.1,0.7-0.2c0.4,0,0.4,0.2,0.5,0.3c0.2,0,0.5-0.1,0.7-0.1c-0.6-0.2-2.3-0.3-2.3-0.3c-3.2,0.3-6.2,0.5-9.2,0.7
					c-0.2,0.1-0.4,0.2-0.7,0.2c-0.2-0.1-0.5-0.1-0.7-0.1c-0.4,0-0.9,0.1-1.3,0.1c-0.1,0-0.3,0-0.4,0.1c0,0,0,0,0,0
					c-0.2,0.1-0.2,0.1,0,0.2c0.2,0,0.3,0.1,0.5,0.1c-0.1,0-0.3-0.1-0.5-0.1c-0.2,0-0.4-0.1-0.7-0.1c0.2,0,0.5-0.1,0.7-0.1
					c0.1,0,0.1,0,0.2-0.1c-1,0.1-2,0.1-2.9,0.2c-0.2,0-0.4,0.1-0.6,0.1c-0.7,0.1-1.4,0.2-1.9,0.1c-0.2,0-0.3,0-0.5,0
					c0,0,0.1,0,0.1,0c-0.1,0-0.1,0-0.2,0c-0.7,0-1.5,0.1-2.2,0.1c-1.5,0.1-2.9,0.2-4.4,0.2c-9.7,0.5-18.6,1.3-28.6,1.9
					c-5.4,0.3-10.7,0.6-15.8,0.7c-10.2,0.3-19.4,1.7-29.9,1.4c-4-0.1-11.3,0.7-15.1,1.1c-5,1.1-2.1,2.7-1.8,2.8
					c3.4,1.3,5.7,0.2,12.2,0.6c-4.4-0.2,3.1-1.3,7.3-0.5c6.2,1.1,14.5-0.8,21.8-1c1.8,0,3.8-0.3,6-0.4c11.4-0.4,21.9-1.9,33.8-2.8
					c3.2-0.3,5.9-0.9,8.5-1.3c1.9-0.2,4-0.2,5.6-0.3c2.5-0.2,4.6-0.5,6.6-0.9c-2.3,0.3-3.9,0.5-6.5,0.8c-1.7,0.2,1.1-0.6,2.2-0.9
					c0.5-0.1,1.3,0.3,1.8,0.1c1.1-0.1,2-0.4,3.1-0.6c0.5-0.1,0.5,0.3,0.7,0.2c1.5-0.2,2.6-0.9,3.6-0.8c0.8,0,1.4,0,2.1,0
					c0.4,0,0.8,0,1.3-0.1c0.3-0.1,0.5-0.1,0.8-0.2c2-0.4,4.3-0.8,6.4-1.2c0,0,0,0,0,0C249.4,395.1,248.1,395.1,246.8,395z
					 M223.6,396.3c0.9-0.3,1.7-0.1,2.4,0C225.3,396.5,224.4,396.5,223.6,396.3z"/>
			</defs>
			<clipPath id="SVGID_00000098189662857667146420000011738714914514026679_">
				<use xlink:href="#SVGID_1_"  style="overflow:visible;"/>
			</clipPath>
			<g style="clip-path:url(#SVGID_00000098189662857667146420000011738714914514026679_);">
				<polygon class="st0" points="134.6,394.3 139.6,394.3 139.6,408.7 141.8,408.7 141.8,394.3 146.7,394.3 146.7,392.5 
					134.6,392.5 				"/>
				<path class="st0" d="M159.1,399.7c0.4-0.7,0.5-1.5,0.5-2.5c0-1.5-0.4-2.6-1.3-3.5c-0.9-0.9-2.3-1.3-4.3-1.3h-3.7
					c-0.6,0-1,0.2-1.4,0.5c-0.3,0.4-0.5,0.8-0.5,1.4v14.3h2.1v-6.6h3.3c1.1,0,2,0.3,2.6,1c0.6,0.6,0.9,1.6,0.9,2.9v2.7h2.2v-2.9
					c0-1-0.2-1.9-0.6-2.7c-0.4-0.8-1-1.4-1.8-1.8C158.1,401,158.7,400.5,159.1,399.7z M156.7,399.5c-0.5,0.5-1.4,0.8-2.7,0.8h-3.4
					v-5.7c0-0.2,0.1-0.3,0.3-0.3h3.1c1.3,0,2.2,0.3,2.7,0.8c0.5,0.5,0.7,1.3,0.7,2.2C157.5,398.2,157.2,398.9,156.7,399.5z"/>
				<path class="st0" d="M171.9,403.2c0,1.3-0.3,2.3-1,2.9c-0.7,0.6-1.6,0.9-2.7,0.9s-2-0.3-2.6-0.9s-1-1.6-1-2.9v-10.7h-2.2v10.9
					c0,1.8,0.5,3.1,1.6,4.1c1,1,2.4,1.4,4.2,1.4c1.9,0,3.3-0.5,4.3-1.4c1-1,1.5-2.3,1.5-4.1v-10.9h-2.1V403.2z"/>
				<path class="st0" d="M186.8,400.8c-0.4-0.3-0.9-0.6-1.5-0.8c-0.6-0.2-1.2-0.3-1.9-0.4l-2-0.2c-0.9-0.1-1.6-0.3-2-0.7
					c-0.5-0.4-0.7-1-0.7-1.8c0-0.9,0.3-1.5,0.9-2.1c0.6-0.5,1.4-0.8,2.5-0.8c0.8,0,1.6,0.1,2.3,0.3c0.7,0.2,1.4,0.5,1.9,0.9l0.8-1.8
					c-0.6-0.4-1.3-0.7-2.2-0.9c-0.9-0.3-1.8-0.4-2.8-0.4c-0.8,0-1.6,0.1-2.3,0.3c-0.7,0.2-1.3,0.6-1.8,1c-0.5,0.4-0.9,0.9-1.1,1.5
					c-0.3,0.6-0.4,1.2-0.4,1.9c0,1.3,0.4,2.4,1.2,3.1c0.8,0.7,2,1.2,3.6,1.3l2,0.2c0.9,0.1,1.6,0.3,2,0.8c0.4,0.4,0.6,1,0.6,1.8
					c0,1.9-1.3,2.9-3.9,2.9c-1,0-1.9-0.2-2.7-0.5c-0.8-0.3-1.5-0.8-2-1.3l-0.9,1.9c0.7,0.5,1.5,1,2.4,1.2c0.9,0.3,2,0.4,3.3,0.4
					c1.9,0,3.4-0.4,4.4-1.3c1.1-0.9,1.6-2,1.6-3.5c0-0.8-0.1-1.4-0.3-1.9C187.5,401.6,187.2,401.2,186.8,400.8z"/>
				<polygon class="st0" points="189,394.3 194,394.3 194,408.7 196.1,408.7 196.1,394.3 201.1,394.3 201.1,392.5 189,392.5 				"/>
				<path class="st0" d="M217.5,400.1c0.6-0.3,1-0.7,1.3-1.3c0.3-0.6,0.4-1.2,0.4-1.9c0-0.7-0.1-1.3-0.3-1.8c-0.2-0.5-0.5-1-0.9-1.4
					c-0.4-0.4-0.9-0.7-1.6-0.9c-0.6-0.2-1.4-0.3-2.3-0.3h-3.7c-0.6,0-1,0.2-1.4,0.5c-0.3,0.4-0.5,0.8-0.5,1.4v12.4
					c0,0.6,0.2,1,0.5,1.4c0.3,0.3,0.8,0.5,1.4,0.5h3.7c2,0,3.4-0.4,4.2-1.3c0.9-0.9,1.3-2,1.3-3.5c0-0.9-0.2-1.6-0.5-2.3
					S218.2,400.4,217.5,400.1z M210.7,394.6c0-0.2,0.1-0.3,0.3-0.3h3.1c1.1,0,1.9,0.2,2.3,0.7c0.4,0.5,0.6,1.1,0.6,1.9
					c0,0.8-0.2,1.3-0.6,1.7c-0.4,0.4-1.2,0.6-2.3,0.6h-3.4V394.6z M217.3,405.1c-0.1,0.4-0.3,0.7-0.6,1c-0.3,0.3-0.6,0.5-1,0.6
					c-0.4,0.1-1,0.2-1.6,0.2H211c-0.2,0-0.3-0.1-0.3-0.3V401h3.4c1.3,0,2.1,0.3,2.6,0.8c0.5,0.5,0.7,1.2,0.7,2.1
					C217.5,404.3,217.4,404.7,217.3,405.1z"/>
				<path class="st0" d="M231.6,403.2c0,1.3-0.3,2.3-1,2.9c-0.7,0.6-1.6,0.9-2.7,0.9c-1.1,0-2-0.3-2.6-0.9s-1-1.6-1-2.9v-10.7h-2.2
					v10.9c0,1.8,0.5,3.1,1.6,4.1c1,1,2.4,1.4,4.2,1.4c1.9,0,3.3-0.5,4.3-1.4c1-1,1.5-2.3,1.5-4.1v-10.9h-2.1V403.2z"/>
				<polygon class="st0" points="235.3,394.3 240.3,394.3 240.3,408.7 242.4,408.7 242.4,394.3 247.4,394.3 247.4,392.5 
					235.3,392.5 				"/>
				<path class="st0" d="M261.8,405.4c-0.1,0.5-0.3,0.8-0.5,1.1c-0.3,0.3-0.6,0.4-1,0.4c-0.5,0-0.8-0.1-1-0.4
					c-0.2-0.3-0.4-0.7-0.5-1.1l-2.6-13h-2.1l2.7,13.5c0.2,0.9,0.6,1.6,1.2,2.1c0.6,0.5,1.4,0.8,2.4,0.8c1,0,1.7-0.3,2.3-0.8
					c0.6-0.5,1-1.2,1.2-2.1l2.7-13.5h-2.1L261.8,405.4z"/>
				<path class="st0" d="M269.2,393c-0.3,0.3-0.5,0.8-0.5,1.4v12.4c0,0.6,0.2,1,0.5,1.4c0.3,0.4,0.8,0.5,1.4,0.5h8.3v-1.8h-7.8
					c-0.2,0-0.3-0.1-0.3-0.3V401h6.6v-1.8h-6.6v-4.7c0-0.2,0.1-0.3,0.3-0.3h7.8v-1.8h-8.3C270,392.5,269.5,392.6,269.2,393z"/>
				<path class="st0" d="M291.9,399.7c0.4-0.7,0.5-1.5,0.5-2.5c0-1.5-0.4-2.6-1.3-3.5c-0.9-0.9-2.3-1.3-4.3-1.3h-3.7
					c-0.6,0-1,0.2-1.4,0.5c-0.3,0.4-0.5,0.8-0.5,1.4v14.3h2.1v-6.6h3.3c1.1,0,2,0.3,2.6,1c0.6,0.6,0.9,1.6,0.9,2.9v2.7h2.2v-2.9
					c0-1-0.2-1.9-0.6-2.7c-0.4-0.8-1-1.4-1.8-1.8C290.9,401,291.6,400.5,291.9,399.7z M289.6,399.5c-0.5,0.5-1.4,0.8-2.7,0.8h-3.4
					v-5.7c0-0.2,0.1-0.3,0.3-0.3h3.1c1.3,0,2.2,0.3,2.7,0.8c0.5,0.5,0.7,1.3,0.7,2.2C290.3,398.2,290.1,398.9,289.6,399.5z"/>
				<rect x="295.9" y="392.5" class="st0" width="2.1" height="16.2"/>
				<path class="st0" d="M301.8,393c-0.3,0.3-0.5,0.8-0.5,1.4v14.3h2.1V401h6.6v-1.8h-6.6v-4.7c0-0.2,0.1-0.3,0.3-0.3h7.7v-1.8h-8.3
					C302.5,392.5,302.1,392.6,301.8,393z"/>
				<path class="st0" d="M322,392.5v6.7c0,0.6-0.1,1.1-0.3,1.6c-0.2,0.4-0.4,0.7-0.7,1s-0.7,0.4-1.2,0.5c-0.4,0.1-0.9,0.1-1.5,0.1
					c-1.1,0-2-0.3-2.6-0.9s-0.9-1.6-0.9-2.9c0-1,0-2,0-3s0-2,0-3h-2.1v6.1c0,1.8,0.5,3.1,1.5,4.1c1,0.9,2.4,1.4,4.1,1.4
					c0.9,0,1.6-0.1,2.2-0.2c0.6-0.2,1.1-0.4,1.6-0.8v1.2c0,0.9-0.3,1.6-0.9,2c-0.6,0.5-1.5,0.7-2.8,0.7c-0.6,0-1.2-0.1-1.7-0.2
					c-0.5-0.1-1-0.3-1.4-0.4c-0.5-0.2-0.9-0.4-1.3-0.6l-0.8,1.7c0.4,0.2,0.9,0.4,1.4,0.6c0.5,0.2,1,0.3,1.6,0.4s1.3,0.2,2.1,0.2
					c2,0,3.4-0.4,4.4-1.1c1-0.8,1.5-1.9,1.5-3.3v-11.9H322z"/>
			</g>
		</g>
	</g>
</g>
<g id="Layer_2">
	<g>
		<g>
			<g>
				<path class="st1" d="M246,39.4c-18,0.4-35.1,4.3-50.7,11c-4.3-4.3-10.2-6.9-16.8-6.9c-13.1,0-23.8,10.6-23.8,23.8
					c0,4.4,1.2,8.4,3.2,11.9c-1.7,1.8-3.4,3.7-4.9,5.6c-3.7,4.6-7.4,9.1-11,13.8c-2-1-4.3-1.5-6.7-1.5c-3.8,0-7.3,1.4-10.1,3.6
					c-5.1-2.8-10.3-5.5-15.5-8.3c-0.4-0.2-0.8-0.5-1.1-0.7c0-0.1,0-0.2,0-0.3c0-6.7-5.4-12.1-12.1-12.1c-6.7,0-12.1,5.4-12.1,12.1
					c0,6.7,5.4,12.1,12.1,12.1c4.1,0,7.6-2,9.8-5.1c0.3,0.1,0.6,0.2,1,0.4c1.9,1,4,1.8,5.9,2.8c2.6,1.4,5.2,2.8,7.8,4.2
					c-1.1,2.2-1.7,4.6-1.7,7.1c0,4.9,2.2,9.3,5.7,12.2c0,0,0,0.1-0.1,0.1c-4.1,7.9-8.2,15.8-11.2,24.1c-0.2,0.6-0.5,1.2-0.8,1.8
					c-0.8,1.4-1.2,1.5-2.5,0.6c-2.2-1.5-4.3-3-6.5-4.5c-0.1-0.1-0.1-0.1-0.2-0.2c0.5-1.4,0.9-2.9,0.9-4.4c0-6.7-5.4-12.1-12.1-12.1
					c-6.7,0-12.1,5.4-12.1,12.1c0,1.7,0.3,3.3,1,4.7c-0.2,0.3-0.4,0.6-0.7,0.9C75,154.9,70.1,162,66.7,170c-1.3,3-3.3,4.2-6.5,3.6
					c-1.2-0.2-2.5-0.5-3.7-0.8c-1.5-3.1-4.6-5.2-8.2-5.2c-5.1,0-9.2,4.1-9.2,9.2s4.1,9.2,9.2,9.2c3.9,0,7.2-2.5,8.5-5.9
					c3.4,1,5.2,4.2,4.4,7.9c-0.5,2.2-0.7,4.5-0.9,6.8c-0.2,1.5-0.3,3.1-0.3,4.6c0,3.7-0.1,7.4,0.1,11.1c0.1,1.9,0.2,3.7,0,5.6
					c-2.2,1.5-3.7,4-3.7,6.9c0,4.5,3.7,8.2,8.2,8.2c4.5,0,8.2-3.7,8.2-8.2c0-3.6-2.4-6.7-5.6-7.8c-0.2-0.6-0.3-1.2-0.3-1.9
					c0.1-2.8,0-5.7,0-9.5c-0.2-4.3,0.1-9.5,1.2-14.7c0.8-3.6,2.2-4.5,5.4-2.8c2.9,1.5,5.9,3,8.6,4.8c4,2.6,7.9,5.5,11.8,8.4
					c0,0,0,0,0.1,0.1c-0.8,1.7-1.2,3.5-1.2,5.4c0,7.2,5.8,12.9,12.9,12.9c2,0,3.9-0.5,5.6-1.3c0.1,0.1,0.2,0.2,0.3,0.3
					c1.5,1.7,2.9,3.4,4.2,5.2c3.4,8,7.8,15.7,12.9,23.1c-0.5,0.4-1.1,0.8-1.7,1.2c-6.9,4.2-14.1,8-21.6,11.1
					c-0.3,0.1-0.5,0.2-0.8,0.3c-2.2-3.4-6.1-5.7-10.5-5.7c-6.9,0-12.6,5.6-12.6,12.6c0,6.9,5.6,12.6,12.6,12.6s12.6-5.6,12.6-12.6
					c0-0.1,0-0.2,0-0.2c0.1,0,0.1-0.1,0.2-0.1c8-3.3,15.7-7.3,23.1-11.8c1.3-0.8,2.2-1.3,2.9-1.5c2,2.6,4,5.1,6.1,7.6
					c3.9,6.3,8.3,12.2,13.3,17.8c0.2,0.2,0.3,0.5,0.5,0.7c-0.9,2-1.5,4.1-1.5,6.4c0,8.3,6.7,15,15,15c4.5,0,8.5-2,11.2-5.1
					c6.6,4.4,12.7,7.6,17.3,9.2c7.9,2.7,14.7,3.6,19.1,4.2c0,0,0,0,0,0c8.5,1.5,18.7,2.8,32,2.8c73.3-1.4,132.3-61.3,132.3-134.9
					C378.3,100.7,319.3,40.9,246,39.4z M271.3,134.2c1-6,2.3-12,2.2-18.2c0-2.9,0.4-5.9,0.6-8.8c0-0.3,0.2-0.6,0.3-0.8
					c0.1,0.3,0.4,0.5,0.4,0.8c0.9,5.2,1.8,10.3,2.5,15.5c0.5,4.2,0.8,8.5,1.1,12.7c0.1,1.2,0.2,2.4,0.3,3.6c0,0,0,0-0.1,0
					c0,0.2,0,0.4,0,0.7c-0.1,1-0.3,2.1-0.4,3.1c-0.8-0.6-1.7-1.3-2.5-1.9c-0.9-0.7-1.8-1.6-2.8-2.2
					C271.1,137.6,271,136.2,271.3,134.2z M199.1,55.5c0.2-0.1,0.4-0.2,0.7-0.3c4.7-1.9,9.3-3.8,14.1-5.3c3.2-1,6.7-1.3,10-1.7
					c3.7-0.4,7.2,0.7,10.5,2.2c5,2.1,9.2,5.5,13.2,9.1c5.3,4.8,9.7,10.4,13.8,16.2c2.2,3.1,3.9,6.4,4.5,10.4c1,6.2,0.9,12.4,1,20.7
					c0.1,4.6,0,11.3-1.2,17.9c-0.4,2-0.4,4.1-0.7,6.2c-0.2,1.2-0.8,1.4-1.9,0.8c-3.6-2-7.3-4-10.9-6c0.1-1,0.2-2,0.2-3.1
					c0-13.1-10.6-23.8-23.8-23.8c-3.8,0-7.4,0.9-10.6,2.5c-5.6-7.8-12.6-14.4-19.6-20.9c2.4-3.7,3.9-8.2,3.9-13
					C202.3,63,201.1,59,199.1,55.5z M243.8,167.3c-0.7-6.5-1.6-13-3.2-19.4c-0.4-1.5-0.8-2.9-1.3-4.3c4.9-2.5,8.8-6.6,11-11.6
					c3.7,2.1,7.4,4.2,11,6.3c1.1,0.7,1.7,1.7,1.5,3.5c-0.5,2-0.8,4.5-1.6,6.9c-2.5,7.4-4.8,14.8-7.8,21.9c-2.3,5.7-5.3,11-8.1,16.5
					c0,0-0.1,0.1-0.1,0.1c-0.3-0.1-0.7-0.3-1-0.4c0-0.1,0-0.2,0-0.2C244.8,180.2,244.6,173.8,243.8,167.3z M156,91.7
					c2-2.4,4.1-4.7,6.3-7c4.2,3.9,9.9,6.4,16.1,6.4c6,0,11.5-2.2,15.6-5.9c0.4,0.4,0.9,0.8,1.5,1.4c5.9,5.7,11.8,11.4,16.7,18.1
					c0.1,0.1,0.1,0.2,0.2,0.3c-1.8,1.7-3.4,3.6-4.6,5.8c-4.6-0.7-9-2.1-13.8-2.1c-1.6,0-3.3-0.4-4.9-0.6c-8-1.2-16-0.5-23.9-0.6
					c-5-0.1-10.1,0.1-15.1,0.3c-0.7-1.9-1.7-3.6-3-5C150.2,99,153.1,95.3,156,91.7z M109.6,161.7c-1.5,4.9-3,9.8-4.2,14.7
					c-0.8,3.3-1.1,6.6-1.6,10c-0.2,1.9-0.4,3.7-0.6,5.6c-1.8,0.4-3.4,1.1-4.9,2.1c-1.9-1.3-3.7-2.7-5.5-4.2
					c-5.2-4.3-11.1-7.3-17.1-10.2c-2.1-1-3.2-2.6-3.5-4.8c0.1-0.6,0.2-1.3,0.5-1.9c3.2-6.9,6.7-13.7,12.5-19
					c0.4-0.4,0.7-0.7,1.1-0.9c1.9,1.2,4,1.9,6.4,1.9c2.6,0,5-0.8,7-2.3c0.5,0.2,1.1,0.5,1.6,0.9c2.4,1.8,4.9,3.6,7.4,5.4
					C109.8,159.7,109.9,160.4,109.6,161.7z M141.1,184.1c-0.5,1.3-2,2.4-3.3,3.3c-4.1,2.8-8.2,5.6-12.4,8.2
					c-1.8,1.2-3.7,2.3-5.7,3.2c-0.7,0.3-1.3,0.7-2,1.1c-1.4-3.4-4.1-6-7.5-7.3c0.9-8.8,2.4-17.5,5.1-26c0.9-2.8,1-2.9,3.5-1.3
					c7.9,4.9,15.8,9.7,24,14C142.3,180.9,141.7,182.5,141.1,184.1z M150.4,136.2c-2.5,6.7-4.2,13.5-4.9,20.5
					c-0.2,2.1-0.1,4.2-0.2,6.3c-0.2,3.2-0.2,6.4-0.7,9.5c-7.8-4.5-15.5-9-23.2-13.6c-3.2-1.9-3.2-2.1-1.8-5.6
					c3.3-8.2,6.6-16.4,11.2-24.1c0.2-0.3,0.4-0.6,0.6-0.9c1.3,0.3,2.6,0.5,4,0.5c3.7,0,7.2-1.3,9.9-3.5c0.2,0.2,0.4,0.4,0.6,0.6
					c2.1,2.4,4,4.9,5.7,7.5C151.2,134.5,150.8,135.3,150.4,136.2z M175.4,180.9c-1.7-5.9,1.1-22.2,2.1-25c1.8-5.3,4.1-10.3,9.1-15
					c5-4.7,7.2-2.8,9.6-1.5c2.4,1.3,5.2,3.8,5.3,11c0.1,8.4-1.8,10.5-3.8,18.3c-2,7.8-2.5,11.5-4.5,14.8c-1.5,2.5-4.9,5.5-8.8,7.5
					C178.4,194,177.1,186.8,175.4,180.9z M188.7,195.8c-0.2,2.2-0.6,2.5-2.8,1.6c-0.3-0.1-0.5-0.2-0.8-0.4c-0.9-0.5-1-0.8-0.1-1.4
					c1.2-0.7,2.4-1.4,3.9-2.2C188.9,194.5,188.8,195.1,188.7,195.8z M204.3,213.8c-0.1-0.4-0.2-0.9-0.5-1.3
					c-2.4-3.7-4.6-7.7-8.7-9.9c-2-1.1-2.7-3.2-4.1-4.7c-0.7-0.8,0.2-4.9,1.2-5.7c4.2-3.6,6.6-8.2,8.1-13.5c1.6-5.4,2.5-11,3.5-16.5
					c0.7-4.2,1.5-8.3,1.3-12.5c-0.1-1.5,0.1-3.8-0.2-5.3c-0.6-2.8,0-4.6-1.1-7.2c-1.7-4.2-3.1-6.6-6.3-8.3c-0.4-0.2-0.7-0.5-1-0.9
					c-2.7-3.4-6.5-5.3-10-7.6c-2.8-1.8-5.9-3-8.9-4.4c-0.9-0.4-1.9-0.6-2.8-0.9c-0.6-0.2-1.3-0.4-1.8-0.7c-4.3-1-6.5,0.4-8.8,1.5
					c-2.2,1-3.8,3.4-5.5,5.7c-1.4,1.9-2.6,3.7-3.7,5.5c-1.6-2.1-3.4-4.2-5-6.3c-0.1-0.2-0.3-0.4-0.4-0.5c0.9-1.7,1.5-3.6,1.7-5.6
					c0.3,0,0.6-0.1,0.9-0.1c5.4-0.4,10.9-0.7,16.4-1c7,0.1,14,0.4,21,1.5c4.6,0.7,9.3,1,14,1.5c0.7,0.1,1.3,0.2,1.9,0.4
					c0.1,0,0.1,0,0.2,0.1c-0.4,1.7-0.6,3.5-0.6,5.4c0,13.1,10.6,23.8,23.8,23.8c1.5,0,2.9-0.2,4.3-0.4c0.2,0.6,0.3,1.4,0.6,2.3
					c0.9,3.2,1.1,6.7,1.9,10c1.9,8.3,1.9,16.7,1.9,25.1c0,0.7,0,1.3,0,2c0,0.2,0,0.3,0,0.5c-0.2,0-0.4,0-0.6,0
					c-10.3,0-19.1,6.6-22.4,15.8c-0.2,0-0.3,0-0.4-0.1c-7.2-2.5-15.5-4.4-20.7-6.7c0.1,1-0.4,1.8-0.2,2.3c0.5,0.9,1.4,2.9,4.7,5.7
					c1.2,0.5,1.7,1.2,2.9,1.7c3.9,1.4,6.6,2.2,10.6,3.3c0.7,0.2,1.3,0.5,1.8,0.8c0,0.3-0.1,0.7-0.1,1c0,4.3,1.2,8.3,3.1,11.8
					c-2.8,2-5.6,4-8.5,5.9c-0.2-0.8-0.4-1.7-0.6-2.5C206.1,221,205.2,217.4,204.3,213.8z M287.4,241.5c-0.5,0.4-1.1,0.8-1.6,1.2
					c-2,1.7-2.1,2-1.2,4.5c0.3,0.8,0.5,1.7,0.6,2.5c0.1,1.2-0.3,2.1-1.3,2.8c-8,5.4-15.4,11.8-24.4,15.5c-0.1,1.7-0.4,4.6-0.7,7.3
					c0.4-0.2,0.8-0.3,1.3-0.4c4-1.6,7.9-3.8,11.7-5.9c2.2-1.2,2.6-1.2,3.3,1.2c1.1,3.8,2,8.2,1.4,12.1c-0.4,2.6-1,4.7-1.8,7.2
					c-1.3,4-4.1,5.1-8.2,6.5c-8.1,2.8-11.4,3.5-14.6,4.2c-5,1.2-14.3,1.9-20.5,1.6c-8.7-0.3-16.9-2.3-23.6-4.4
					c-0.1-0.2-0.2-0.4-0.3-0.6c-0.2-0.3-0.2-0.6,0-0.7c0,0-0.1-0.1-0.1-0.1c-1-1.7,1.2-5.5,1.8-8.9c0.6-3.4,1.3-10.1,1.3-14.4
					c0-4.3,0-20.3,0-20.3c0.2-6.2-0.4-12.3-1.5-18.3c3.8-2.4,7.6-4.8,11.3-7.3c4.3,4.1,10,6.6,16.4,6.6c10.1,0,18.7-6.3,22.2-15.2
					c2,0.4,4,0.5,6,0.6c4.8,0.3,9.6,0.5,14.4,0.7c3.8,0.1,3.9,0.1,4.2,3.8c0.3,3.5,1.4,6.6,3.6,9.3c0.5,0.7,1.1,1.4,1.5,2.1
					C290.5,237.6,290.2,239.3,287.4,241.5z M301.6,210.9c-1.9,1-3.9,1.8-6.3,1.8c-3.5-0.1-7,0-12.1,0c-5.1,0.2-11.8,0-18.4-1.2
					c-1.5-0.3-3-0.2-4.5-0.2c0.1-0.6,0.1-1.3,0.1-1.9c0-7.6-3.6-14.4-9.2-18.8c3.6-7,7.3-14,10.4-21.3c3-6.9,5.4-14.1,6.9-21.6
					c0.1-0.6,0.3-1.3,0.4-1.9c0.2-1.2,0.8-1.6,1.8-0.7c3.5,3.2,6.9,6.4,10.3,9.6c0.6,0.6,1.1,1.4,1.4,2.2
					c4.4,12.5,11.1,24,16.9,35.9c2,4,4,8,4.8,12.5C304.5,208.1,303.9,209.7,301.6,210.9z"/>
				<path class="st1" d="M67.7,123.5c5.1,0,9.2-4.1,9.2-9.2c0-5.1-4.1-9.2-9.2-9.2s-9.2,4.1-9.2,9.2
					C58.5,119.4,62.6,123.5,67.7,123.5z"/>
			</g>
		</g>
		
			<radialGradient id="SVGID_00000165206489168997645280000005430685784807269269_" cx="197.685" cy="102.7796" r="221.8723" gradientTransform="matrix(-3.305190e-02 0.9995 -0.994 -3.287237e-02 306.3844 -91.4187)" gradientUnits="userSpaceOnUse">
			<stop  offset="0" style="stop-color:#FFFFFF;stop-opacity:0"/>
			<stop  offset="0.1254" style="stop-color:#C9CACA;stop-opacity:0.1468"/>
			<stop  offset="0.2576" style="stop-color:#97999A;stop-opacity:0.3015"/>
			<stop  offset="0.3886" style="stop-color:#6E7071;stop-opacity:0.455"/>
			<stop  offset="0.5158" style="stop-color:#4E5052;stop-opacity:0.6039"/>
			<stop  offset="0.6381" style="stop-color:#373A3C;stop-opacity:0.747"/>
			<stop  offset="0.7533" style="stop-color:#292C2E;stop-opacity:0.8819"/>
			<stop  offset="0.8542" style="stop-color:#24272A"/>
		</radialGradient>
		<path style="opacity:0.58;fill:url(#SVGID_00000165206489168997645280000005430685784807269269_);" d="M246,39.4
			c-18,0.4-35.1,4.3-50.7,11c-4.3-4.3-10.2-6.9-16.8-6.9c-13.1,0-23.8,10.6-23.8,23.8c0,4.4,1.2,8.4,3.2,11.9
			c-1.7,1.8-3.4,3.7-4.9,5.6c-3.7,4.6-7.4,9.1-11,13.8c-2-1-4.3-1.5-6.7-1.5c-3.8,0-7.3,1.4-10.1,3.6c-5.1-2.8-10.3-5.5-15.5-8.3
			c-0.4-0.2-0.8-0.5-1.1-0.7c0-0.1,0-0.2,0-0.3c0-6.7-5.4-12.1-12.1-12.1c-6.7,0-12.1,5.4-12.1,12.1c0,6.7,5.4,12.1,12.1,12.1
			c4.1,0,7.6-2,9.8-5.1c0.3,0.1,0.6,0.2,1,0.4c1.9,1,4,1.8,5.9,2.8c2.6,1.4,5.2,2.8,7.8,4.2c-1.1,2.2-1.7,4.6-1.7,7.1
			c0,4.9,2.2,9.3,5.7,12.2c0,0,0,0.1-0.1,0.1c-4.1,7.9-8.2,15.8-11.2,24.1c-0.2,0.6-0.5,1.2-0.8,1.8c-0.8,1.4-1.2,1.5-2.5,0.6
			c-2.2-1.5-4.3-3-6.5-4.5c-0.1-0.1-0.1-0.1-0.2-0.2c0.5-1.4,0.9-2.9,0.9-4.4c0-6.7-5.4-12.1-12.1-12.1c-6.7,0-12.1,5.4-12.1,12.1
			c0,1.7,0.3,3.3,1,4.7c-0.2,0.3-0.4,0.6-0.7,0.9C75,154.9,70.1,162,66.7,170c-1.3,3-3.3,4.2-6.5,3.6c-1.2-0.2-2.5-0.5-3.7-0.8
			c-1.5-3.1-4.6-5.2-8.2-5.2c-5.1,0-9.2,4.1-9.2,9.2s4.1,9.2,9.2,9.2c3.9,0,7.2-2.5,8.5-5.9c3.4,1,5.2,4.2,4.4,7.9
			c-0.5,2.2-0.7,4.5-0.9,6.8c-0.2,1.5-0.3,3.1-0.3,4.6c0,3.7-0.1,7.4,0.1,11.1c0.1,1.9,0.2,3.7,0,5.6c-2.2,1.5-3.7,4-3.7,6.9
			c0,4.5,3.7,8.2,8.2,8.2c4.5,0,8.2-3.7,8.2-8.2c0-3.6-2.4-6.7-5.6-7.8c-0.2-0.6-0.3-1.2-0.3-1.9c0.1-2.8,0-5.7,0-9.5
			c-0.2-4.3,0.1-9.5,1.2-14.7c0.8-3.6,2.2-4.5,5.4-2.8c2.9,1.5,5.9,3,8.6,4.8c4,2.6,7.9,5.5,11.8,8.4c0,0,0,0,0.1,0.1
			c-0.8,1.7-1.2,3.5-1.2,5.4c0,7.2,5.8,12.9,12.9,12.9c2,0,3.9-0.5,5.6-1.3c0.1,0.1,0.2,0.2,0.3,0.3c1.5,1.7,2.9,3.4,4.2,5.2
			c3.4,8,7.8,15.7,12.9,23.1c-0.5,0.4-1.1,0.8-1.7,1.2c-6.9,4.2-14.1,8-21.6,11.1c-0.3,0.1-0.5,0.2-0.8,0.3
			c-2.2-3.4-6.1-5.7-10.5-5.7c-6.9,0-12.6,5.6-12.6,12.6c0,6.9,5.6,12.6,12.6,12.6s12.6-5.6,12.6-12.6c0-0.1,0-0.2,0-0.2
			c0.1,0,0.1-0.1,0.2-0.1c8-3.3,15.7-7.3,23.1-11.8c1.3-0.8,2.2-1.3,2.9-1.5c2,2.6,4,5.1,6.1,7.6c3.9,6.3,8.3,12.2,13.3,17.8
			c0.2,0.2,0.3,0.5,0.5,0.7c-0.9,2-1.5,4.1-1.5,6.4c0,8.3,6.7,15,15,15c4.5,0,8.5-2,11.2-5.1c6.6,4.4,12.7,7.6,17.3,9.2
			c7.9,2.7,14.7,3.6,19.1,4.2c0,0,0,0,0,0c8.5,1.5,18.7,2.8,32,2.8c73.3-1.4,132.3-61.3,132.3-134.9
			C378.3,100.7,319.3,40.9,246,39.4z M271.3,134.2c1-6,2.3-12,2.2-18.2c0-2.9,0.4-5.9,0.6-8.8c0-0.3,0.2-0.6,0.3-0.8
			c0.1,0.3,0.4,0.5,0.4,0.8c0.9,5.2,1.8,10.3,2.5,15.5c0.5,4.2,0.8,8.5,1.1,12.7c0.1,1.2,0.2,2.4,0.3,3.6c0,0,0,0-0.1,0
			c0,0.2,0,0.4,0,0.7c-0.1,1-0.3,2.1-0.4,3.1c-0.8-0.6-1.7-1.3-2.5-1.9c-0.9-0.7-1.8-1.6-2.8-2.2C271.1,137.6,271,136.2,271.3,134.2
			z M199.1,55.5c0.2-0.1,0.4-0.2,0.7-0.3c4.7-1.9,9.3-3.8,14.1-5.3c3.2-1,6.7-1.3,10-1.7c3.7-0.4,7.2,0.7,10.5,2.2
			c5,2.1,9.2,5.5,13.2,9.1c5.3,4.8,9.7,10.4,13.8,16.2c2.2,3.1,3.9,6.4,4.5,10.4c1,6.2,0.9,12.4,1,20.7c0.1,4.6,0,11.3-1.2,17.9
			c-0.4,2-0.4,4.1-0.7,6.2c-0.2,1.2-0.8,1.4-1.9,0.8c-3.6-2-7.3-4-10.9-6c0.1-1,0.2-2,0.2-3.1c0-13.1-10.6-23.8-23.8-23.8
			c-3.8,0-7.4,0.9-10.6,2.5c-5.6-7.8-12.6-14.4-19.6-20.9c2.4-3.7,3.9-8.2,3.9-13C202.3,63,201.1,59,199.1,55.5z M243.8,167.3
			c-0.7-6.5-1.6-13-3.2-19.4c-0.4-1.5-0.8-2.9-1.3-4.3c4.9-2.5,8.8-6.6,11-11.6c3.7,2.1,7.4,4.2,11,6.3c1.1,0.7,1.7,1.7,1.5,3.5
			c-0.5,2-0.8,4.5-1.6,6.9c-2.5,7.4-4.8,14.8-7.8,21.9c-2.3,5.7-5.3,11-8.1,16.5c0,0-0.1,0.1-0.1,0.1c-0.3-0.1-0.7-0.3-1-0.4
			c0-0.1,0-0.2,0-0.2C244.8,180.2,244.6,173.8,243.8,167.3z M156,91.7c2-2.4,4.1-4.7,6.3-7c4.2,3.9,9.9,6.4,16.1,6.4
			c6,0,11.5-2.2,15.6-5.9c0.4,0.4,0.9,0.8,1.5,1.4c5.9,5.7,11.8,11.4,16.7,18.1c0.1,0.1,0.1,0.2,0.2,0.3c-1.8,1.7-3.4,3.6-4.6,5.8
			c-4.6-0.7-9-2.1-13.8-2.1c-1.6,0-3.3-0.4-4.9-0.6c-8-1.2-16-0.5-23.9-0.6c-5-0.1-10.1,0.1-15.1,0.3c-0.7-1.9-1.7-3.6-3-5
			C150.2,99,153.1,95.3,156,91.7z M109.6,161.7c-1.5,4.9-3,9.8-4.2,14.7c-0.8,3.3-1.1,6.6-1.6,10c-0.2,1.9-0.4,3.7-0.6,5.6
			c-1.8,0.4-3.4,1.1-4.9,2.1c-1.9-1.3-3.7-2.7-5.5-4.2c-5.2-4.3-11.1-7.3-17.1-10.2c-2.1-1-3.2-2.6-3.5-4.8c0.1-0.6,0.2-1.3,0.5-1.9
			c3.2-6.9,6.7-13.7,12.5-19c0.4-0.4,0.7-0.7,1.1-0.9c1.9,1.2,4,1.9,6.4,1.9c2.6,0,5-0.8,7-2.3c0.5,0.2,1.1,0.5,1.6,0.9
			c2.4,1.8,4.9,3.6,7.4,5.4C109.8,159.7,109.9,160.4,109.6,161.7z M141.1,184.1c-0.5,1.3-2,2.4-3.3,3.3c-4.1,2.8-8.2,5.6-12.4,8.2
			c-1.8,1.2-3.7,2.3-5.7,3.2c-0.7,0.3-1.3,0.7-2,1.1c-1.4-3.4-4.1-6-7.5-7.3c0.9-8.8,2.4-17.5,5.1-26c0.9-2.8,1-2.9,3.5-1.3
			c7.9,4.9,15.8,9.7,24,14C142.3,180.9,141.7,182.5,141.1,184.1z M150.4,136.2c-2.5,6.7-4.2,13.5-4.9,20.5c-0.2,2.1-0.1,4.2-0.2,6.3
			c-0.2,3.2-0.2,6.4-0.7,9.5c-7.8-4.5-15.5-9-23.2-13.6c-3.2-1.9-3.2-2.1-1.8-5.6c3.3-8.2,6.6-16.4,11.2-24.1
			c0.2-0.3,0.4-0.6,0.6-0.9c1.3,0.3,2.6,0.5,4,0.5c3.7,0,7.2-1.3,9.9-3.5c0.2,0.2,0.4,0.4,0.6,0.6c2.1,2.4,4,4.9,5.7,7.5
			C151.2,134.5,150.8,135.3,150.4,136.2z M175.4,180.9c-1.7-5.9,1.1-22.2,2.1-25c1.8-5.3,4.1-10.3,9.1-15c5-4.7,7.2-2.8,9.6-1.5
			c2.4,1.3,5.2,3.8,5.3,11c0.1,8.4-1.8,10.5-3.8,18.3c-2,7.8-2.5,11.5-4.5,14.8c-1.5,2.5-4.9,5.5-8.8,7.5
			C178.4,194,177.1,186.8,175.4,180.9z M188.7,195.8c-0.2,2.2-0.6,2.5-2.8,1.6c-0.3-0.1-0.5-0.2-0.8-0.4c-0.9-0.5-1-0.8-0.1-1.4
			c1.2-0.7,2.4-1.4,3.9-2.2C188.9,194.5,188.8,195.1,188.7,195.8z M204.3,213.8c-0.1-0.4-0.2-0.9-0.5-1.3c-2.4-3.7-4.6-7.7-8.7-9.9
			c-2-1.1-2.7-3.2-4.1-4.7c-0.7-0.8,0.2-4.9,1.2-5.7c4.2-3.6,6.6-8.2,8.1-13.5c1.6-5.4,2.5-11,3.5-16.5c0.7-4.2,1.5-8.3,1.3-12.5
			c-0.1-1.5,0.1-3.8-0.2-5.3c-0.6-2.8,0-4.6-1.1-7.2c-1.7-4.2-3.1-6.6-6.3-8.3c-0.4-0.2-0.7-0.5-1-0.9c-2.7-3.4-6.5-5.3-10-7.6
			c-2.8-1.8-5.9-3-8.9-4.4c-0.9-0.4-1.9-0.6-2.8-0.9c-0.6-0.2-1.3-0.4-1.8-0.7c-4.3-1-6.5,0.4-8.8,1.5c-2.2,1-3.8,3.4-5.5,5.7
			c-1.4,1.9-2.6,3.7-3.7,5.5c-1.6-2.1-3.4-4.2-5-6.3c-0.1-0.2-0.3-0.4-0.4-0.5c0.9-1.7,1.5-3.6,1.7-5.6c0.3,0,0.6-0.1,0.9-0.1
			c5.4-0.4,10.9-0.7,16.4-1c7,0.1,14,0.4,21,1.5c4.6,0.7,9.3,1,14,1.5c0.7,0.1,1.3,0.2,1.9,0.4c0.1,0,0.1,0,0.2,0.1
			c-0.4,1.7-0.6,3.5-0.6,5.4c0,13.1,10.6,23.8,23.8,23.8c1.5,0,2.9-0.2,4.3-0.4c0.2,0.6,0.3,1.4,0.6,2.3c0.9,3.2,1.1,6.7,1.9,10
			c1.9,8.3,1.9,16.7,1.9,25.1c0,0.7,0,1.3,0,2c0,0.2,0,0.3,0,0.5c-0.2,0-0.4,0-0.6,0c-10.3,0-19.1,6.6-22.4,15.8
			c-0.2,0-0.3,0-0.4-0.1c-7.2-2.5-15.5-4.4-20.7-6.7c0.1,1-0.4,1.8-0.2,2.3c0.5,0.9,1.4,2.9,4.7,5.7c1.2,0.5,1.7,1.2,2.9,1.7
			c3.9,1.4,6.6,2.2,10.6,3.3c0.7,0.2,1.3,0.5,1.8,0.8c0,0.3-0.1,0.7-0.1,1c0,4.3,1.2,8.3,3.1,11.8c-2.8,2-5.6,4-8.5,5.9
			c-0.2-0.8-0.4-1.7-0.6-2.5C206.1,221,205.2,217.4,204.3,213.8z M287.4,241.5c-0.5,0.4-1.1,0.8-1.6,1.2c-2,1.7-2.1,2-1.2,4.5
			c0.3,0.8,0.5,1.7,0.6,2.5c0.1,1.2-0.3,2.1-1.3,2.8c-8,5.4-15.4,11.8-24.4,15.5c-0.1,1.7-0.4,4.6-0.7,7.3c0.4-0.2,0.8-0.3,1.3-0.4
			c4-1.6,7.9-3.8,11.7-5.9c2.2-1.2,2.6-1.2,3.3,1.2c1.1,3.8,2,8.2,1.4,12.1c-0.4,2.6-1,4.7-1.8,7.2c-1.3,4-4.1,5.1-8.2,6.5
			c-8.1,2.8-11.4,3.5-14.6,4.2c-5,1.2-14.3,1.9-20.5,1.6c-8.7-0.3-16.9-2.3-23.6-4.4c-0.1-0.2-0.2-0.4-0.3-0.6
			c-0.2-0.3-0.2-0.6,0-0.7c0,0-0.1-0.1-0.1-0.1c-1-1.7,1.2-5.5,1.8-8.9c0.6-3.4,1.3-10.1,1.3-14.4c0-4.3,0-20.3,0-20.3
			c0.2-6.2-0.4-12.3-1.5-18.3c3.8-2.4,7.6-4.8,11.3-7.3c4.3,4.1,10,6.6,16.4,6.6c10.1,0,18.7-6.3,22.2-15.2c2,0.4,4,0.5,6,0.6
			c4.8,0.3,9.6,0.5,14.4,0.7c3.8,0.1,3.9,0.1,4.2,3.8c0.3,3.5,1.4,6.6,3.6,9.3c0.5,0.7,1.1,1.4,1.5,2.1
			C290.5,237.6,290.2,239.3,287.4,241.5z M301.6,210.9c-1.9,1-3.9,1.8-6.3,1.8c-3.5-0.1-7,0-12.1,0c-5.1,0.2-11.8,0-18.4-1.2
			c-1.5-0.3-3-0.2-4.5-0.2c0.1-0.6,0.1-1.3,0.1-1.9c0-7.6-3.6-14.4-9.2-18.8c3.6-7,7.3-14,10.4-21.3c3-6.9,5.4-14.1,6.9-21.6
			c0.1-0.6,0.3-1.3,0.4-1.9c0.2-1.2,0.8-1.6,1.8-0.7c3.5,3.2,6.9,6.4,10.3,9.6c0.6,0.6,1.1,1.4,1.4,2.2c4.4,12.5,11.1,24,16.9,35.9
			c2,4,4,8,4.8,12.5C304.5,208.1,303.9,209.7,301.6,210.9z M58.5,114.4c0-5.1,4.1-9.2,9.2-9.2s9.2,4.1,9.2,9.2
			c0,5.1-4.1,9.2-9.2,9.2S58.5,119.4,58.5,114.4z"/>
	</g>
</g>
</svg>
