<?xml version="1.0" encoding="UTF-8"?>
<svg id="uuid-28e24702-55c5-4d6b-a35e-68aab4ddaba5" data-name="Layer 2" xmlns="http://www.w3.org/2000/svg" xmlns:xlink="http://www.w3.org/1999/xlink" viewBox="0 0 596.13 153.81">
  <defs>
    <clipPath id="uuid-a2f930ff-ce24-45e1-9b5b-e1e05d84327b">
      <path d="M79.37,69.55l-.08.15,8.97,66.69c-8.05-2.98-22.38,7.45-32.55,16.26,0-9.64.2-19.34.28-29.01l16.95-6.86-2-8.43-20.86,7.48v21.21l-5.03,3.4h-.56l-5.54-3.74v-21.21l-20.86-7.48-1.91,8.95,16.86,6.34.22,26.4.05.05v4.06h-.01s0,.01,0,.01c-10.14-8.63-25.02-19.31-33.3-15.92,0,0,9-65.77,9-65.77,11.14-5.95,25.12-9.35,37.83-9.35s22.68,2.44,32.54,6.79Z" fill="none" stroke-width="0"/>
    </clipPath>
    <clipPath id="uuid-d32518f4-66af-4271-9c17-0b104cdd0ec3">
      <path d="M4.3,24.88c4.93-.2,9.88-.41,14.81-.59.86,4.78,1.75,9.55,2.62,14.33,4.67-.1,9.35-.2,14.05-.31-.02-4.24-.02-8.46-.02-12.68,5.59,0,11.15,0,16.74.03-.03,4.19-.03,8.41-.03,12.63,4.65.1,9.3.23,13.95.36.92-4.8,1.83-9.61,2.75-14.41,4.93.23,9.86.43,14.81.64l-.05,28.49c0,4.8-3.45,12.43-3.45,12.44-10.2-4.5-21.61-7.02-33.66-7.02-13.84,0-26.85,3.33-38.15,9.17-1.01-4.46-4.04-8.54-4.41-13.17-.38-9.96.05-19.95.02-29.91Z" fill="none" stroke-width="0"/>
    </clipPath>
  </defs>
  <g id="uuid-38845e98-9435-41a2-8300-cfad4b79b4c0" data-name="Layer 1">
    <g>
      <g id="uuid-03f6dbbf-7e5d-4ce1-a142-aba7698fc04b" data-name="RED SIEGE HELM 2">
        <path d="M79.37,69.55l-.08.15,8.97,66.69c-8.05-2.98-22.38,7.45-32.55,16.26,0-9.64.2-19.34.28-29.01l16.95-6.86-2-8.43-20.86,7.48v21.21l-5.03,3.4h-.56l-5.54-3.74v-21.21l-20.86-7.48-1.91,8.95,16.86,6.34.22,26.4.05.05v4.06h-.01s0,.01,0,.01c-10.14-8.63-25.02-19.31-33.3-15.92,0,0,9-65.77,9-65.77,11.14-5.95,25.12-9.35,37.83-9.35s22.68,2.44,32.54,6.79Z" fill="#d11f26" stroke-width="0"/>
        <g clip-path="url(#uuid-a2f930ff-ce24-45e1-9b5b-e1e05d84327b)">
          <rect x="44.13" width="100.31" height="152.03" fill="#e64147" stroke-width="0"/>
        </g>
        <path d="M4.3,24.88c4.93-.2,9.88-.41,14.81-.59.86,4.78,1.75,9.55,2.62,14.33,4.67-.1,9.35-.2,14.05-.31-.02-4.24-.02-8.46-.02-12.68,5.59,0,11.15,0,16.74.03-.03,4.19-.03,8.41-.03,12.63,4.65.1,9.3.23,13.95.36.92-4.8,1.83-9.61,2.75-14.41,4.93.23,9.86.43,14.81.64l-.05,28.49c0,4.8-3.45,12.43-3.45,12.44-10.2-4.5-21.61-7.02-33.66-7.02-13.84,0-26.85,3.33-38.15,9.17-1.01-4.46-4.04-8.54-4.41-13.17-.38-9.96.05-19.95.02-29.91Z" fill="#d11f26" stroke-width="0"/>
        <g clip-path="url(#uuid-d32518f4-66af-4271-9c17-0b104cdd0ec3)">
          <rect x="44" y="16.54" width="100.31" height="152.02" fill="#e64147" stroke-width="0"/>
        </g>
      </g>
      <g id="uuid-1131b1a0-ccca-41d1-8358-1b5d2292f4cc" data-name="RED SIEGE STACK 2">
        <g>
          <path d="M115.14,126.12v21.59h-6.05v-21.59h6.05Z" fill="#231f20" stroke-width="0"/>
          <path d="M133.83,126.12l3.08,13.19h.06v-13.19h5.69v21.59h-6.47l-3.36-13.31h-.06v13.31h-5.5v-21.59h6.56Z" fill="#231f20" stroke-width="0"/>
          <path d="M168.09,126.12v4.9h-6.96v3.33h6.5v4.72h-6.5v8.65h-6.05v-21.59h13Z" fill="#231f20" stroke-width="0"/>
          <path d="M194.61,136.95c0,6.93,0,11.19-7.77,11.19s-7.77-4.33-7.77-11.19,0-11.25,7.77-11.25,7.77,4.45,7.77,11.25ZM186.84,144.15c1.36,0,1.54-.7,1.54-8.35,0-4.63-.15-6.11-1.54-6.11s-1.54,1.48-1.54,6.08c0,7.68.21,8.38,1.54,8.38Z" fill="#231f20" stroke-width="0"/>
          <path d="M215.62,126.12c3.84,0,5.81,1.91,5.81,5.66,0,2.99-1.12,4.78-3.6,5.2v.06c2.36.24,3.45,1.69,3.45,5.23v2.48c0,1.48.33,2.42.91,2.66v.3h-6.41c-.3-.36-.45-1.57-.45-2.93v-3.54c0-1.33-.51-2.03-1.54-2.03h-1.33v8.5h-6.05v-21.59h9.22ZM212.45,135.23h.67c1.72,0,2.27-.91,2.27-2.54,0-1.42-.45-2.21-2.36-2.21h-.57v4.75Z" fill="#231f20" stroke-width="0"/>
          <path d="M242.51,126.12l1.78,13.22h.06l1.97-13.22h8.59v21.59h-5.69v-15.73h-.06l-2.66,15.73h-4.36l-2.66-15.73h-.06v15.73h-5.69v-21.59h8.77Z" fill="#231f20" stroke-width="0"/>
          <path d="M278.55,126.12l5.08,21.59h-6.23l-.67-3.3h-4.05l-.6,3.3h-6.23l5.11-21.59h7.59ZM273.32,139.7h2.75l-1.3-8.86h-.06l-1.39,8.86Z" fill="#231f20" stroke-width="0"/>
          <path d="M305.89,126.12v5.08h-4.11v16.51h-6.05v-16.51h-4.11v-5.08h14.27Z" fill="#231f20" stroke-width="0"/>
          <path d="M322.67,126.12v21.59h-6.05v-21.59h6.05Z" fill="#231f20" stroke-width="0"/>
          <path d="M349.71,136.95c0,6.93,0,11.19-7.77,11.19s-7.77-4.33-7.77-11.19,0-11.25,7.77-11.25,7.77,4.45,7.77,11.25ZM341.93,144.15c1.36,0,1.54-.7,1.54-8.35,0-4.63-.15-6.11-1.54-6.11s-1.54,1.48-1.54,6.08c0,7.68.21,8.38,1.54,8.38Z" fill="#231f20" stroke-width="0"/>
          <path d="M368.15,126.12l3.08,13.19h.06v-13.19h5.69v21.59h-6.47l-3.36-13.31h-.06v13.31h-5.5v-21.59h6.56Z" fill="#231f20" stroke-width="0"/>
          <path d="M421.22,132.14v.18h-5.69v-1c0-.94-.51-1.63-1.42-1.63-.85,0-1.39.63-1.39,1.63s.48,1.72,1.45,2.21l3.81,1.91c2.99,1.48,3.75,3.27,3.75,5.72,0,5.05-2.39,6.99-7.92,6.99-5.05,0-7.17-1.97-7.17-6.23v-.67h5.87v1.06c0,1.12.58,1.84,1.51,1.84s1.48-.7,1.48-1.94c0-1.81-1.09-2-2.96-2.9l-1.88-.91c-.97-.48-2.15-1.24-2.87-2.18-.6-.79-.94-1.97-.94-3.57,0-2.54.61-4.23,1.91-5.32,1.33-1.12,3.18-1.63,5.35-1.63,4.75,0,7.11,1.75,7.11,6.44Z" fill="#231f20" stroke-width="0"/>
          <path d="M446.47,126.12v4.9h-6.96v3.33h6.5v4.72h-6.5v3.75h7.23v4.9h-13.28v-21.59h13Z" fill="#231f20" stroke-width="0"/>
          <path d="M472.99,132.5v1.6h-5.87v-2.21c0-1.36-.36-2.21-1.36-2.21-1.51,0-1.51,1.54-1.51,7.26s0,7.2,1.6,7.2c1.39,0,1.39-2.12,1.39-4.72v-.61h5.87v1.03c0,5.2-1.69,8.29-7.35,8.29-7.74,0-7.74-4.42-7.74-11.19s.15-11.25,7.77-11.25c5.57,0,7.2,2.39,7.2,6.8Z" fill="#231f20" stroke-width="0"/>
          <path d="M490.62,126.12v15.58c0,1.66.24,2.45,1.39,2.45s1.39-.76,1.39-2.45v-15.58h6.05v14.43c0,5.08-2.15,7.59-7.47,7.59-5.87,0-7.41-2.51-7.41-7.53v-14.49h6.05Z" fill="#231f20" stroke-width="0"/>
          <path d="M520.8,126.12c3.84,0,5.81,1.91,5.81,5.66,0,2.99-1.12,4.78-3.6,5.2v.06c2.36.24,3.45,1.69,3.45,5.23v2.48c0,1.48.33,2.42.91,2.66v.3h-6.41c-.3-.36-.45-1.57-.45-2.93v-3.54c0-1.33-.51-2.03-1.54-2.03h-1.33v8.5h-6.05v-21.59h9.22ZM517.63,135.23h.67c1.72,0,2.27-.91,2.27-2.54,0-1.42-.45-2.21-2.36-2.21h-.57v4.75Z" fill="#231f20" stroke-width="0"/>
          <path d="M544.66,126.12v21.59h-6.05v-21.59h6.05Z" fill="#231f20" stroke-width="0"/>
          <path d="M569.67,126.12v5.08h-4.11v16.51h-6.05v-16.51h-4.11v-5.08h14.27Z" fill="#231f20" stroke-width="0"/>
          <path d="M585.91,126.12l1.72,7.53h.06l1.88-7.53h6.56l-5.44,13.1v8.5h-6.05v-8.5l-5.44-13.1h6.71Z" fill="#231f20" stroke-width="0"/>
        </g>
        <g>
          <path d="M133.36,29.43c12.04,0,18.19,3.14,22.24,6.54,6.67,5.63,8.64,13.08,8.64,19.63,0,8.5-3.4,15.96-10.21,20.54-2.22,1.57-5.36,3.01-9.55,3.79l27.22,36.77h-21.2l-23.29-35.07h-2.09v35.07h-17.01V29.43h25.25ZM125.12,69.6h4.84c3.27,0,16.75-.39,16.75-13.22s-13.35-13.08-16.49-13.08h-5.1v26.3Z" fill="#d11f26" stroke-width="0"/>
          <path d="M225.56,44.08h-31.4v19.5h30.09v14.66h-30.09v23.81h31.4v14.65h-48.41V29.43h48.41v14.66Z" fill="#d11f26" stroke-width="0"/>
          <path d="M258.75,29.43c12.17,0,22.77,1.31,32.45,8.5,10.6,7.98,16.75,20.67,16.75,35.2s-6.02,27.08-17.53,35.2c-10.21,7.2-19.76,8.37-31.93,8.37h-22.5V29.43h22.77ZM252.99,102.05h5.23c4.32,0,13.74-.26,21.33-5.76,6.93-4.97,10.86-13.87,10.86-23.16s-3.79-18.06-10.73-23.29c-7.07-5.23-15.7-5.76-21.46-5.76h-5.23v57.96Z" fill="#d11f26" stroke-width="0"/>
          <path d="M359.19,44.21c-5.37-10.47-14.79-10.73-17.14-10.73-10.34,0-16.22,7.46-16.22,16.22,0,9.42,6.54,12.56,15.31,16.88,8.64,4.19,12.95,6.02,17.4,9.16,3.79,2.62,9.29,7.2,9.29,16.88,0,14.65-12.3,25.51-27.22,25.51-11.25,0-17.01-5.37-20.28-9.16-3.4-3.93-4.84-7.33-5.63-9.55l4.97-2.36c1.18,3.4,3.4,6.8,4.71,8.37,3.93,4.97,10.34,7.46,16.36,7.46,11.78,0,21.07-8.64,21.07-20.15,0-4.71-1.83-9.68-8.5-13.74-2.49-1.44-7.59-4.06-14.79-7.59-8.64-4.19-12.95-6.54-15.96-11.51-1.96-3.27-2.75-6.54-2.75-9.94,0-10.08,6.8-21.72,22.37-21.72,8.77,0,16.75,4.19,21.2,12.43l-4.19,3.53Z" fill="#231f20" stroke-width="0"/>
          <path d="M386.36,29.43v87.27h-5.76V29.43h5.76Z" fill="#231f20" stroke-width="0"/>
          <path d="M445.72,34.66h-36.11v31.66h35.33v5.23h-35.33v39.91h36.11v5.23h-41.87V29.43h41.87v5.23Z" fill="#231f20" stroke-width="0"/>
          <path d="M504.02,74.83h36.64c0,7.98-1.7,19.5-8.9,28.66-7.72,9.81-19.5,14.65-32.84,14.65-25.65,0-45.14-18.84-45.14-44.88s20.15-45.01,45.53-45.01c12.3,0,20.54,4.19,27.35,9.42,3.66,2.88,6.94,6.02,10.47,10.99l-4.58,3.66c-2.49-4.19-6.02-7.72-8.37-9.68-5.5-4.58-14.13-9.16-24.99-9.16-22.38,0-39.38,17.79-39.38,40.04s16.49,39.38,38.99,39.38c14.92,0,25.65-7.59,30.36-14.79,3.4-5.23,5.5-12.43,5.76-18.06h-30.88v-5.23Z" fill="#231f20" stroke-width="0"/>
          <path d="M595.31,34.66h-36.11v31.66h35.33v5.23h-35.33v39.91h36.11v5.23h-41.87V29.43h41.87v5.23Z" fill="#231f20" stroke-width="0"/>
        </g>
      </g>
    </g>
  </g>
</svg>