<svg id="Layer_1" data-name="Layer 1" xmlns="http://www.w3.org/2000/svg" viewBox="0 0 115 44.72"><defs><style>.cls-1{fill:#004d8c;}.cls-2{fill:#99b8d1;}.cls-3{fill:#75a9cc;}.cls-4{fill:#fff;}.cls-5{fill:#002746;}.cls-6{fill:#003a69;}</style></defs><polygon class="cls-1" points="0.44 13.79 3.71 33.83 17.4 42.42 31.09 33.83 34.35 13.79 17.4 5.45 0.44 13.79"/><polygon class="cls-2" points="6.26 32.14 3.53 15.38 17.4 8.56 31.26 15.38 28.53 32.14 17.4 39.12 6.26 32.14"/><polygon class="cls-3" points="17.22 9.63 17.22 13.28 16.03 11.62 12.3 11.95 17.22 9.63"/><polygon class="cls-3" points="4.51 15.82 7 14.63 5.62 16.6 5.29 20.94 4.51 15.82"/><polygon class="cls-3" points="28.61 27.26 27.86 31.46 25.38 33.03 27.35 30.74 28.61 27.26"/><polygon class="cls-3" points="17.4 35.51 17.4 38.23 19.8 36.73 18.03 36.99 17.4 35.51"/><path class="cls-4" d="M20.37,8.57l.22-.6A10.45,10.45,0,0,1,24.32,9.2l-.49.05h-.07a10.26,10.26,0,0,0-2.42-.8l-.61-.11a11.41,11.41,0,0,1,2.46,1c.13.08.25.15.37.24h0l0,.32A11.58,11.58,0,0,0,20.37,8.57Z"/><polygon class="cls-4" points="8.51 33.57 5.22 34.94 5.94 31.45 22.96 11.61 23 13.32 24.72 13.05 8.51 33.57"/><path class="cls-4" d="M24.74,13l-1.5,0L23,11.58l.68-.81v.05l-.53.78.55-.55v0l-.52.76.54-.54v.06l-.5.75.52-.53v.06l-.49.73.51-.52v.07l-.49.71.53-.52,0,0-.51.75.64-.64,0,0-.41.61.61-.61h.06l-.41.61.63-.63h.05l-.41.62.63-.65h.06l-.43.63.65-.65h.05l-.43.65.66-.67h.08Z"/><path class="cls-4" d="M28.73,14.66l-.55.33a12.18,12.18,0,0,0-1.92-2.9l.31,0h0a9.87,9.87,0,0,1,1.48,2c.1.17.19.35.28.52a11.25,11.25,0,0,0-1.21-2.43c-.09-.13-.18-.26-.28-.38v-.07l-.05-.48A10.36,10.36,0,0,1,28.73,14.66Z"/><polygon class="cls-4" points="26.69 10.09 26.69 10.09 26.69 10.08 26.69 10.09"/><path class="cls-4" d="M26.35,9.31l.24,2.44a0,0,0,0,1,0,0l0,0L24.1,12h0v0l-.24-2.45s0,0,0,0h0l2.44-.24h0S26.35,9.29,26.35,9.31Z"/><path class="cls-4" d="M26.79,9.73a1.77,1.77,0,0,0-.16-.22l0-.23v0A2,2,0,0,1,26.79,9.73Z"/><path class="cls-4" d="M27.06,9.39a1.75,1.75,0,0,0-.44-.46,1.37,1.37,0,0,1,.3.63,1.69,1.69,0,0,0-.35-.41.23.23,0,0,0-.07-.07A.26.26,0,0,0,26.28,9l-.81.08L26,8.51a1.28,1.28,0,0,1,1,.79Z"/><path class="cls-4" d="M27.72,8.55a1.5,1.5,0,0,0-.44-.43,1.38,1.38,0,0,1,.31.6,1.54,1.54,0,0,0-.44-.44,1.31,1.31,0,0,1,.3.6A1.36,1.36,0,0,0,27,8.45a1.36,1.36,0,0,1,.3.6,1.39,1.39,0,0,0-.43-.44.71.71,0,0,1,.1.14,1.52,1.52,0,0,0-.79-.47l.5-.56a1.27,1.27,0,0,1,1,.76A.64.64,0,0,1,27.72,8.55Z"/><path class="cls-4" d="M28.25,7.88a1.44,1.44,0,0,0-.44-.41,1.45,1.45,0,0,1,.31.57,1.41,1.41,0,0,0-.44-.4,1.38,1.38,0,0,1,.31.57,1.44,1.44,0,0,0-.44-.41,1.71,1.71,0,0,1,.11.14,1.55,1.55,0,0,0-.76-.45L27.34,7a1.25,1.25,0,0,1,.74.39l-.14-.09A1.28,1.28,0,0,1,28.25,7.88Z"/><path class="cls-4" d="M28.79,7.2a1.46,1.46,0,0,0-.45-.37,1.27,1.27,0,0,1,.31.54A1.35,1.35,0,0,0,28.21,7a1.37,1.37,0,0,1,.31.55l-.07-.09a1.5,1.5,0,0,0-.91-.66l.38-.42a1.26,1.26,0,0,1,.75.42,1.37,1.37,0,0,0-.2-.13A1.49,1.49,0,0,1,28.79,7.2Z"/><path class="cls-4" d="M29.32,6.53a1.52,1.52,0,0,0-.45-.35,1.27,1.27,0,0,1,.32.52,1.47,1.47,0,0,0-.46-.36,1.17,1.17,0,0,1,.32.53l0,0a1.52,1.52,0,0,0-.9-.69l.33-.36A1.24,1.24,0,0,1,29,6,1.38,1.38,0,0,1,29.32,6.53Z"/><path class="cls-4" d="M29.72,6a1.41,1.41,0,0,0-.46-.34,1.5,1.5,0,0,1,.33.5A1.38,1.38,0,0,0,29.33,6a1.45,1.45,0,0,0-.68-.42l.28-.31a1.31,1.31,0,0,1,.77.47,1.92,1.92,0,0,0-.31-.18A1.29,1.29,0,0,1,29.72,6Z"/><path class="cls-4" d="M30,5.65A1.53,1.53,0,0,0,29.13,5l.29-.33a1.69,1.69,0,0,0,.35.41l.19.13a1.35,1.35,0,0,1,.16.29,1.33,1.33,0,0,0-.46-.31A1.22,1.22,0,0,1,30,5.65Z"/><path class="cls-4" d="M31.8,4.72a1.32,1.32,0,1,1-.18-1.86A1.33,1.33,0,0,1,31.8,4.72Z"/><path class="cls-1" d="M24.35,13.26l-1.5.28h0l0,.42L8.68,31.42A5,5,0,0,1,7,32.73l15.8-19.19-.41.05L8,30.87a5,5,0,0,0-1,1.86L5.45,34.66l3-1.25h0Z"/><path class="cls-1" d="M24.5,10.07a.29.29,0,0,0-.07.22l.08.86a.33.33,0,0,0,.11.21.37.37,0,0,0,.23.07l.85-.09A.3.3,0,0,0,26,11l-.09-.86a.24.24,0,0,0-.11-.2.29.29,0,0,0-.22-.07L24.7,10A.31.31,0,0,0,24.5,10.07Zm1.21.84a1.08,1.08,0,0,1-.08-.2c0-.06,0-.13-.07-.21l0-.12a.12.12,0,0,0-.05-.07.11.11,0,0,0-.07,0h-.13l-.22,0a.84.84,0,0,1-.21,0l.21,0,.23,0h.12a.25.25,0,0,1,.16.06.29.29,0,0,1,.08.14l0,.13a1.8,1.8,0,0,1,0,.22A.84.84,0,0,1,25.71,10.91Z"/><path class="cls-1" d="M31.52,3A1.17,1.17,0,0,0,30,4.78,1.17,1.17,0,0,0,31.52,3Zm-.44,1.77-.06,0a.9.9,0,0,1-.22,0h-.16l-.17,0-.17-.08-.08,0,0,0,0,0L30,4.45a.86.86,0,0,1-.1-.16,1,1,0,0,1-.05-.16,1.1,1.1,0,0,1,0-.16.57.57,0,0,1,0-.13.3.3,0,0,1,0-.1.14.14,0,0,1,0-.06v.07s0,.06,0,.09a.5.5,0,0,0,0,.12.74.74,0,0,0,0,.14.91.91,0,0,0,.07.14,1,1,0,0,0,.21.26l0,0,0,0a.18.18,0,0,0,.07,0l.14.08.15.05.14,0h.28Zm.47-.47c-.26.32-.11-.46-.48-.76s-1.09,0-.83-.32a.8.8,0,0,1,1.13,0A.8.8,0,0,1,31.55,4.28Z"/><path class="cls-1" d="M25.64,11.68l.39-.07.15,0h-.83l-.3,0-.31,0a.44.44,0,0,1-.25-.08.4.4,0,0,1-.12-.22l0-.32c0-.21-.06-.4-.09-.56s0-.31-.07-.4a1,1,0,0,0,0-.15V10a2.76,2.76,0,0,0,0,.41c0,.16,0,.36,0,.57v.24a.22.22,0,0,0,0,.08.49.49,0,0,0,.19.35.56.56,0,0,0,.38.12h.16l.16,0,.3,0Z"/><path class="cls-1" d="M26.28,10.9a2.44,2.44,0,0,0,0-.27c0-.1,0-.2,0-.3V10A.51.51,0,0,0,26,9.65a.55.55,0,0,0-.37-.12H25.5l-.16,0-.56.09-.4.07-.15,0h.56l.57,0,.32,0a.38.38,0,0,1,.24.09.36.36,0,0,1,.13.22l0,.31a2.43,2.43,0,0,0,0,.3c0,.1,0,.19,0,.27s.06.3.08.4l0,.15V11.3A2.61,2.61,0,0,0,26.28,10.9Z"/><path class="cls-5" d="M31.79,2.66a1.58,1.58,0,0,0-2.23.21,1.61,1.61,0,0,0-.26,1.57L25.08,9.12l-.31,0a11,11,0,0,0-4.25-1.46h-.1L20,8.75l.14,0a11.7,11.7,0,0,1,3.45,1.43l0,.19-7.41,8.64-.52.6-.7.82h0l-1.39,1.62-.14.16h0l-.24.29L5.72,31.31a.07.07,0,0,0,0,.06l-.78,3.76a.13.13,0,0,0,.18.15L8.64,33.8l0,0,9.2-11.64L19,20.71l.31-.39.31-.4h0l.93-1.17.24-.3,5-6.31.16,0A11.7,11.7,0,0,1,28,15.24l.06.13,1-.59,0-.09a10.8,10.8,0,0,0-2.25-3.9l0-.31,3.79-5a1.58,1.58,0,0,0,1.27-2.78ZM20.37,8.57l.22-.6A10.45,10.45,0,0,1,24.32,9.2l-.49.05h-.07a10.26,10.26,0,0,0-2.42-.8l-.61-.11a11.41,11.41,0,0,1,2.46,1c.13.08.25.15.37.24h0l0,.32A11.58,11.58,0,0,0,20.37,8.57Zm-11.86,25L5.22,34.94l.72-3.49L23,11.61l0,1.71,1.72-.27ZM24.74,13l-1.5,0L23,11.58l.68-.81v.05l-.53.78.55-.55v0l-.52.76.54-.54v.06l-.5.75.52-.53v.06l-.49.73.51-.52v.07l-.49.71.53-.52,0,0-.51.75.64-.64,0,0-.41.61.61-.61h.06l-.41.61.63-.63h.05l-.41.62.63-.65h.06l-.43.63.65-.65h.05l-.43.65.66-.67h.08Zm4,1.64-.55.33a12.18,12.18,0,0,0-1.92-2.9l.31,0h0a9.87,9.87,0,0,1,1.48,2c.1.17.19.35.28.52a11.25,11.25,0,0,0-1.21-2.43c-.09-.13-.18-.26-.28-.38v-.07l-.05-.48A10.36,10.36,0,0,1,28.73,14.66Zm-2-4.57Zm-.34-.78.24,2.44a0,0,0,0,1,0,0l0,0L24.1,12h0v0l-.24-2.45s0,0,0,0h0l2.44-.24h0S26.35,9.29,26.35,9.31Zm.44.42a1.77,1.77,0,0,0-.16-.22l0-.23v0A2,2,0,0,1,26.79,9.73Zm.27-.34a1.75,1.75,0,0,0-.44-.46,1.37,1.37,0,0,1,.3.63,1.69,1.69,0,0,0-.35-.41.23.23,0,0,0-.07-.07A.26.26,0,0,0,26.28,9l-.81.08L26,8.51a1.28,1.28,0,0,1,1,.79Zm.66-.84a1.5,1.5,0,0,0-.44-.43,1.38,1.38,0,0,1,.31.6,1.54,1.54,0,0,0-.44-.44,1.31,1.31,0,0,1,.3.6A1.36,1.36,0,0,0,27,8.45a1.36,1.36,0,0,1,.3.6,1.39,1.39,0,0,0-.43-.44.71.71,0,0,1,.1.14,1.52,1.52,0,0,0-.79-.47l.5-.56a1.27,1.27,0,0,1,1,.76A.64.64,0,0,1,27.72,8.55Zm.53-.67a1.44,1.44,0,0,0-.44-.41,1.45,1.45,0,0,1,.31.57,1.41,1.41,0,0,0-.44-.4,1.38,1.38,0,0,1,.31.57,1.44,1.44,0,0,0-.44-.41,1.71,1.71,0,0,1,.11.14,1.55,1.55,0,0,0-.76-.45L27.34,7a1.25,1.25,0,0,1,.74.39l-.14-.09A1.28,1.28,0,0,1,28.25,7.88Zm.54-.68a1.46,1.46,0,0,0-.45-.37,1.27,1.27,0,0,1,.31.54A1.35,1.35,0,0,0,28.21,7a1.37,1.37,0,0,1,.31.55l-.07-.09a1.5,1.5,0,0,0-.91-.66l.38-.42a1.26,1.26,0,0,1,.75.42,1.37,1.37,0,0,0-.2-.13A1.49,1.49,0,0,1,28.79,7.2Zm.53-.67a1.52,1.52,0,0,0-.45-.35,1.27,1.27,0,0,1,.32.52,1.47,1.47,0,0,0-.46-.36,1.17,1.17,0,0,1,.32.53l0,0a1.52,1.52,0,0,0-.9-.69l.33-.36A1.24,1.24,0,0,1,29,6,1.38,1.38,0,0,1,29.32,6.53Zm.4-.5a1.41,1.41,0,0,0-.46-.34,1.5,1.5,0,0,1,.33.5A1.38,1.38,0,0,0,29.33,6a1.45,1.45,0,0,0-.68-.42l.28-.31a1.31,1.31,0,0,1,.77.47,1.92,1.92,0,0,0-.31-.18A1.29,1.29,0,0,1,29.72,6ZM30,5.65A1.53,1.53,0,0,0,29.13,5l.29-.33a1.69,1.69,0,0,0,.35.41l.19.13a1.35,1.35,0,0,1,.16.29,1.33,1.33,0,0,0-.46-.31A1.22,1.22,0,0,1,30,5.65Zm1.83-.93a1.32,1.32,0,1,1-.18-1.86A1.33,1.33,0,0,1,31.8,4.72Z"/><path class="cls-4" d="M11.22,9.9l0-.32h0c.12-.09.24-.16.37-.24a11.54,11.54,0,0,1,2.45-1l-.6.11a10.11,10.11,0,0,0-2.42.8H11l-.49-.05A10.45,10.45,0,0,1,14.22,8l.21.6A11.64,11.64,0,0,0,11.22,9.9Z"/><polygon class="cls-4" points="10.09 13.05 11.8 13.32 11.85 11.61 28.87 31.45 29.59 34.94 26.3 33.57 10.09 13.05"/><path class="cls-4" d="M9.4,12.17h.08l.66.67-.43-.65h0l.66.65L10,12.23h0l.64.65-.42-.62h.06l.63.63-.41-.61h.06l.61.61-.41-.61,0,0,.64.64L11,12.16l0,0,.52.52L11,11.94v-.07l.51.52-.49-.73V11.6l.53.53-.51-.75v-.06l.54.54-.52-.76v0l.55.55-.53-.78v-.05l.69.81-.25,1.48-1.5,0Z"/><path class="cls-4" d="M8,11.25l0,.48v.07c-.1.12-.2.25-.29.38a11.69,11.69,0,0,0-1.2,2.43c.09-.17.18-.35.28-.52a9.87,9.87,0,0,1,1.48-2h0l.32,0A12.18,12.18,0,0,0,6.63,15l-.55-.33A10.36,10.36,0,0,1,8,11.25Z"/><polygon class="cls-4" points="8.12 10.08 8.12 10.09 8.12 10.09 8.12 10.08"/><path class="cls-4" d="M8.47,9.28h0L11,9.51h0s0,0,0,0L10.75,12v0h0L8.26,11.8s0,0,0,0a0,0,0,0,1,0,0l.24-2.44A0,0,0,0,1,8.47,9.28Z"/><path class="cls-4" d="M8.2,9.25v0l0,.23L8,9.73A1.64,1.64,0,0,1,8.2,9.25Z"/><path class="cls-4" d="M7.78,9.3a1.27,1.27,0,0,1,1-.79l.52.58L8.53,9a.26.26,0,0,0-.22.07.23.23,0,0,0-.07.07,1.69,1.69,0,0,0-.35.41,1.46,1.46,0,0,1,.29-.63,1.71,1.71,0,0,0-.43.46Z"/><path class="cls-4" d="M7.11,8.48a1.26,1.26,0,0,1,1-.76l.5.56a1.59,1.59,0,0,0-.8.47.76.76,0,0,1,.11-.14,1.39,1.39,0,0,0-.43.44,1.26,1.26,0,0,1,.3-.6,1.5,1.5,0,0,0-.44.43,1.44,1.44,0,0,1,.31-.6,1.54,1.54,0,0,0-.44.44,1.48,1.48,0,0,1,.3-.6,1.47,1.47,0,0,0-.43.43A.14.14,0,0,1,7.11,8.48Z"/><path class="cls-4" d="M6.86,7.31l-.13.09A1.25,1.25,0,0,1,7.47,7l.43.48a1.52,1.52,0,0,0-.75.45.76.76,0,0,1,.11-.14,1.44,1.44,0,0,0-.44.41,1.38,1.38,0,0,1,.31-.57,1.41,1.41,0,0,0-.44.4A1.33,1.33,0,0,1,7,7.47a1.33,1.33,0,0,0-.44.41A1.36,1.36,0,0,1,6.86,7.31Z"/><path class="cls-4" d="M6.34,6.66a1.37,1.37,0,0,0-.2.13,1.23,1.23,0,0,1,.75-.42l.38.42a1.5,1.5,0,0,0-.91.66l-.07.09A1.37,1.37,0,0,1,6.6,7a1.5,1.5,0,0,0-.45.38,1.41,1.41,0,0,1,.32-.54A1.36,1.36,0,0,0,6,7.2,1.49,1.49,0,0,1,6.34,6.66Z"/><path class="cls-4" d="M5.78,6a1.33,1.33,0,0,1,.58-.26l.33.36a1.49,1.49,0,0,0-.9.69l0,0a1.37,1.37,0,0,1,.32-.53,1.43,1.43,0,0,0-.45.36,1.27,1.27,0,0,1,.32-.52,1.3,1.3,0,0,0-.45.35A1.36,1.36,0,0,1,5.78,6Z"/><path class="cls-4" d="M5.41,5.53a1.49,1.49,0,0,0-.3.18,1.31,1.31,0,0,1,.77-.47l.28.31A1.45,1.45,0,0,0,5.48,6a1.38,1.38,0,0,0-.26.22,1.36,1.36,0,0,1,.33-.5A1.41,1.41,0,0,0,5.09,6,1.26,1.26,0,0,1,5.41,5.53Z"/><path class="cls-4" d="M5.15,5.21a1.33,1.33,0,0,0-.46.31,1.35,1.35,0,0,1,.16-.29A1.18,1.18,0,0,0,5,5.1a1.5,1.5,0,0,0,.35-.41l.3.33a1.55,1.55,0,0,0-.85.63A1.38,1.38,0,0,1,5.15,5.21Z"/><path class="cls-4" d="M3.19,2.86A1.32,1.32,0,1,1,3,4.72,1.31,1.31,0,0,1,3.19,2.86Z"/><path class="cls-1" d="M10.46,13.26l1.5.28h0l0,.42L26.13,31.42a4.86,4.86,0,0,0,1.64,1.31L12,13.54l.42.05L26.8,30.87a5,5,0,0,1,1,1.86l1.59,1.93-3-1.25h0Z"/><path class="cls-1" d="M10.1,10l-.85-.08A.33.33,0,0,0,9,10a.31.31,0,0,0-.11.2L8.83,11a.3.3,0,0,0,.27.33l.86.09a.39.39,0,0,0,.23-.07.33.33,0,0,0,.11-.21l.08-.86a.29.29,0,0,0-.07-.22A.31.31,0,0,0,10.1,10Zm-1,.74,0-.22s0-.08,0-.13a.31.31,0,0,1,.09-.14.23.23,0,0,1,.16-.06h.12l.22,0,.22,0a1,1,0,0,1-.21,0l-.22,0H9.4a.13.13,0,0,0-.08,0,.1.1,0,0,0,0,.07l0,.12q0,.12-.06.21a1.6,1.6,0,0,1-.09.2S9.09,10.83,9.1,10.7Z"/><path class="cls-1" d="M3.13,4.62A1.16,1.16,0,1,0,3.29,3,1.17,1.17,0,0,0,3.13,4.62Zm.58.12H4l.14,0,.14-.05.15-.08a.18.18,0,0,0,.07,0l0,0,0,0a1,1,0,0,0,.21-.26s0-.09.07-.14,0-.09,0-.14,0-.08,0-.12,0-.07,0-.09V3.68a.14.14,0,0,1,0,.06s0,.06,0,.1A.57.57,0,0,1,5,4a1,1,0,0,1,0,.16.52.52,0,0,1-.06.16.51.51,0,0,1-.09.16l-.14.15,0,0,0,0-.08,0-.18.08a.47.47,0,0,1-.17,0H4a.8.8,0,0,1-.22,0l-.06,0ZM3.44,3.17a.8.8,0,0,1,1.13,0c.26.31-.47,0-.84.32s-.22,1.08-.48.76A.8.8,0,0,1,3.44,3.17Z"/><path class="cls-1" d="M9.17,11.68l-.4-.07-.15,0h.83l.3,0,.32,0a.38.38,0,0,0,.24-.08.36.36,0,0,0,.13-.22l0-.32c0-.21.06-.4.09-.56a3.9,3.9,0,0,1,.07-.4,1,1,0,0,1,0-.15v.56c0,.16,0,.36,0,.57v.24a.22.22,0,0,1,0,.08.58.58,0,0,1-.19.35.59.59,0,0,1-.38.12H9.9l-.16,0-.3,0Z"/><path class="cls-1" d="M8.53,10.9v-.27c0-.1,0-.2,0-.3V10a.61.61,0,0,1,.19-.35.59.59,0,0,1,.38-.12h.17l.15,0,.57.09.4.07.15,0H10l-.57,0-.32,0a.36.36,0,0,0-.24.09.32.32,0,0,0-.13.22l0,.31c0,.11,0,.21,0,.3s0,.19,0,.27l-.08.4c0,.09,0,.15,0,.15a1.08,1.08,0,0,1,0-.16C8.52,11.21,8.52,11.07,8.53,10.9Z"/><path class="cls-5" d="M2.8,4.89a1.6,1.6,0,0,0,1.49.55l3.79,5,0,.31a10.66,10.66,0,0,0-2.25,3.9l0,.09,1,.59.07-.13a11.7,11.7,0,0,1,2.07-3.12l.15,0,5,6.31.23.3.94,1.17h0l.31.4.31.39,1.11,1.41,9.2,11.64.05,0,3.54,1.48a.17.17,0,0,0,.14,0,.12.12,0,0,0,0-.13l-.77-3.76a.07.07,0,0,0,0-.06l-7.52-8.77-.24-.29h0l-.14-.16-1.4-1.62h0l-.69-.82-.52-.6-7.41-8.64,0-.19a11.7,11.7,0,0,1,3.45-1.43l.14,0-.39-1.07h-.1A11,11,0,0,0,10,9.15l-.32,0L5.51,4.44a1.61,1.61,0,0,0-.26-1.57,1.59,1.59,0,0,0-2.45,2Zm8.42,5,0-.32h0c.12-.09.24-.16.37-.24a11.54,11.54,0,0,1,2.45-1l-.6.11a10.11,10.11,0,0,0-2.42.8H11l-.49-.05A10.45,10.45,0,0,1,14.22,8l.21.6A11.64,11.64,0,0,0,11.22,9.9Zm-1.13,3.15,1.71.27,0-1.71,17,19.84.72,3.49L26.3,33.57Zm-.69-.88h.08l.66.67-.43-.65h0l.66.65L10,12.23h0l.64.65-.42-.62h.06l.63.63-.41-.61h.06l.61.61-.41-.61,0,0,.64.64L11,12.16l0,0,.52.52L11,11.94v-.07l.51.52-.49-.73V11.6l.53.53-.51-.75v-.06l.54.54-.52-.76v0l.55.55-.53-.78v-.05l.69.81-.25,1.48-1.5,0ZM8,11.25l0,.48v.07c-.1.12-.2.25-.29.38a11.69,11.69,0,0,0-1.2,2.43c.09-.17.18-.35.28-.52a9.87,9.87,0,0,1,1.48-2h0l.32,0A12.18,12.18,0,0,0,6.63,15l-.55-.33A10.36,10.36,0,0,1,8,11.25Zm.11-1.17h0Zm.35-.8h0L11,9.51h0s0,0,0,0L10.75,12v0h0L8.26,11.8s0,0,0,0a0,0,0,0,1,0,0l.24-2.44A0,0,0,0,1,8.47,9.28Zm-.27,0v0l0,.23L8,9.73A1.64,1.64,0,0,1,8.2,9.25Zm-.42.05a1.27,1.27,0,0,1,1-.79l.52.58L8.53,9a.26.26,0,0,0-.22.07.23.23,0,0,0-.07.07,1.69,1.69,0,0,0-.35.41,1.46,1.46,0,0,1,.29-.63,1.71,1.71,0,0,0-.43.46Zm-.67-.82a1.26,1.26,0,0,1,1-.76l.5.56a1.59,1.59,0,0,0-.8.47.76.76,0,0,1,.11-.14,1.39,1.39,0,0,0-.43.44,1.26,1.26,0,0,1,.3-.6,1.5,1.5,0,0,0-.44.43,1.44,1.44,0,0,1,.31-.6,1.54,1.54,0,0,0-.44.44,1.48,1.48,0,0,1,.3-.6,1.47,1.47,0,0,0-.43.43A.14.14,0,0,1,7.11,8.48ZM6.86,7.31l-.13.09A1.25,1.25,0,0,1,7.47,7l.43.48a1.52,1.52,0,0,0-.75.45.76.76,0,0,1,.11-.14,1.44,1.44,0,0,0-.44.41,1.38,1.38,0,0,1,.31-.57,1.41,1.41,0,0,0-.44.4A1.33,1.33,0,0,1,7,7.47a1.33,1.33,0,0,0-.44.41A1.36,1.36,0,0,1,6.86,7.31Zm-.52-.65a1.37,1.37,0,0,0-.2.13,1.23,1.23,0,0,1,.75-.42l.38.42a1.5,1.5,0,0,0-.91.66l-.07.09A1.37,1.37,0,0,1,6.6,7a1.5,1.5,0,0,0-.45.38,1.41,1.41,0,0,1,.32-.54A1.36,1.36,0,0,0,6,7.2,1.49,1.49,0,0,1,6.34,6.66ZM5.78,6a1.33,1.33,0,0,1,.58-.26l.33.36a1.49,1.49,0,0,0-.9.69l0,0a1.37,1.37,0,0,1,.32-.53,1.43,1.43,0,0,0-.45.36,1.27,1.27,0,0,1,.32-.52,1.3,1.3,0,0,0-.45.35A1.36,1.36,0,0,1,5.78,6Zm-.37-.51a1.49,1.49,0,0,0-.3.18,1.31,1.31,0,0,1,.77-.47l.28.31A1.45,1.45,0,0,0,5.48,6a1.38,1.38,0,0,0-.26.22,1.36,1.36,0,0,1,.33-.5A1.41,1.41,0,0,0,5.09,6,1.26,1.26,0,0,1,5.41,5.53Zm-.26-.32a1.33,1.33,0,0,0-.46.31,1.35,1.35,0,0,1,.16-.29A1.18,1.18,0,0,0,5,5.1a1.5,1.5,0,0,0,.35-.41l.3.33a1.55,1.55,0,0,0-.85.63A1.38,1.38,0,0,1,5.15,5.21Zm-2-2.35A1.32,1.32,0,1,1,3,4.72,1.31,1.31,0,0,1,3.19,2.86Z"/><polygon class="cls-1" points="10.27 29.15 8.52 18.43 17.4 14.06 26.27 18.43 24.53 29.15 17.4 33.63 10.27 29.15"/><polygon class="cls-6" points="17.4 33.63 24.53 29.15 26.27 18.43 17.4 14.06 17.4 33.63"/><path class="cls-4" d="M15.8,22.18a7.34,7.34,0,0,1-.65,2.45C15,25,14.66,25.75,14.07,27l-.75-2.49a.12.12,0,0,0-.08.05,4.56,4.56,0,0,0-.34.7c-.2.48-.3.73-.31.74l-.44.91c0-.07-.13-.39-.3-1l-.63-2.22-.36-1.36a6.68,6.68,0,0,0-.41-1.26.53.53,0,0,0-.17-.16.78.78,0,0,1-.19-.12H11.7c-.18.1-.27.22-.27.35s.17.64.5,1.78.56,2,.59,2.11l.07.07a1.8,1.8,0,0,0,.34-.61,2.63,2.63,0,0,0,.23-.66c0-.05-.13-.5-.38-1.37s-.39-1.32-.42-1.38a.52.52,0,0,0-.19-.16q-.15-.07-.15-.12l1.05,0a4.47,4.47,0,0,1,.59,0c-.2.07-.3.16-.3.25a19.83,19.83,0,0,0,.53,2c.36,1.23.57,1.94.66,2.13h0a.05.05,0,0,0,0,0A4.9,4.9,0,0,0,15,24.08a4.73,4.73,0,0,0,.23-1.22,2.4,2.4,0,0,0-.22-1,1.18,1.18,0,0,0-.76-.68l.49-.24a2.61,2.61,0,0,1,.44-.2s.12.07.22.22A2.22,2.22,0,0,1,15.8,22.18Z"/><path class="cls-4" d="M20.41,24.91A2.84,2.84,0,0,1,19,27.36a3.4,3.4,0,0,0,.89-2,2.37,2.37,0,0,0-.73-1.48,2,2,0,0,0-1.4-.84.47.47,0,0,0-.3.1.32.32,0,0,0-.13.27v2.08a2.75,2.75,0,0,0,.11,1.06.34.34,0,0,0,.16.13q.11,0,.12.09H16v-.06a.77.77,0,0,0,.4-.34,2.61,2.61,0,0,0,0-.54V21.46a.51.51,0,0,0-.09-.35l-.26-.2v-.05h1.65V21c-.27.05-.4.31-.4.79v.41a2.65,2.65,0,0,1,0,.4.16.16,0,0,0,.1,0c.19,0,.47-.17.83-.53s.54-.63.54-.82a.21.21,0,0,0-.1-.19l-.22-.1v-.09l1.62,0a2.79,2.79,0,0,0-.66.54l-.59.64a5.39,5.39,0,0,0-.6.53,1.21,1.21,0,0,1,.55.18,1.65,1.65,0,0,0,.42.2,5.2,5.2,0,0,1,.6.54,1.93,1.93,0,0,1,.42.68C20.26,24.21,20.31,24.47,20.41,24.91Z"/><path class="cls-4" d="M24.35,25.56A9.76,9.76,0,0,1,23.66,27h-.1l.06,0a.71.71,0,0,0-.15-.16,7,7,0,0,0-1.53-.1H20.61c.32-.11.49-.44.5-1,0-2.31.06-3.5.06-3.55,0-.72-.08-1.13-.24-1.22a1,1,0,0,1-.22-.16h1.74a1,1,0,0,0-.41.91L22,25.45a1.57,1.57,0,0,0,.11.73.61.61,0,0,0,.61.31,1.67,1.67,0,0,0,.94-.31,2.63,2.63,0,0,0,.7-.71Z"/><path class="cls-1" d="M42.62,16.08l-1.35-.15v-.47h2.89v.47l-1.28.15ZM46,15.46h.67l1.64,5.37-.42.54,1.66-5.91h.56L48.22,22.1h-.69L45.8,16.74l.37-.17L44.46,22.1h-.68l-2-6.64h1.35l1.41,5.37-.45.54Zm.2.62L45,15.93v-.47h2.83v.47l-1.22.15Zm3.35,0-1-.15v-.47h2.18v.47l-1,.15Z"/><path class="cls-1" d="M51.19,15.93v-.47h3v.47l-1.37.15h-.25Zm1.59,5.51,1.37.15v.46h-3v-.46l1.34-.15ZM52,18.54c0-1,0-2.05,0-3.08h1.34c0,1,0,2,0,3.08v.31c0,1.15,0,2.18,0,3.2H52c0-1,0-2,0-3.08Zm.64.39v-.52h4v.52Zm2.5-3v-.47h3v.47l-1.36.15h-.24Zm1.6,5.51,1.36.15v.46h-3v-.46l1.36-.15ZM56,18.54c0-1,0-2.05,0-3.08h1.35c0,1,0,2,0,3.08V19c0,1,0,2.06,0,3.08H56c0-1,0-2,0-3.2Z"/><path class="cls-1" d="M58.92,15.93v-.47h3v.47l-1.38.15h-.25Zm1.62,5.51,1.38.15v.46h-3v-.46l1.37-.15Zm-.77-2.9c0-1,0-2.05,0-3.08h1.35c0,1,0,2,0,3.08V19c0,1,0,2.06,0,3.08H59.74c0-1,0-2,0-3.08Z"/><path class="cls-1" d="M62.9,16l.58-.53-.28,1.81h-.7l.06-1.81h5.63l0,1.81h-.69l-.29-1.81.59.53Zm2.63,5.45,1.44.15v.46H63.78v-.46l1.43-.15Zm-.8-2.9c0-1,0-2.05,0-3.08h1.35c0,1,0,2,0,3.08V19c0,1,0,2.06,0,3.08H64.7c0-1,0-2,0-3.08Z"/><path class="cls-1" d="M68.83,15.93v-.47h1.49v.62H70.2Zm1.49,5.51v.61H68.83v-.46l1.37-.15Zm-.64-2.9c0-1,0-2.05,0-3.08H71c0,1,0,2,0,3.08v.36c0,1.1,0,2.13,0,3.15H69.65c0-1,0-2,0-3.08Zm3.23-3.08.58.53H70.32v-.53h3.51l.07,1.74h-.69Zm-.37,3.47H70.32v-.52h2.22Zm1.56,1.38L74,22.05H70.32v-.52h3.37l-.58.52.3-1.74Zm-1.87-1.76.15-1h.51v2.25h-.51l-.15-1.05Z"/><path class="cls-1" d="M77,15.93v-.47h3v.47l-1.35.15h-.25Zm1.61,5.51,1.29.15v.46H77v-.46l1.36-.15Zm-.76-2.9c0-1,0-2.05,0-3.08h1.29c0,1,0,2,0,3.08v.59c0,.87,0,1.9,0,2.92H77.83c0-1,0-2,0-3.08Zm.63,1.22L82,15.46h.67l-4.16,5Zm2-2.15,2.41,4.44H81.56l-1.81-3.49Zm.1,4,1.26-.15h.19l1.25.15v.46h-2.7Zm.19-5.66v-.47h2.29v.47L82,16.08l-.25,0Z"/><path class="cls-1" d="M83.8,21.59l1-.15h.24l1.21.15v.46H83.8Zm.57-5.8.59.26-1.13-.12v-.47H85.7l3.84,5.28V22.1H89Zm.27-.33.57.47v6.12h-.57Zm3.24,0h2.5v.47l-1,.15h-.24l-1.26-.15Zm1.09,0h.57V22.1L89,21.53Z"/><path class="cls-1" d="M91,15.93v-.47h3v.47l-1.38.15h-.24Zm1.61,5.51,1.38.15v.46H91v-.46l1.37-.15Zm-.76-2.9c0-1,0-2.05,0-3.08h1.35c0,1,0,2,0,3.08V19c0,1,0,2.06,0,3.08H91.83c0-1,0-2,0-3.08Z"/><path class="cls-1" d="M100.26,21.64a4.48,4.48,0,0,1-2.22.58,3.25,3.25,0,0,1-3.39-3.47,3.26,3.26,0,0,1,3.47-3.45,4,4,0,0,1,2,.46l0,1.5h-.69l-.3-1.53.65.17v.55a2.23,2.23,0,0,0-1.52-.62c-1.23,0-2.2,1-2.2,2.92s.91,2.93,2.22,2.93a2.74,2.74,0,0,0,1.34-.37l-.6.55v-.67c0-.78,0-1.54,0-2.32h1.3c0,.77,0,1.54,0,2.34ZM98,19.33v-.46h2.81v.46l-1.13.13h-.43Z"/><path class="cls-1" d="M101.27,15.93v-.47h3v.47l-1.37.15h-.25Zm1.59,5.51,1.37.15v.46h-3v-.46l1.34-.15Zm-.74-2.9c0-1,0-2.05,0-3.08h1.34c0,1,0,2,0,3.08v.31c0,1.15,0,2.18,0,3.2h-1.34c0-1,0-2,0-3.08Zm.64.39v-.52h4v.52Zm2.51-3v-.47h3v.47l-1.36.15h-.23Zm1.59,5.51,1.36.15v.46h-3v-.46l1.36-.15Zm-.77-2.9c0-1,0-2.05,0-3.08h1.35c0,1,0,2,0,3.08V19c0,1,0,2.06,0,3.08h-1.35c0-1,0-2,0-3.2Z"/><path class="cls-1" d="M109.21,16l.59-.53-.29,1.81h-.69l.05-1.81h5.64l0,1.81h-.69l-.29-1.81.58.53Zm2.63,5.45,1.45.15v.46h-3.2v-.46l1.43-.15Zm-.8-2.9c0-1,0-2.05,0-3.08h1.35c0,1,0,2,0,3.08V19c0,1,0,2.06,0,3.08H111c0-1,0-2,0-3.08Z"/><path class="cls-1" d="M66.25,25v-.47h3V25l-1.38.15h-.28Zm1.5,5.5v.62h-1.5v-.47l1.37-.15Zm-.68-6h1.35c0,1,0,2.05,0,3.08v.61c0,.86,0,1.89,0,2.9H67.07c0-1,0-2,0-3v-.54C67.1,26.53,67.1,25.5,67.07,24.49Zm4.32,4.68-.1,1.91H67.75v-.53H71l-.65.53.39-1.91Z"/><path class="cls-1" d="M71.79,30.61l1-.15H73l1,.15v.47H71.79Zm2.89-6.15h.81l2.26,6.62H76.43l-1.84-5.64.3-.25-2,5.89H72.4Zm-1.12,4.07h2.68l.2.52h-3Zm1.81,2.09,1.19-.14H77l1.25.14v.46H75.37Z"/><path class="cls-1" d="M78.72,25v-.47h1.5v.62h-.13Zm1.5,5.5v.62h-1.5v-.47l1.37-.15Zm-.65-2.87c0-1,0-2.07,0-3.1h1.34c0,1,0,2.05,0,3.1v.29c0,1.13,0,2.17,0,3.2H79.54c0-1,0-2,0-3.1Zm.65-.18h1c1,0,1.49-.4,1.49-1.24S82.3,25,81.4,25H80.22v-.52h1.54c1.53,0,2.24.67,2.24,1.58,0,.76-.5,1.41-2,1.59v-.09c1.66.12,2.32.78,2.32,1.69s-.67,1.82-2.85,1.82H80.22v-.52h1.12c1.1,0,1.68-.46,1.68-1.31s-.54-1.35-1.72-1.35H80.22Z"/><path class="cls-1" d="M88.41,29.63c0-.59-.32-.85-1-1.15l-.4-.17c-1.09-.47-1.77-1-1.77-2.11s1-1.88,2.35-1.88a3.07,3.07,0,0,1,1.75.52l-.07,1.34h-.76l-.26-1.5.72.31v.49a2,2,0,0,0-1.4-.61,1.05,1.05,0,0,0-1.19,1c0,.58.36.9,1,1.17l.42.18c1.29.54,1.81,1.1,1.81,2.07,0,1.17-.94,1.95-2.47,1.95a4.13,4.13,0,0,1-2-.53l.06-1.43h.76l.26,1.57-.7-.26v-.48a2.74,2.74,0,0,0,1.65.58C87.91,30.7,88.41,30.28,88.41,29.63Z"/><path class="cls-4" d="M106.43,25.05l.3-.11a5.32,5.32,0,0,1,.73,1.83l-.18-.17,0,0a5,5,0,0,0-.47-1.18l-.15-.28a5.71,5.71,0,0,1,.41,1.27l0,.22h0l-.12.11A5.82,5.82,0,0,0,106.43,25.05Z"/><polygon class="cls-4" points="92.99 28.54 91.4 27.72 92.97 26.87 106.09 27.02 105.45 27.59 106.1 28.16 92.99 28.54"/><path class="cls-4" d="M106.12,28.16l-.5-.56.49-.58h.52l-.47.05.39,0h0l-.46.05.38,0,0,0-.45.05.37,0,0,0-.44.05.37,0,0,0-.43,0,.37,0v0l-.45.05.45,0v0l-.37,0,.43,0,0,0-.37,0,.45,0,0,0-.38,0,.46,0,0,0-.39,0,.47,0v0l-.39,0,.48,0,0,0Z"/><path class="cls-4" d="M106.78,30.22l-.31-.1a5.91,5.91,0,0,0,.5-1.68l.11.12h0a4.64,4.64,0,0,1-.3,1.22c0,.09-.07.19-.11.28a6.08,6.08,0,0,0,.55-1.25,1.89,1.89,0,0,0,0-.23l0,0,.17-.18A5.33,5.33,0,0,1,106.78,30.22Z"/><polygon class="cls-4" points="107.88 27.97 107.88 27.97 107.88 27.96 107.88 27.97"/><path class="cls-4" d="M108.07,27.58l-.87.88h0l-.88-.86s0,0,0,0h0l.86-.88h0l.88.86v0Z"/><path class="cls-4" d="M108.05,27.89a.79.79,0,0,0,0-.13l.08-.08v0A.84.84,0,0,1,108.05,27.89Z"/><path class="cls-4" d="M108.26,27.88a.65.65,0,0,0,0-.31.68.68,0,0,1-.14.31,1.09,1.09,0,0,0,0-.26.43.43,0,0,1,0-.05.16.16,0,0,0,0-.11l-.29-.29.39,0a.63.63,0,0,1,0,.65Z"/><path class="cls-4" d="M108.8,27.87a.82.82,0,0,0,0-.31.73.73,0,0,1-.14.31.65.65,0,0,0,0-.31.79.79,0,0,1-.13.31.8.8,0,0,0,0-.31.68.68,0,0,1-.14.31.62.62,0,0,0,0-.3.24.24,0,0,1,0,.08.83.83,0,0,0-.07-.46l.37,0a.62.62,0,0,1,0,.62Z"/><path class="cls-4" d="M109.23,27.85a.74.74,0,0,0,0-.3.77.77,0,0,1-.12.31.76.76,0,0,0,0-.3.66.66,0,0,1-.12.3,1,1,0,0,0,0-.3.29.29,0,0,0,0,.09.75.75,0,0,0-.08-.44h.33a.62.62,0,0,1,.09.41.25.25,0,0,0,0-.08A.66.66,0,0,1,109.23,27.85Z"/><path class="cls-4" d="M109.66,27.84a.57.57,0,0,0,0-.29.76.76,0,0,1-.1.3.76.76,0,0,0,0-.3.64.64,0,0,1-.11.3s0,0,0-.06a.73.73,0,0,0,0-.56h.29a.63.63,0,0,1,.07.42.45.45,0,0,0,0-.11A.65.65,0,0,1,109.66,27.84Z"/><path class="cls-4" d="M110.09,27.83a.57.57,0,0,0,0-.29.58.58,0,0,1-.09.29,1,1,0,0,0,0-.29.76.76,0,0,1-.1.3v0a.75.75,0,0,0,0-.57h.24a.61.61,0,0,1,.09.31A.63.63,0,0,1,110.09,27.83Z"/><path class="cls-4" d="M110.42,27.82a.67.67,0,0,0,0-.28.75.75,0,0,1-.09.29.54.54,0,0,0,0-.18.67.67,0,0,0-.06-.39h.22a.67.67,0,0,1,.06.44.47.47,0,0,0,0-.17A.57.57,0,0,1,110.42,27.82Z"/><path class="cls-4" d="M110.64,27.8a.7.7,0,0,0,0-.53h.22a1.1,1.1,0,0,0,0,.27.45.45,0,0,0,0,.11.47.47,0,0,1-.06.15.67.67,0,0,0,0-.28A.6.6,0,0,1,110.64,27.8Z"/><path class="cls-4" d="M111.59,28.2a.66.66,0,1,1,.66-.67A.66.66,0,0,1,111.59,28.2Z"/><path class="cls-1" d="M105.9,28.09l-.59-.49h0l-.15.14-11.29.17a2.43,2.43,0,0,1-1-.2l12.47-.11-.15-.14-11.29,0a2.42,2.42,0,0,0-1,.23H91.58l1.44.74h0Z"/><path class="cls-1" d="M107.18,27.12a.15.15,0,0,0-.11,0l-.3.31a.15.15,0,0,0,0,.22l.31.3a.15.15,0,0,0,.21,0l.31-.31a.15.15,0,0,0,0-.11.21.21,0,0,0,0-.11l-.31-.3A.15.15,0,0,0,107.18,27.12Zm.07.74a.36.36,0,0,1,0-.1.24.24,0,0,1,.06-.09l0-.05a.09.09,0,0,0,0-.05.08.08,0,0,0,0,0l0-.05-.06-.09-.05-.1a.5.5,0,0,1,.08.08l.08.08,0,0a.16.16,0,0,1,0,.08.11.11,0,0,1,0,.08.1.1,0,0,1,0,.05l-.07.08Z"/><path class="cls-1" d="M112.17,27.53a.59.59,0,0,0-1.17,0,.6.6,0,0,0,.59.58A.59.59,0,0,0,112.17,27.53Zm-.83.41s0,0,0,0a.18.18,0,0,1-.09-.07l0-.06a.2.2,0,0,1,0-.08l0-.09a.11.11,0,0,0,0-.05v-.05a.29.29,0,0,1,0-.09.16.16,0,0,1,0-.09.3.3,0,0,1,0-.08l0-.06.05,0,0,0h0l0,0,0,0,0,.05a.21.21,0,0,1,0,.06l0,.07a.47.47,0,0,0,0,.17v.08s0,.06,0,.08l0,.08a.21.21,0,0,0,0,.06l.06.08,0,0Zm.34,0c-.21,0,.14-.2.14-.43s-.35-.43-.15-.43a.41.41,0,0,1,.38.42A.42.42,0,0,1,111.68,28Z"/><path class="cls-1" d="M106.92,28.07l.16.13.06.05,0-.06L107,28l-.09-.1-.1-.11-.11-.11a.18.18,0,0,1,0-.12.17.17,0,0,1,0-.12l.11-.12.19-.21.12-.16,0-.06-.06,0-.15.14c-.07,0-.14.12-.22.19l0,.06,0,0,0,0a.25.25,0,0,0,0,.37h0l0,0,.06.05a1.14,1.14,0,0,1,.11.11Z"/><path class="cls-1" d="M107.44,28.07l.1-.09.11-.1.06-.06,0,0h0a.29.29,0,0,0,.07-.18.27.27,0,0,0-.08-.19l0,0,0,0-.06-.06-.21-.19-.16-.13-.06,0,.05.06.13.15a1.8,1.8,0,0,0,.19.21l.11.12a.17.17,0,0,1,0,.12.18.18,0,0,1,0,.12l-.1.12a1.14,1.14,0,0,0-.11.11l-.08.1a1.31,1.31,0,0,0-.13.16l0,.06.06-.05Z"/><path class="cls-5" d="M112.38,27.53a.79.79,0,0,0-.8-.79.82.82,0,0,0-.69.41L107.73,27l-.11-.11a5.59,5.59,0,0,0-.81-2.11l0,0-.53.19,0,.07a6,6,0,0,1,.56,1.79l-.07.07-5.71-.07H98.75L93,26.74h0l-1.7.91a.07.07,0,0,0,0,.06.06.06,0,0,0,0,.06l1.71.88h0l7.44-.21.9,0h.5l.75,0h.19l4-.12,0,.06a5.81,5.81,0,0,1-.53,1.8l0,.07.54.18,0,0a5.44,5.44,0,0,0,.77-2.12l.11-.11,3.16-.17a.77.77,0,0,0,.69.39A.79.79,0,0,0,112.38,27.53Zm-5.95-2.48.3-.11a5.32,5.32,0,0,1,.73,1.83l-.18-.17,0,0a5,5,0,0,0-.47-1.18l-.15-.28a5.71,5.71,0,0,1,.41,1.27l0,.22h0l-.12.11A5.82,5.82,0,0,0,106.43,25.05ZM93,28.54l-1.59-.82L93,26.87l13.12.15-.64.57.65.57Zm13.13-.38-.5-.56.49-.58h.52l-.47.05.39,0h0l-.46.05.38,0,0,0-.45.05.37,0,0,0-.44.05.37,0,0,0-.43,0,.37,0v0l-.45.05.45,0v0l-.37,0,.43,0,0,0-.37,0,.45,0,0,0-.38,0,.46,0,0,0-.39,0,.47,0v0l-.39,0,.48,0,0,0Zm.66,2.06-.31-.1a5.91,5.91,0,0,0,.5-1.68l.11.12h0a4.64,4.64,0,0,1-.3,1.22c0,.09-.07.19-.11.28a6.08,6.08,0,0,0,.55-1.25,1.89,1.89,0,0,0,0-.23l0,0,.17-.18A5.33,5.33,0,0,1,106.78,30.22Zm1.1-2.25Zm.19-.39-.87.88h0l-.88-.86s0,0,0,0h0l.86-.88h0l.88.86v0Zm0,.31a.79.79,0,0,0,0-.13l.08-.08v0A.84.84,0,0,1,108.05,27.89Zm.21,0a.65.65,0,0,0,0-.31.68.68,0,0,1-.14.31,1.09,1.09,0,0,0,0-.26.43.43,0,0,1,0-.05.16.16,0,0,0,0-.11l-.29-.29.39,0a.63.63,0,0,1,0,.65Zm.54,0a.82.82,0,0,0,0-.31.73.73,0,0,1-.14.31.65.65,0,0,0,0-.31.79.79,0,0,1-.13.31.8.8,0,0,0,0-.31.68.68,0,0,1-.14.31.62.62,0,0,0,0-.3.24.24,0,0,1,0,.08.83.83,0,0,0-.07-.46l.37,0a.62.62,0,0,1,0,.62Zm.43,0a.74.74,0,0,0,0-.3.77.77,0,0,1-.12.31.76.76,0,0,0,0-.3.66.66,0,0,1-.12.3,1,1,0,0,0,0-.3.29.29,0,0,0,0,.09.75.75,0,0,0-.08-.44h.33a.62.62,0,0,1,.09.41.25.25,0,0,0,0-.08A.66.66,0,0,1,109.23,27.85Zm.43,0a.57.57,0,0,0,0-.29.76.76,0,0,1-.1.3.76.76,0,0,0,0-.3.64.64,0,0,1-.11.3s0,0,0-.06a.73.73,0,0,0,0-.56h.29a.63.63,0,0,1,.07.42.45.45,0,0,0,0-.11A.65.65,0,0,1,109.66,27.84Zm.43,0a.57.57,0,0,0,0-.29.58.58,0,0,1-.09.29,1,1,0,0,0,0-.29.76.76,0,0,1-.1.3v0a.75.75,0,0,0,0-.57h.24a.61.61,0,0,1,.09.31A.63.63,0,0,1,110.09,27.83Zm.33,0a.67.67,0,0,0,0-.28.75.75,0,0,1-.09.29.54.54,0,0,0,0-.18.67.67,0,0,0-.06-.39h.22a.67.67,0,0,1,.06.44.47.47,0,0,0,0-.17A.57.57,0,0,1,110.42,27.82Zm.22,0a.7.7,0,0,0,0-.53h.22a1.1,1.1,0,0,0,0,.27.45.45,0,0,0,0,.11.47.47,0,0,1-.06.15.67.67,0,0,0,0-.28A.6.6,0,0,1,110.64,27.8Zm1,.4a.66.66,0,1,1,.66-.67A.66.66,0,0,1,111.59,28.2Z"/><path class="cls-4" d="M48.88,26.71l-.12-.11h0l0-.22a5.71,5.71,0,0,1,.41-1.27l-.15.28a5,5,0,0,0-.47,1.18l0,0-.18.17a5.32,5.32,0,0,1,.73-1.83l.3.11A5.82,5.82,0,0,0,48.88,26.71Z"/><polygon class="cls-4" points="49.72 28.16 50.38 27.59 49.73 27.02 62.85 26.87 64.42 27.72 62.84 28.54 49.72 28.16"/><path class="cls-4" d="M49.16,28.15l0,0,.47,0-.39,0,0,0,.46,0-.38,0,0,0,.45,0-.37,0,0,0,.44,0-.36,0,0,0,.44,0-.37,0v0l.46,0-.46-.05v0l.37,0-.43,0,0,0,.37,0-.44-.05,0,0,.37,0-.45-.05,0,0,.38,0-.46-.05h0l.39,0L49.2,27h.52l.48.58-.49.56Z"/><path class="cls-4" d="M48.36,28.38l.17.18,0,0a1.89,1.89,0,0,0,0,.23,5.59,5.59,0,0,0,.55,1.25c0-.09-.08-.19-.11-.28a4.65,4.65,0,0,1-.31-1.22h0l.11-.12a5.91,5.91,0,0,0,.5,1.68l-.31.1A5.33,5.33,0,0,1,48.36,28.38Z"/><polygon class="cls-4" points="47.95 27.96 47.95 27.97 47.95 27.97 47.95 27.96"/><path class="cls-4" d="M47.75,27.57a0,0,0,0,1,0,0l.88-.86a0,0,0,0,1,0,0h0l.86.88h0s0,0,0,0l-.88.86h0l-.86-.88Z"/><path class="cls-4" d="M47.66,27.66v0l.08.08a.35.35,0,0,0,0,.13A.63.63,0,0,1,47.66,27.66Z"/><path class="cls-4" d="M47.54,27.84a.63.63,0,0,1,0-.65l.39,0-.29.29a.16.16,0,0,0-.05.11.11.11,0,0,0,0,.05.75.75,0,0,0,0,.26.68.68,0,0,1-.14-.31.8.8,0,0,0,0,.31A.08.08,0,0,1,47.54,27.84Z"/><path class="cls-4" d="M47,27.83a.65.65,0,0,1,0-.62l.37,0a.75.75,0,0,0-.07.46.24.24,0,0,1,0-.08.62.62,0,0,0,0,.3.68.68,0,0,1-.14-.31.8.8,0,0,0,0,.31.58.58,0,0,1-.13-.31.65.65,0,0,0,0,.31.85.85,0,0,1-.13-.31.82.82,0,0,0,0,.31Z"/><path class="cls-4" d="M46.48,27.55a.25.25,0,0,0,0,.08.62.62,0,0,1,.09-.41h.32a.84.84,0,0,0-.07.44s0-.06,0-.09a1,1,0,0,0,0,.3.66.66,0,0,1-.12-.3.76.76,0,0,0,0,.3.77.77,0,0,1-.12-.31.6.6,0,0,0,0,.3A.66.66,0,0,1,46.48,27.55Z"/><path class="cls-4" d="M46.06,27.55s0,.08,0,.11a.71.71,0,0,1,.08-.42h.29a.73.73,0,0,0,0,.56s0,0,0,.06a.64.64,0,0,1-.11-.3.76.76,0,0,0,0,.3.77.77,0,0,1-.11-.3.7.7,0,0,0,0,.29A.65.65,0,0,1,46.06,27.55Z"/><path class="cls-4" d="M45.64,27.56a.61.61,0,0,1,.09-.31H46a.75.75,0,0,0,0,.57v0a.76.76,0,0,1-.1-.3.72.72,0,0,0,0,.29.72.72,0,0,1-.1-.29,1,1,0,0,0,0,.29A.78.78,0,0,1,45.64,27.56Z"/><path class="cls-4" d="M45.33,27.54a.47.47,0,0,0,0,.17.62.62,0,0,1,.06-.44h.22a.77.77,0,0,0-.07.39,1.09,1.09,0,0,0,0,.18.75.75,0,0,1-.09-.29.67.67,0,0,0,0,.28A.57.57,0,0,1,45.33,27.54Z"/><path class="cls-4" d="M45.12,27.53a.67.67,0,0,0,0,.28.47.47,0,0,1-.06-.15s0-.08,0-.11a.76.76,0,0,0,0-.27h.22a.74.74,0,0,0,0,.53A.6.6,0,0,1,45.12,27.53Z"/><path class="cls-4" d="M43.58,27.53a.67.67,0,0,1,1.33,0,.67.67,0,0,1-.67.66A.66.66,0,0,1,43.58,27.53Z"/><path class="cls-1" d="M49.92,28.09l.59-.49h0l.15.14L62,27.91a2.46,2.46,0,0,0,1-.2L50.52,27.6l.15-.14,11.29,0a2.42,2.42,0,0,1,1,.23h1.25l-1.44.74h0Z"/><path class="cls-1" d="M48.54,27.16l-.31.3a.17.17,0,0,0,0,.22l.3.31a.16.16,0,0,0,.22,0l.31-.3a.15.15,0,0,0,0-.11.12.12,0,0,0,0-.11l-.3-.31a.17.17,0,0,0-.22,0Zm0,.62-.07-.08s0,0,0-.05a.19.19,0,0,1,0-.08.16.16,0,0,1,0-.08s0,0,0,0l.07-.08.09-.08a.44.44,0,0,1-.06.1.24.24,0,0,1-.06.09l0,.05s0,0,0,0,0,0,0,.05l0,.05.06.09,0,.1Z"/><path class="cls-1" d="M44.24,28.12a.6.6,0,0,0,.59-.58.58.58,0,0,0-.58-.58.57.57,0,0,0-.59.57A.59.59,0,0,0,44.24,28.12Zm.23-.18a.07.07,0,0,0,0,0l.07-.08a.21.21,0,0,0,0-.06l0-.08s0-.05,0-.08a.06.06,0,0,0,0,0v0a.47.47,0,0,0,0-.17l0-.07a.21.21,0,0,1,0-.06l0-.05,0,0,0,0h0l0,0,0,0,.06.06s0,0,0,.08a.32.32,0,0,1,0,.09.28.28,0,0,1,0,.09s0,0,0,0v.07l0,.09a.2.2,0,0,1,0,.08l0,.06a.18.18,0,0,1-.09.07l0,0Zm-.69-.41a.4.4,0,0,1,.38-.42c.2,0-.14.19-.15.43s.34.43.14.43A.41.41,0,0,1,43.78,27.53Z"/><path class="cls-1" d="M48.9,28.07l-.15.13-.07.05,0-.06.13-.16.09-.1.11-.11.11-.11a.17.17,0,0,0,0-.12.13.13,0,0,0,0-.12l-.11-.12-.19-.21L48.74,27l0-.06.06,0,.15.14a1.8,1.8,0,0,1,.21.19l.06.06,0,0,0,0a.28.28,0,0,1,0,.37h0l0,0-.06.05L49,28Z"/><path class="cls-1" d="M48.39,28.07l-.1-.09-.11-.1-.06-.06,0,0h0a.29.29,0,0,1-.07-.18.27.27,0,0,1,.08-.19l0,0,0,0,0-.06.22-.19.16-.13.06,0,0,.06-.13.15-.19.21-.11.12a.17.17,0,0,0,0,.12.17.17,0,0,0,0,.12l.11.12a.52.52,0,0,1,.1.11.41.41,0,0,1,.09.1,1.31,1.31,0,0,1,.13.16l0,.06-.06-.05Z"/><path class="cls-5" d="M44.24,28.33a.77.77,0,0,0,.69-.39l3.16.17.11.11A5.28,5.28,0,0,0,49,30.34l0,0,.54-.18,0-.07a5.56,5.56,0,0,1-.53-1.8l.05-.06,4,.12h.19l.75,0h.5l.9,0,7.44.21h0l1.71-.88a.06.06,0,0,0,0-.06.07.07,0,0,0,0-.06l-1.7-.91h0l-5.8.07h-2.3l-5.71.07L49,26.83A5.74,5.74,0,0,1,49.55,25l0-.07-.53-.19,0,0a5.43,5.43,0,0,0-.81,2.11L48.1,27l-3.16.11a.83.83,0,0,0-.69-.41.8.8,0,0,0,0,1.59Zm4.64-1.62-.12-.11h0l0-.22a5.71,5.71,0,0,1,.41-1.27l-.15.28a5,5,0,0,0-.47,1.18l0,0-.18.17a5.32,5.32,0,0,1,.73-1.83l.3.11A5.82,5.82,0,0,0,48.88,26.71Zm.84,1.45.66-.57L49.74,27l13.11-.15,1.57.85-1.58.82Zm-.56,0,0,0,.47,0-.39,0,0,0,.46,0-.38,0,0,0,.45,0-.37,0,0,0,.44,0-.36,0,0,0,.44,0-.37,0v0l.46,0-.46-.05v0l.37,0-.43,0,0,0,.37,0-.44-.05,0,0,.37,0-.45-.05,0,0,.38,0-.46-.05h0l.39,0L49.2,27h.52l.48.58-.49.56Zm-.8.23.17.18,0,0a1.89,1.89,0,0,0,0,.23,5.59,5.59,0,0,0,.55,1.25c0-.09-.08-.19-.11-.28a4.65,4.65,0,0,1-.31-1.22h0l.11-.12a5.91,5.91,0,0,0,.5,1.68l-.31.1A5.33,5.33,0,0,1,48.36,28.38ZM48,28h0Zm-.2-.39a0,0,0,0,1,0,0l.88-.86a0,0,0,0,1,0,0h0l.86.88h0s0,0,0,0l-.88.86h0l-.86-.88Zm-.09.09v0l.08.08a.35.35,0,0,0,0,.13A.63.63,0,0,1,47.66,27.66Zm-.12.18a.63.63,0,0,1,0-.65l.39,0-.29.29a.16.16,0,0,0-.05.11.11.11,0,0,0,0,.05.75.75,0,0,0,0,.26.68.68,0,0,1-.14-.31.8.8,0,0,0,0,.31A.08.08,0,0,1,47.54,27.84Zm-.54,0a.65.65,0,0,1,0-.62l.37,0a.75.75,0,0,0-.07.46.24.24,0,0,1,0-.08.62.62,0,0,0,0,.3.68.68,0,0,1-.14-.31.8.8,0,0,0,0,.31.58.58,0,0,1-.13-.31.65.65,0,0,0,0,.31.85.85,0,0,1-.13-.31.82.82,0,0,0,0,.31Zm-.52-.28a.25.25,0,0,0,0,.08.62.62,0,0,1,.09-.41h.32a.84.84,0,0,0-.07.44s0-.06,0-.09a1,1,0,0,0,0,.3.66.66,0,0,1-.12-.3.76.76,0,0,0,0,.3.77.77,0,0,1-.12-.31.6.6,0,0,0,0,.3A.66.66,0,0,1,46.48,27.55Zm-.42,0s0,.08,0,.11a.71.71,0,0,1,.08-.42h.29a.73.73,0,0,0,0,.56s0,0,0,.06a.64.64,0,0,1-.11-.3.76.76,0,0,0,0,.3.77.77,0,0,1-.11-.3.7.7,0,0,0,0,.29A.65.65,0,0,1,46.06,27.55Zm-.42,0a.61.61,0,0,1,.09-.31H46a.75.75,0,0,0,0,.57v0a.76.76,0,0,1-.1-.3.72.72,0,0,0,0,.29.72.72,0,0,1-.1-.29,1,1,0,0,0,0,.29A.78.78,0,0,1,45.64,27.56Zm-.31,0a.47.47,0,0,0,0,.17.62.62,0,0,1,.06-.44h.22a.77.77,0,0,0-.07.39,1.09,1.09,0,0,0,0,.18.75.75,0,0,1-.09-.29.67.67,0,0,0,0,.28A.57.57,0,0,1,45.33,27.54Zm-.21,0a.67.67,0,0,0,0,.28.47.47,0,0,1-.06-.15s0-.08,0-.11a.76.76,0,0,0,0-.27h.22a.74.74,0,0,0,0,.53A.6.6,0,0,1,45.12,27.53Zm-1.54,0a.67.67,0,0,1,1.33,0,.67.67,0,0,1-.67.66A.66.66,0,0,1,43.58,27.53Z"/></svg>